<svg width="32" height="32" viewBox="0 0 32 32" fill="none" xmlns="http://www.w3.org/2000/svg">
<path d="M23.4667 9.59998H8.53333C8.21333 9.59998 8 9.81331 8 10.1333V11.6266C8 12.5333 8.74667 13.3333 9.70667 13.3333H13.3333V13.8666C13.3333 14.7733 14.0267 15.4666 14.9333 15.4666H15.4667V22.4H13.8667C12.96 22.4 12.2667 23.0933 12.2667 24V25.0666C12.2667 25.3866 12.48 25.6 12.8 25.6H19.2C19.52 25.6 19.7333 25.3866 19.7333 25.0666V24C19.7333 23.0933 19.04 22.4 18.1333 22.4H16.5333V15.4666H17.0667C17.9733 15.4666 18.6667 14.7733 18.6667 13.8666V13.3333H22.2933C23.2 13.3333 24 12.5866 24 11.6266V10.1333C24 9.81331 23.7867 9.59998 23.4667 9.59998ZM18.1333 23.4666C18.4533 23.4666 18.6667 23.68 18.6667 24V24.5333H13.3333V24C13.3333 23.68 13.5467 23.4666 13.8667 23.4666H18.1333ZM17.6 13.8666C17.6 14.1866 17.3867 14.4 17.0667 14.4H14.9333C14.6133 14.4 14.4 14.1866 14.4 13.8666V13.3333H17.6V13.8666ZM22.9333 11.6266C22.9333 11.9466 22.6667 12.2666 22.2933 12.2666H9.70667C9.33333 12.2666 9.06667 12 9.06667 11.6266V10.6666H22.9333V11.6266Z" fill="black"/>
<path d="M6.93333 14.9334H3.2V8.00002C3.2 7.09336 2.50667 6.40002 1.6 6.40002H0.533333C0.213333 6.40002 0 6.61336 0 6.93336V25.0667C0 25.3867 0.213333 25.6 0.533333 25.6C0.853333 25.6 1.06667 25.3867 1.06667 25.0667V18.1334H7.46667V25.0667C7.46667 25.3867 7.68 25.6 8 25.6C8.32 25.6 8.53333 25.3867 8.53333 25.0667V16.5334C8.53333 15.6267 7.84 14.9334 6.93333 14.9334ZM1.06667 7.46669H1.6C1.92 7.46669 2.13333 7.68002 2.13333 8.00002V14.9334H1.06667V7.46669ZM7.46667 17.0667H1.06667V16H6.93333C7.25333 16 7.46667 16.2134 7.46667 16.5334V17.0667Z" fill="black"/>
<path d="M31.4667 6.40002H30.4C29.4933 6.40002 28.8 7.09336 28.8 8.00002V14.9334H25.0667C24.16 14.9334 23.4667 15.6267 23.4667 16.5334V25.0667C23.4667 25.3867 23.68 25.6 24 25.6C24.32 25.6 24.5333 25.3867 24.5333 25.0667V18.1334H30.9333V25.0667C30.9333 25.3867 31.1467 25.6 31.4667 25.6C31.7867 25.6 32 25.3867 32 25.0667V6.93336C32 6.61336 31.7867 6.40002 31.4667 6.40002ZM30.9333 17.0667H24.5333V16.5334C24.5333 16.2134 24.7467 16 25.0667 16H30.9333V17.0667ZM30.9333 14.9334H29.8667V8.00002C29.8667 7.68002 30.08 7.46669 30.4 7.46669H30.9333V14.9334Z" fill="black"/>
</svg>
