<svg width="24" height="24" viewBox="0 0 24 24" fill="none" xmlns="http://www.w3.org/2000/svg">
<path d="M12 23.5C5.64974 23.5 0.5 18.3503 0.5 12C0.5 5.64974 5.64974 0.5 12 0.5C18.3503 0.5 23.5 5.64974 23.5 12C23.5 18.3503 18.3503 23.5 12 23.5Z" stroke="#BDBDBD"/>
<path d="M15.1202 23.2052V14.7046H18.2402L18.7082 11.083H15.1202V8.76942C15.1202 7.72062 15.4106 7.00542 16.9154 7.00542H18.833V3.76782C18.5018 3.72462 17.3618 3.62622 16.037 3.62622C13.2722 3.62622 11.3786 5.31342 11.3786 8.41422V11.0854H8.25138V14.707H11.3786V23.9998L15.1202 23.2052Z" fill="#BDBDBD"/>
</svg>
