<svg width="96" height="96" viewBox="0 0 96 96" fill="none" xmlns="http://www.w3.org/2000/svg">
<path d="M95.5592 0.672439C95.4196 0.475784 95.2504 0.315472 95.0613 0.200678C94.8721 0.0858838 94.6667 0.0188598 94.4568 0.00344163C94.2469 -0.0119766 94.0366 0.024513 93.838 0.110823C93.6394 0.197133 93.4563 0.33157 93.2993 0.50644L64.8657 32.1063C64.5711 32.0446 64.2734 32.0092 63.9748 32.0003C62.7753 32.0058 61.6012 32.4329 60.5866 33.2328C59.5719 34.0328 58.7575 35.1733 58.2363 36.5243C57.3782 36.122 56.4613 35.9535 55.547 36.0301C54.6326 36.1066 53.7419 36.4265 52.9344 36.9683C52.3723 36.0952 51.6689 35.3805 50.8705 34.8711C50.072 34.3618 49.1965 34.0691 48.3013 34.0125C47.4061 33.9558 46.5114 34.1364 45.676 34.5424C44.8405 34.9484 44.083 35.5706 43.4533 36.3683C43.3222 36.3143 43.1894 36.2683 43.0567 36.2263C42.728 33.937 41.7714 31.8625 40.3516 30.36C38.9318 28.8575 37.1375 28.0208 35.2777 27.9941C33.4178 27.9673 31.6086 28.7521 30.1615 30.2134C28.7144 31.6747 27.72 33.721 27.3492 36.0003C26.5237 35.9766 25.7024 36.1539 24.931 36.5223C24.3038 34.8905 23.2515 33.5739 21.9471 32.7886C20.6426 32.0032 19.1634 31.7957 17.7521 32.2001C16.3409 32.6045 15.0816 33.5969 14.1808 35.0142C13.28 36.4316 12.7914 38.1898 12.795 40.0003V40.2523C11.4224 40.6979 10.2068 41.7002 9.33853 43.1023C8.47027 44.5044 7.99841 46.2269 7.99685 48.0002V52.0002H1.59937C1.17519 52.0002 0.768385 52.2109 0.468445 52.586C0.168505 52.9611 0 53.4698 0 54.0002C0 72.6141 13.9561 84.4001 17.5931 87.15V94C17.5931 94.5304 17.7616 95.0391 18.0615 95.4142C18.3615 95.7893 18.7683 96 19.1924 96H63.9748C64.399 96 64.8058 95.7893 65.1058 95.4142C65.4057 95.0391 65.5742 94.5304 65.5742 94V87.15C69.2112 84.4001 83.1673 72.6141 83.1673 54.0002C83.1673 53.4698 82.9988 52.9611 82.6988 52.586C82.3989 52.2109 81.9921 52.0002 81.5679 52.0002H75.1704V48.0002C75.1673 46.6335 74.8838 45.2906 74.3469 44.1C73.8101 42.9094 73.038 41.911 72.1044 41.2003L95.3705 17.5524C95.5407 17.39 95.6832 17.1865 95.7894 16.954C95.8956 16.7215 95.9634 16.4647 95.9887 16.1988C96.0141 15.933 95.9965 15.6634 95.937 15.4062C95.8775 15.149 95.7773 14.9094 95.6423 14.7015C95.5073 14.4936 95.3404 14.3217 95.1513 14.196C94.9622 14.0704 94.7549 13.9934 94.5416 13.9698C94.3283 13.9462 94.1134 13.9764 93.9096 14.0586C93.7058 14.1408 93.5173 14.2734 93.3553 14.4484L70.1516 38.0223C69.8187 36.4122 69.0918 34.9724 68.0724 33.9043L95.4265 3.49442C95.7431 3.14206 95.935 2.64692 95.9599 2.11778C95.9847 1.58865 95.8406 1.0688 95.5592 0.672439ZM79.3528 60.0002H44.7824V64.0001H78.2956C74.4923 75.4241 65.3407 82.6701 63.543 84.0001H55.978V88H62.3755V92H20.7918V88H41.5836V84.0001H19.6243C17.8266 82.6701 8.67499 75.4241 4.87168 64.0001H22.3912V60.0002H3.8145C3.54411 58.6879 3.3601 57.3501 3.26432 56.0002H79.903C79.8072 57.3501 79.6232 58.6879 79.3528 60.0002ZM11.1956 52.0002V48.0002C11.1955 46.9487 11.5266 45.9393 12.1172 45.1907C12.7077 44.4421 13.5103 44.0144 14.3512 44.0002L14.5735 44.0322C14.8398 44.058 15.1071 44 15.3509 43.8634C15.5946 43.7268 15.8072 43.5161 15.9691 43.2504C16.131 42.9847 16.2371 42.6725 16.2777 42.3423C16.3183 42.0122 16.2922 41.6745 16.2016 41.3603C16.0687 40.9258 15.9983 40.4654 15.9937 40.0003C15.9895 38.9632 16.3086 37.9648 16.8835 37.2172C17.4583 36.4696 18.2435 36.0316 19.0724 35.9962C19.9013 35.9608 20.7086 36.3308 21.3229 37.0276C21.9372 37.7244 22.3101 38.6932 22.3624 39.7283C22.3831 40.104 22.4881 40.4648 22.6656 40.7692C22.843 41.0735 23.0855 41.3091 23.3652 41.4487C23.645 41.5883 23.9506 41.6262 24.2468 41.5582C24.543 41.4902 24.8179 41.319 25.0397 41.0643C25.4591 40.5546 25.9876 40.2078 26.5612 40.0659C27.1348 39.9239 27.7291 39.9928 28.2721 40.2643C28.5193 40.3768 28.7849 40.4113 29.0454 40.3647C29.3059 40.3181 29.5531 40.192 29.7652 39.9973C29.9773 39.8027 30.1478 39.5456 30.2615 39.2489C30.3751 38.9522 30.4285 38.625 30.4168 38.2963C30.4168 38.2303 30.3944 38.0683 30.388 38.0063C30.388 36.415 30.8936 34.8889 31.7934 33.7636C32.6932 32.6384 33.9136 32.0063 35.1862 32.0063C36.4587 32.0063 37.6791 32.6384 38.5789 33.7636C39.4788 34.8889 39.9843 36.415 39.9843 38.0063C39.9843 38.5367 40.1528 39.0454 40.4527 39.4205C40.7527 39.7955 41.1595 40.0063 41.5836 40.0063C42.1328 40.0122 42.6711 40.1984 43.1446 40.5463C43.5019 40.8003 43.9236 40.8726 44.3223 40.7482C44.7211 40.6239 45.0662 40.3123 45.2862 39.8783C45.6012 39.2451 46.0525 38.7357 46.5883 38.4083C47.1242 38.081 47.7229 37.949 48.3159 38.0275C48.9089 38.106 49.4723 38.3918 49.9415 38.8521C50.4107 39.3124 50.7667 39.9286 50.9688 40.6303C51.0632 40.9512 51.2219 41.2364 51.4297 41.4587C51.6375 41.6811 51.8874 41.8331 52.1555 41.9003C52.4238 41.9662 52.701 41.9457 52.9612 41.8407C53.2214 41.7358 53.456 41.5498 53.6429 41.3003C54.2198 40.543 55.0095 40.0959 55.8451 40.0534C56.6808 40.0108 57.4969 40.3762 58.1211 41.0723C58.343 41.327 58.6178 41.4982 58.9141 41.5662C59.2103 41.6342 59.5159 41.5963 59.7956 41.4567C60.0754 41.3171 60.3179 41.0815 60.4953 40.7772C60.6727 40.4728 60.7778 40.112 60.7985 39.7363C60.8265 38.6791 61.1892 37.6792 61.8067 36.9564C62.4243 36.2336 63.2462 35.8473 64.0916 35.8823C64.937 35.9173 65.7366 36.3708 66.3146 37.1431C66.8926 37.9154 67.2016 38.9431 67.1736 40.0003C67.169 40.4654 67.0986 40.9258 66.9657 41.3603C66.8748 41.6745 66.8484 42.0121 66.8888 42.3424C66.9292 42.6727 67.0351 42.985 67.1968 43.2509C67.3586 43.5169 67.571 43.7279 67.8148 43.8647C68.0585 44.0015 68.3258 44.0598 68.5922 44.0342L68.8161 44.0002C69.657 44.0144 70.4595 44.4421 71.0501 45.1907C71.6407 45.9393 71.9718 46.9487 71.9717 48.0002V52.0002H11.1956Z" fill="#323232"/>
<path d="M41.5516 5.92834C41.358 3.78939 40.5229 1.82184 39.215 0.422363L37.2125 3.54035C37.8473 4.2724 38.2565 5.25974 38.3689 6.33034C38.3824 7.13798 38.2668 7.94086 38.029 8.69194C37.7912 9.44302 37.4358 10.1272 36.9838 10.7043C36.3071 11.601 35.8019 12.6778 35.506 13.8539C35.2101 15.03 35.1314 16.2747 35.2757 17.4943C35.5378 18.795 36.0069 20.0163 36.6548 21.0854C37.3028 22.1544 38.1164 23.0491 39.047 23.7163L40.6464 20.2483C39.5808 19.4797 38.7876 18.2348 38.4265 16.7643C38.3782 16.1214 38.4452 15.4731 38.6225 14.8666C38.7999 14.2601 39.0831 13.7107 39.4517 13.2583C40.1816 12.279 40.7442 11.124 41.1053 9.86375C41.4663 8.60349 41.6182 7.26444 41.5516 5.92834Z" fill="#323232"/>
<path d="M31.9554 9.9284C31.7617 7.78946 30.9267 5.8219 29.6187 4.42242L27.6163 7.54041C28.2511 8.27246 28.6603 9.2598 28.7727 10.3304C28.7862 11.138 28.6706 11.9409 28.4328 12.692C28.1949 13.4431 27.8396 14.1272 27.3876 14.7044C26.7109 15.601 26.2056 16.6779 25.9098 17.854C25.6139 19.0301 25.5352 20.2747 25.6795 21.4943C25.9416 22.7951 26.4107 24.0164 27.0586 25.0854C27.7066 26.1544 28.5202 27.0492 29.4508 27.7163L31.0502 24.2483C29.9846 23.4797 29.1914 22.2349 28.8302 20.7643C28.782 20.1214 28.849 19.4731 29.0263 18.8666C29.2037 18.2601 29.4869 17.7107 29.8554 17.2584C30.5854 16.2791 31.148 15.1241 31.5091 13.8638C31.8701 12.6035 32.022 11.2645 31.9554 9.9284Z" fill="#323232"/>
<path d="M51.1479 9.9284C50.9542 7.78946 50.1192 5.8219 48.8112 4.42242L46.8088 7.54041C47.4435 8.27246 47.8527 9.2598 47.9651 10.3304C47.9786 11.138 47.8631 11.9409 47.6252 12.692C47.3874 13.4431 47.0321 14.1272 46.5801 14.7044C45.9034 15.601 45.3981 16.6779 45.1022 17.854C44.8064 19.0301 44.7276 20.2747 44.8719 21.4943C45.1341 22.7951 45.6031 24.0164 46.2511 25.0854C46.899 26.1544 47.7126 27.0492 48.6432 27.7163L50.2426 24.2483C49.177 23.4797 48.3838 22.2349 48.0227 20.7643C47.9744 20.1214 48.0414 19.4731 48.2188 18.8666C48.3961 18.2601 48.6793 17.7107 49.0479 17.2584C49.7778 16.2791 50.3405 15.1241 50.7015 13.8638C51.0626 12.6035 51.2144 11.2645 51.1479 9.9284Z" fill="#323232"/>
</svg>
