<svg width="24" height="24" viewBox="0 0 24 24" fill="none" xmlns="http://www.w3.org/2000/svg">
<path d="M12 23.5C5.64974 23.5 0.5 18.3503 0.5 12C0.5 5.64974 5.64974 0.5 12 0.5C18.3503 0.5 23.5 5.64974 23.5 12C23.5 18.3503 18.3503 23.5 12 23.5Z" stroke="#BDBDBD"/>
<path d="M11.9999 5.28459C14.1863 5.28459 14.4455 5.29179 15.3095 5.33259C16.1087 5.36859 16.5431 5.50299 16.8311 5.61579C17.2127 5.76459 17.4863 5.94219 17.7719 6.22779C18.0575 6.51339 18.2351 6.78699 18.3839 7.16859C18.4967 7.45659 18.6287 7.89099 18.6671 8.69019C18.7055 9.55419 18.7151 9.81339 18.7151 11.9998C18.7151 14.1862 18.7079 14.4454 18.6671 15.3094C18.6311 16.1086 18.4967 16.543 18.3839 16.831C18.2351 17.2126 18.0575 17.4862 17.7719 17.7718C17.4863 18.0574 17.2127 18.235 16.8311 18.3838C16.5431 18.4966 16.1087 18.6286 15.3095 18.667C14.4455 18.7054 14.1863 18.715 11.9999 18.715C9.8135 18.715 9.5543 18.7078 8.6903 18.667C7.8911 18.631 7.4567 18.4966 7.1687 18.3838C6.7871 18.235 6.5135 18.0574 6.2279 17.7718C5.9423 17.4862 5.7647 17.2126 5.6159 16.831C5.5031 16.543 5.3711 16.1086 5.3327 15.3094C5.2943 14.4454 5.2847 14.1862 5.2847 11.9998C5.2847 9.81339 5.2919 9.55419 5.3327 8.69019C5.3687 7.89099 5.5031 7.45659 5.6159 7.16859C5.7647 6.78699 5.9423 6.51339 6.2279 6.22779C6.5135 5.94219 6.7871 5.76459 7.1687 5.61579C7.4567 5.50299 7.8911 5.37099 8.6903 5.33259C9.5543 5.29179 9.8135 5.28459 11.9999 5.28459ZM11.9999 3.80859C9.7751 3.80859 9.4967 3.81819 8.6231 3.85899C7.7519 3.89979 7.1567 4.03659 6.6335 4.24059C6.0959 4.44699 5.6375 4.72779 5.1839 5.18379C4.7279 5.63979 4.4495 6.09579 4.2383 6.63579C4.0367 7.15659 3.8975 7.75179 3.8567 8.62539C3.8159 9.49899 3.8063 9.77739 3.8063 12.0022C3.8063 14.227 3.8159 14.5054 3.8567 15.379C3.8975 16.2502 4.0343 16.8454 4.2383 17.3686C4.4471 17.9038 4.7279 18.3622 5.1839 18.8158C5.6399 19.2718 6.0959 19.5502 6.6359 19.7614C7.1567 19.963 7.7519 20.1022 8.6255 20.143C9.4991 20.1838 9.7775 20.1934 12.0023 20.1934C14.2271 20.1934 14.5055 20.1838 15.3791 20.143C16.2503 20.1022 16.8455 19.9654 17.3687 19.7614C17.9039 19.5526 18.3623 19.2718 18.8159 18.8158C19.2719 18.3598 19.5503 17.9038 19.7615 17.3638C19.9631 16.843 20.1023 16.2478 20.1431 15.3742C20.1839 14.5006 20.1935 14.2222 20.1935 11.9974C20.1935 9.77259 20.1839 9.49419 20.1431 8.62059C20.1023 7.74939 19.9655 7.15419 19.7615 6.63099C19.5527 6.09579 19.2719 5.63739 18.8159 5.18379C18.3599 4.72779 17.9039 4.44939 17.3639 4.23819C16.8431 4.03659 16.2479 3.89739 15.3743 3.85659C14.5031 3.81819 14.2247 3.80859 11.9999 3.80859Z" fill="#BDBDBD"/>
<path d="M11.9998 7.79248C9.67663 7.79248 7.79263 9.67648 7.79263 11.9997C7.79263 14.3229 9.67663 16.2069 11.9998 16.2069C14.323 16.2069 16.207 14.3229 16.207 11.9997C16.207 9.67648 14.323 7.79248 11.9998 7.79248ZM11.9998 14.7309C10.4926 14.7309 9.26863 13.5093 9.26863 11.9997C9.26863 10.4901 10.4926 9.26848 11.9998 9.26848C13.507 9.26848 14.731 10.4901 14.731 11.9997C14.731 13.5093 13.507 14.7309 11.9998 14.7309Z" fill="#BDBDBD"/>
<path d="M16.3726 8.61082C16.9161 8.61082 17.3566 8.17027 17.3566 7.62682C17.3566 7.08337 16.9161 6.64282 16.3726 6.64282C15.8292 6.64282 15.3886 7.08337 15.3886 7.62682C15.3886 8.17027 15.8292 8.61082 16.3726 8.61082Z" fill="#BDBDBD"/>
</svg>
