<svg width="32" height="32" viewBox="0 0 32 32" fill="none" xmlns="http://www.w3.org/2000/svg">
<g clip-path="url(#clip0)">
<path d="M14.9333 2.1333C6.69919 2.1333 0 8.83255 0 17.0667V17.6H3.73331V17.0667C3.73331 10.8907 8.75731 5.86668 14.9333 5.86668H15.4666V2.1333H14.9333ZM14.4 4.81118C8.05975 5.08424 2.95094 10.1931 2.67788 16.5333H1.07681C1.35144 9.31093 7.17762 3.4848 14.4 3.21011V4.81118Z" fill="#111111"/>
<path d="M14.9333 28.2666C8.75731 28.2666 3.73331 23.2421 3.73331 17.0666V16.5333H0V17.0666C0 25.3008 6.69919 32 14.9333 32H15.4666V28.2666H14.9333ZM14.4 30.9231C7.17762 30.6485 1.35144 24.8223 1.07681 17.6H2.67788C2.95094 23.9408 8.05975 29.049 14.4 29.3216V30.9231Z" fill="#111111"/>
<path d="M17.0668 0H16.5334V3.73331H17.0668C23.2422 3.73331 28.2668 8.75731 28.2668 14.9333V15.4666H32.0001V14.9333C32.0001 6.69919 25.3009 0 17.0668 0ZM29.3222 14.4C29.0491 8.05975 23.9409 2.95094 17.6001 2.67788V1.07681C24.8224 1.3515 30.6486 7.17762 30.9238 14.4H29.3222Z" fill="#111111"/>
<path d="M26.1332 16.5333V17.0666C26.1332 23.2421 21.1087 28.2666 14.9332 28.2666H14.3999V32H14.9332C23.1673 32 29.8665 25.3008 29.8665 17.0667V16.5334H26.1332V16.5333ZM15.4666 30.9238V29.3221C21.8074 29.0491 26.9157 23.9408 27.1882 17.6H28.7898C28.5151 24.8224 22.689 30.6486 15.4666 30.9238Z" fill="#111111"/>
<path d="M23.4666 16.5333V17.6H26.121C25.85 23.3526 21.2191 27.9835 15.4666 28.2544V17.6H17.0666V16.5333H14.3999V29.3333H14.9332C21.6975 29.3333 27.1999 23.831 27.1999 17.0666V16.5333H23.4666Z" fill="#111111"/>
<path d="M2.66675 16.5333V17.0666C2.66675 23.8309 8.16969 29.3333 14.9334 29.3333H15.4667V16.5333H2.66675ZM14.4001 28.2544C8.6475 27.9835 4.01662 23.3525 3.74569 17.6H14.4001V28.2544Z" fill="#111111"/>
<path d="M14.9332 4.80005C8.16944 4.80005 2.6665 10.303 2.6665 17.0667V17.6001H15.4665V4.80005H14.9332ZM14.3999 16.5334H3.7455C4.01644 10.7808 8.64738 6.14993 14.3999 5.87899V16.5334Z" fill="#111111"/>
<path d="M17.0668 2.66675H16.5334V14.9334H17.6001V3.74569C23.3526 4.01662 27.9835 8.64756 28.2544 14.4001H23.4667V15.4667H29.3334V14.9334C29.3334 8.16969 23.831 2.66675 17.0668 2.66675Z" fill="#111111"/>
<path d="M22.9334 13.3333V19.7333C22.9334 20.0276 22.6944 20.2666 22.4001 20.2666C22.1057 20.2666 21.8668 20.0276 21.8668 19.7333V18.1333C21.8668 17.2511 21.1489 16.5333 20.2668 16.5333C19.3846 16.5333 18.6668 17.2511 18.6668 18.1333V18.6666C18.6668 18.9609 18.4278 19.1999 18.1334 19.1999C17.8391 19.1999 17.6001 18.9609 17.6001 18.6666V14.9333H16.5334V18.6666C16.5334 19.5487 17.2513 20.2666 18.1334 20.2666C19.0156 20.2666 19.7334 19.5487 19.7334 18.6666V18.1333C19.7334 17.8389 19.9724 17.5999 20.2668 17.5999C20.5611 17.5999 20.8001 17.8389 20.8001 18.1333V19.7333C20.8001 20.6154 21.5179 21.3333 22.4001 21.3333C23.2822 21.3333 24.0001 20.6154 24.0001 19.7333V13.3333H22.9334Z" fill="#111111"/>
<path d="M9.06655 12.2667C8.18443 12.2667 7.46655 12.9846 7.46655 13.8667C7.46655 14.7488 8.18443 15.4667 9.06655 15.4667C9.94867 15.4667 10.6665 14.7488 10.6665 13.8667C10.6665 12.9846 9.94867 12.2667 9.06655 12.2667ZM9.06655 14.4C8.77267 14.4 8.53324 14.1606 8.53324 13.8667C8.53324 13.5728 8.77267 13.3334 9.06655 13.3334C9.36042 13.3334 9.59986 13.5728 9.59986 13.8667C9.59986 14.1606 9.36042 14.4 9.06655 14.4Z" fill="#111111"/>
<path d="M12.8001 13.8667H11.7334V14.9334H12.8001V13.8667Z" fill="#111111"/>
<path d="M11.2 8C10.0234 8 9.06665 8.95681 9.06665 10.1333H10.1333C10.1333 9.54506 10.6117 9.06662 11.2 9.06662C11.7883 9.06662 12.2667 9.545 12.2667 10.1333H13.3334C13.3333 8.95681 12.3765 8 11.2 8Z" fill="#111111"/>
<path d="M8.00004 10.6667H6.93335V11.7334H8.00004V10.6667Z" fill="#111111"/>
<path d="M20.2667 8.53333C19.3846 8.53333 18.6667 9.2512 18.6667 10.1333C18.6667 11.0154 19.3846 11.7333 20.2667 11.7333C21.1489 11.7333 21.8667 11.0154 21.8667 10.1333C21.8667 9.2512 21.1489 8.53333 20.2667 8.53333ZM20.2667 10.6667C19.9724 10.6667 19.7334 10.4273 19.7334 10.1334C19.7334 9.83951 19.9724 9.60007 20.2667 9.60007C20.5611 9.60007 20.8001 9.83951 20.8001 10.1334C20.8001 10.4272 20.5611 10.6667 20.2667 10.6667Z" fill="#111111"/>
<path d="M22.9333 8V9.06669C23.5216 9.06669 24 9.54506 24 10.1334C24 10.7216 23.5217 11.2001 22.9333 11.2001V12.2668C24.1099 12.2668 25.0667 11.3099 25.0667 10.1334C25.0667 8.95694 24.1099 8 22.9333 8Z" fill="#111111"/>
<path d="M20.2666 5.8667H19.2V6.93339H20.2666V5.8667Z" fill="#111111"/>
<path d="M27.2 12.2667H26.1333V13.3334H27.2V12.2667Z" fill="#111111"/>
<path d="M7.4667 18.6667C6.58457 18.6667 5.8667 19.3846 5.8667 20.2667C5.8667 21.1489 6.58457 21.8667 7.4667 21.8667C8.34882 21.8667 9.06669 21.1489 9.06669 20.2667C9.06669 19.3846 8.34882 18.6667 7.4667 18.6667ZM7.4667 20.8001C7.17282 20.8001 6.93338 20.5611 6.93338 20.2667C6.93338 19.9724 7.17282 19.7334 7.4667 19.7334C7.76057 19.7334 8.00001 19.9724 8.00001 20.2667C8.00001 20.5611 7.76057 20.8001 7.4667 20.8001Z" fill="#111111"/>
<path d="M12.8001 18.6667H11.7334V19.7334H12.8001V18.6667Z" fill="#111111"/>
<path d="M12.2667 22.4C12.2667 22.9883 11.7883 23.4667 11.2 23.4667C10.6117 23.4667 10.1333 22.9883 10.1333 22.4H9.06665C9.06665 23.5766 10.0235 24.5333 11.2 24.5333C12.3765 24.5333 13.3333 23.5765 13.3333 22.4H12.2667Z" fill="#111111"/>
<path d="M13.3333 25.6H12.2666V26.6667H13.3333V25.6Z" fill="#111111"/>
<path d="M22.4 20.2667C21.5179 20.2667 20.8 20.9846 20.8 21.8667C20.8 22.7488 21.5179 23.4667 22.4 23.4667C23.2822 23.4667 24 22.7488 24 21.8667C24 20.9846 23.2822 20.2667 22.4 20.2667ZM22.4 22.4C22.1057 22.4 21.8667 22.1611 21.8667 21.8667C21.8667 21.5723 22.1057 21.3334 22.4 21.3334C22.6944 21.3334 22.9334 21.5723 22.9334 21.8667C22.9334 22.1611 22.6944 22.4 22.4 22.4Z" fill="#111111"/>
<path d="M18.6667 21.8667V22.9334C19.255 22.9334 19.7334 23.4118 19.7334 24.0001C19.7334 24.5883 19.2551 25.0668 18.6667 25.0668V26.1334C19.8433 26.1334 20.8001 25.1766 20.8001 24.0001C20.8001 22.8234 19.8432 21.8667 18.6667 21.8667Z" fill="#111111"/>
<path d="M17.6001 21.3333H16.5334V22.3999H17.6001V21.3333Z" fill="#111111"/>
<path d="M18.1333 23.4667H17.0667V24.5334H18.1333V23.4667Z" fill="#111111"/>
</g>
<defs>
<clipPath id="clip0">
<rect width="32" height="32" fill="white"/>
</clipPath>
</defs>
</svg>
