<svg width="32" height="32" viewBox="0 0 32 32" fill="none" xmlns="http://www.w3.org/2000/svg">
<g clip-path="url(#clip0)">
<path d="M25.9364 17.0856L24.4766 14.165L23.5225 14.6423L25.1225 17.8423C25.2132 18.0231 25.3977 18.1373 25.5998 18.1373C27.0702 18.1373 28.2665 19.3335 28.2665 20.804V22.9373H3.73313V17.604C3.73313 14.3693 6.36513 11.7373 9.59982 11.7373H22.3998V10.6707H9.59982C5.77688 10.6707 2.6665 13.781 2.6665 17.604V23.4706C2.6665 23.7656 2.90544 24.004 3.19982 24.004H28.7998C29.0948 24.004 29.3331 23.7656 29.3331 23.4706V20.804C29.3331 18.8595 27.8382 17.2568 25.9364 17.0856Z" fill="#111111"/>
<path d="M25.2626 11.9684L23.6626 10.3684C23.5074 10.2132 23.2733 10.1694 23.0722 10.2569L15.8167 13.4249C14.2903 14.1801 13.3394 15.707 13.3335 17.4137C13.3383 18.6089 13.8082 19.731 14.6567 20.5727C15.5004 21.4105 16.6188 21.8708 17.8049 21.8708C17.8108 21.8708 17.8172 21.8708 17.8236 21.8702H18.6284C18.6316 21.8702 18.6354 21.8702 18.6391 21.8702C20.493 21.8702 22.1303 20.7572 22.8109 19.0319L25.3816 12.5417C25.4594 12.3444 25.4129 12.1187 25.2626 11.9684ZM21.8188 18.6399C21.8188 18.6399 21.8188 18.6404 21.8183 18.6404C21.2993 19.9562 20.0519 20.8047 18.6369 20.8047C18.6343 20.8047 18.6316 20.8047 18.6289 20.8047H17.8215C17.8173 20.8047 17.8124 20.8047 17.8071 20.8047C16.9026 20.8047 16.0503 20.4537 15.4077 19.8159C14.7613 19.1753 14.4034 18.3204 14.3997 17.4137C14.4039 16.1183 15.1282 14.9561 16.2664 14.3919L23.1655 11.3801L24.2604 12.475L21.8188 18.6399Z" fill="#111111"/>
<path d="M30.9348 8.52183C30.9236 8.10746 30.7524 7.72183 30.4601 7.44452C30.1588 7.14533 29.7588 6.98052 29.3268 6.98052C29.3262 6.98052 29.3257 6.98052 29.3246 6.98052C28.9758 6.98215 28.7177 6.71971 28.7086 6.41415C28.7161 5.98158 28.5428 5.56083 28.2366 5.26377C27.9348 4.96246 27.5332 4.79602 27.106 4.79602C27.1055 4.79602 27.1055 4.79602 27.1049 4.79602C26.6771 4.79602 26.2756 4.96296 25.9742 5.26483L25.8558 5.38321C25.5651 5.68296 25.4084 6.07758 25.4148 6.49465C25.4206 6.87865 25.5636 7.23921 25.8201 7.52133L23.0857 10.2973L23.8463 11.0456L26.9556 7.88827C27.0548 7.78696 27.1103 7.6499 27.1086 7.50746C27.107 7.36508 27.0478 7.22908 26.946 7.1304L26.6318 6.82696C26.5369 6.73471 26.4836 6.61096 26.4814 6.47871C26.4793 6.34646 26.5294 6.22108 26.6377 6.10965L26.7289 6.01896C26.8291 5.91815 26.963 5.86271 27.1055 5.86271H27.106C27.2483 5.86271 27.3822 5.91815 27.4894 6.02483C27.5886 6.1214 27.6446 6.25627 27.642 6.41952C27.667 7.33046 28.4361 8.0579 29.3331 8.04777H29.3336C29.4755 8.04777 29.6088 8.10271 29.7176 8.21046C29.8115 8.29952 29.8648 8.42008 29.868 8.54965C29.8718 8.67871 29.8243 8.80246 29.7198 8.91233L29.6174 9.0089C29.4094 9.21633 29.0702 9.2169 28.8654 9.01208L28.5561 8.6974C28.4558 8.59502 28.3193 8.53796 28.1758 8.53796C28.0297 8.54808 27.8942 8.59608 27.794 8.69902L24.1513 12.4323L24.915 13.1769L28.179 9.83127C28.8073 10.387 29.7705 10.3646 30.3588 9.77471L30.4575 9.6819C30.4623 9.67708 30.5038 9.63552 30.5086 9.63071C30.794 9.33033 30.9455 8.93621 30.9348 8.52183Z" fill="#111111"/>
<path d="M12.6436 20.9602L9.97687 18.2935C9.87712 18.1933 9.74112 18.1373 9.5998 18.1373H6.93312V19.204H9.37899L10.979 20.804H6.39981C6.10593 20.804 5.86649 20.565 5.86649 20.2706V17.0706C5.86649 16.7763 6.10593 16.5373 6.39981 16.5373H12.2665V15.4706H6.39981C5.51768 15.4706 4.7998 16.1885 4.7998 17.0706V20.2706C4.7998 21.1527 5.51768 21.8706 6.39981 21.8706H12.2665C12.4819 21.8706 12.6766 21.741 12.7593 21.5415C12.8419 21.3421 12.7961 21.1128 12.6436 20.9602Z" fill="#111111"/>
<path d="M31.8734 23.1261C31.7721 23.0061 31.6233 22.9373 31.4665 22.9373H0.533097C0.376284 22.9373 0.227472 23.0055 0.126159 23.1255C0.0248465 23.2455 -0.0184035 23.4034 0.00722153 23.5581C0.358659 25.6701 2.16828 27.2034 4.3091 27.2039H27.6904C29.8312 27.2034 31.6403 25.6701 31.9928 23.5586C32.0185 23.4039 31.9747 23.2461 31.8734 23.1261ZM27.6905 26.1373H4.3091C2.91016 26.1368 1.69897 25.2701 1.22485 24.0039H30.7742C30.3006 25.2701 29.0888 26.1368 27.6905 26.1373Z" fill="#111111"/>
</g>
<defs>
<clipPath id="clip0">
<rect width="32" height="32" fill="white"/>
</clipPath>
</defs>
</svg>
