<svg width="32" height="32" viewBox="0 0 32 32" fill="none" xmlns="http://www.w3.org/2000/svg">
<path d="M10.5 17.5C10.5015 18.6968 10.8927 19.8607 11.6144 20.8154C12.336 21.7702 13.349 22.4641 14.5 22.7921V27.5C14.4993 28.1628 14.2356 28.7983 13.7669 29.2669C13.2983 29.7356 12.6628 29.9993 12 30C11.8674 30 11.7402 30.0527 11.6464 30.1464C11.5527 30.2402 11.5 30.3674 11.5 30.5C11.5 30.6326 11.5527 30.7598 11.6464 30.8536C11.7402 30.9473 11.8674 31 12 31H20C20.1326 31 20.2598 30.9473 20.3536 30.8536C20.4473 30.7598 20.5 30.6326 20.5 30.5C20.5 30.3674 20.4473 30.2402 20.3536 30.1464C20.2598 30.0527 20.1326 30 20 30C19.3372 29.9993 18.7017 29.7356 18.2331 29.2669C17.7644 28.7983 17.5007 28.1628 17.5 27.5V22.7921C18.651 22.4641 19.664 21.7702 20.3856 20.8154C21.1073 19.8607 21.4985 18.6968 21.5 17.5C21.5 17.4565 21.4943 17.4132 21.4831 17.3711L19.5143 9.98919L20.4881 5.60844C20.4984 5.56103 20.5017 5.51237 20.4979 5.464C21.3309 5.34325 22.0925 4.92681 22.6437 4.29078C23.1949 3.65476 23.4989 2.84163 23.5 2C23.5 1.86739 23.4473 1.74021 23.3536 1.64645C23.2598 1.55268 23.1326 1.5 23 1.5C22.3716 1.50046 21.7548 1.66998 21.2145 1.99077C20.6741 2.31157 20.2299 2.77183 19.9286 3.32331C19.7998 3.22116 19.6549 3.14092 19.5 3.08581V1.5C19.5 1.36739 19.4473 1.24021 19.3536 1.14645C19.2598 1.05268 19.1326 1 19 1C18.8674 1 18.7402 1.05268 18.6464 1.14645C18.5527 1.24021 18.5 1.36739 18.5 1.5V3.086C18.3143 3.15158 18.1433 3.25312 17.9968 3.38483C17.8503 3.51653 17.7312 3.67582 17.6463 3.85357C17.5614 4.03133 17.5124 4.22407 17.5021 4.42078C17.4917 4.61749 17.5202 4.81432 17.586 5H15.5V1.5C15.5 1.36739 15.4473 1.24021 15.3536 1.14645C15.2598 1.05268 15.1326 1 15 1H11C10.8674 1 10.7402 1.05268 10.6464 1.14645C10.5527 1.24021 10.5 1.36739 10.5 1.5C10.5 1.63261 10.5527 1.75979 10.6464 1.85355C10.7402 1.94732 10.8674 2 11 2H14.5V5H12C11.9251 5 11.8512 5.01681 11.7837 5.04919C11.7162 5.08158 11.6568 5.12871 11.61 5.18712C11.5631 5.24552 11.53 5.3137 11.513 5.38662C11.496 5.45954 11.4956 5.53535 11.5119 5.60844L12.4854 9.98919L10.5167 17.3711C10.5056 17.4132 10.4999 17.4565 10.5 17.5ZM22.4358 2.56419C22.3294 3.01963 22.0977 3.43624 21.767 3.76696C21.4362 4.09769 21.0196 4.32936 20.5642 4.43581C20.6706 3.98037 20.9023 3.56376 21.233 3.23304C21.5638 2.90231 21.9804 2.67064 22.4358 2.56419ZM17.5529 30H14.4471C14.7806 29.6747 15.0456 29.2859 15.2264 28.8565C15.4073 28.4271 15.5003 27.9659 15.5 27.5V22.9771C15.6648 22.9919 15.8313 23 16 23C16.1688 23 16.3353 22.9919 16.5 22.9771V27.5C16.4997 27.9659 16.5927 28.4271 16.7736 28.8565C16.9544 29.2859 17.2194 29.6747 17.5529 30ZM18.5 4.5C18.5 4.40111 18.5293 4.30444 18.5843 4.22221C18.6392 4.13999 18.7173 4.0759 18.8087 4.03806C18.9 4.00022 19.0006 3.99031 19.0975 4.00961C19.1945 4.0289 19.2836 4.07652 19.3536 4.14645C19.4235 4.21637 19.4711 4.30546 19.4904 4.40245C19.5097 4.49945 19.4998 4.59998 19.4619 4.69134C19.4241 4.7827 19.36 4.86079 19.2778 4.91573C19.1956 4.97068 19.0989 5 19 5C18.8674 4.99985 18.7403 4.94712 18.6466 4.85339C18.5529 4.75965 18.5001 4.63256 18.5 4.5ZM19.3767 6L19.1545 7H15.5V6H19.3767ZM14.5 6V7H12.8456L12.6233 6H14.5ZM13.4831 10.1289C13.5038 10.0513 13.5055 9.9698 13.4881 9.89137L13.0678 8H18.9322L18.5119 9.89156C18.4945 9.96999 18.4962 10.0515 18.5169 10.1291L20.4996 17.564C20.4831 18.7465 20.0018 19.875 19.1597 20.7053C18.3177 21.5357 17.1826 22.0013 16 22.0013C14.8174 22.0013 13.6823 21.5357 12.8403 20.7053C11.9982 19.875 11.5169 18.7465 11.5004 17.564L13.4831 10.1289Z" fill="#111111"/>
</svg>
