<svg width="32" height="32" viewBox="0 0 32 32" fill="none" xmlns="http://www.w3.org/2000/svg">
<path d="M30.5 27H25.7385C26.8812 26.3424 27.8305 25.3954 28.4908 24.2544C29.1511 23.1133 29.4992 21.8184 29.5 20.5C29.5 20.3674 29.4473 20.2402 29.3536 20.1464C29.2598 20.0527 29.1326 20 29 20C27.7626 20.0004 26.5445 20.3071 25.4544 20.8926C24.3643 21.4781 23.436 22.3242 22.7523 23.3556C22.2206 22.5517 21.5388 21.8579 20.7441 21.3125C22.2323 20.1316 23.3394 18.3297 23.966 16.0529C24.2883 14.8949 24.4677 13.7017 24.5 12.5C24.5 10.0187 22.0327 8 19 8C18.7764 8 18.554 8.01106 18.3329 8.03319C18.4106 7.82069 18.4621 7.69113 18.4641 7.68563C18.4945 7.60977 18.5057 7.52764 18.497 7.44642C18.4882 7.3652 18.4597 7.28736 18.4139 7.21971C18.3681 7.15206 18.3064 7.09667 18.2343 7.05836C18.1621 7.02006 18.0817 7.00002 18 7H3C2.9183 7 2.83784 7.02003 2.76567 7.05832C2.6935 7.09661 2.63181 7.15201 2.586 7.21966C2.54019 7.28731 2.51166 7.36516 2.5029 7.44639C2.49414 7.52762 2.50542 7.60976 2.53575 7.68563C2.54537 7.70975 3.5 10.1146 3.5 11.5C3.5 12.9449 2.51575 19.3594 2.50581 19.424C2.50194 19.4491 2.5 19.4746 2.5 19.5C2.50068 20.638 2.79997 21.7559 3.36795 22.742C3.93593 23.7281 4.75273 24.5479 5.73675 25.1196C5.31446 25.2558 4.93587 25.5017 4.6396 25.8321C4.34334 26.1624 4.13999 26.5654 4.05031 27H1.5C1.36739 27 1.24021 27.0527 1.14645 27.1464C1.05268 27.2402 1 27.3674 1 27.5V28.5C1.00074 29.1628 1.26438 29.7983 1.73306 30.2669C2.20173 30.7356 2.83719 30.9993 3.5 31H28.5C29.1628 30.9993 29.7983 30.7356 30.2669 30.2669C30.7356 29.7983 30.9993 29.1628 31 28.5V27.5C31 27.3674 30.9473 27.2402 30.8536 27.1464C30.7598 27.0527 30.6326 27 30.5 27ZM16.95 27C16.8603 26.5654 16.6569 26.1623 16.3606 25.8319C16.0643 25.5016 15.6856 25.2557 15.2633 25.1195C15.8374 24.7864 16.3572 24.3674 16.8048 23.8772C17.039 24.3433 17.3215 24.7835 17.6478 25.1906C18.2337 25.9195 18.95 26.533 19.7603 27H16.95ZM28.4794 21.0207C28.365 22.4158 27.8042 23.737 26.8801 24.7885C25.9559 25.8399 24.7177 26.5657 23.3487 26.8582L26.3536 23.8534C26.4473 23.7596 26.5 23.6324 26.5 23.4998C26.5 23.3672 26.4473 23.24 26.3536 23.1462C26.2598 23.0525 26.1326 22.9998 26 22.9998C25.8674 22.9998 25.7402 23.0525 25.6464 23.1462L22.6416 26.1511C22.9342 24.7822 23.66 23.5439 24.7115 22.6199C25.763 21.6958 27.0842 21.135 28.4794 21.0207ZM22.191 24.3576C22.0691 24.6204 21.9627 24.8902 21.8722 25.1654L19.8535 23.1466C19.7597 23.0529 19.6325 23.0002 19.4999 23.0002C19.3673 23.0002 19.2401 23.0529 19.1464 23.1466C19.0526 23.2404 18.9999 23.3676 18.9999 23.5002C18.9999 23.6328 19.0526 23.76 19.1464 23.8538L21.5959 26.3032C21.5747 26.4342 21.557 26.5662 21.5427 26.6992C20.317 26.3097 19.2333 25.5673 18.4274 24.5649C17.6099 23.5534 17.1191 22.3174 17.0201 21.0207C18.0911 21.1045 19.1244 21.4534 20.0271 22.0359C20.9298 22.6184 21.6734 23.4163 22.191 24.3576ZM17.5048 11.3313C17.9722 11.1106 18.4831 10.9975 19 11C20.4079 11 21.5 11.8063 21.5 12.5C21.4751 13.5379 21.3107 14.5678 21.0111 15.5619C20.4882 17.2695 19.6326 18.4975 18.4636 19.2233C18.2966 18.1216 17.5 12.8 17.5 11.5C17.5 11.4454 17.502 11.3887 17.5048 11.3313ZM19 9C21.4813 9 23.5 10.5701 23.5 12.4996C23.5 12.5577 23.448 18.2285 19.8062 20.7645C19.4174 20.5739 19.0128 20.4174 18.5968 20.2969C20.1625 19.4833 21.3237 17.9556 21.9672 15.8547C22.2971 14.766 22.4764 13.6373 22.5 12.5C22.5 11.1449 20.8972 10 19 10C18.5521 9.99986 18.1066 10.0653 17.6777 10.1943C17.7627 9.81844 17.8689 9.43856 17.9756 9.09194C18.3136 9.03065 18.6565 8.99988 19 9ZM3.5 19.5375C3.59081 18.9449 4.5 12.9763 4.5 11.5C4.5 10.4093 4.02537 8.87713 3.71831 8H11.5V12.5H10C9.86739 12.5 9.74021 12.5527 9.64645 12.6464C9.55268 12.7402 9.5 12.8674 9.5 13V17C9.5 17.1326 9.55268 17.2598 9.64645 17.3536C9.74021 17.4473 9.86739 17.5 10 17.5H14C14.1326 17.5 14.2598 17.4473 14.3536 17.3536C14.4473 17.2598 14.5 17.1326 14.5 17V13C14.5 12.8674 14.4473 12.7402 14.3536 12.6464C14.2598 12.5527 14.1326 12.5 14 12.5H12.5V8H17.2817C16.9746 8.87713 16.5 10.4093 16.5 11.5C16.5 12.9762 17.4091 18.9448 17.5 19.5375C17.4988 19.7133 17.489 19.8889 17.4713 20.0632C17.1492 20.0214 16.8248 20.0003 16.5 20C16.3674 20 16.2402 20.0527 16.1464 20.1464C16.0527 20.2402 16 20.3674 16 20.5C16.001 21.2925 16.1276 22.0799 16.375 22.8328C15.8613 23.5059 15.1994 24.0516 14.4406 24.4274C13.6819 24.8033 12.8467 24.9992 12 25H9C7.54828 24.9984 6.15594 24.4236 5.12591 23.4006C4.09589 22.3776 3.51153 20.9892 3.5 19.5375ZM13.5 13.5V16.5H10.5V13.5H13.5ZM6.5 26H14.5C14.8101 26.0004 15.1124 26.0967 15.3656 26.2758C15.6187 26.4548 15.8103 26.7078 15.914 27H5.086C5.18969 26.7078 5.38126 26.4548 5.63442 26.2758C5.88758 26.0967 6.18993 26.0004 6.5 26ZM30 28.5C29.9995 28.8977 29.8414 29.2789 29.5601 29.5601C29.2789 29.8414 28.8977 29.9995 28.5 30H3.5C3.10232 29.9995 2.72106 29.8414 2.43985 29.5601C2.15865 29.2789 2.00046 28.8977 2 28.5V28H30V28.5Z" fill="#111111"/>
</svg>
