<svg width="32" height="32" viewBox="0 0 32 32" fill="none" xmlns="http://www.w3.org/2000/svg">
<path d="M31.4655 20.2675H0.534288C0.239914 20.2675 0.000976562 20.5058 0.000976562 20.8008C0.000976562 26.9758 5.02465 32 11.2002 32H20.7996C26.9746 32 31.9988 26.9758 31.9988 20.8008C31.9988 20.5058 31.7604 20.2675 31.4655 20.2675ZM20.7996 30.9334H11.2002C5.79203 30.9334 1.35979 26.6745 1.08141 21.334H30.9183C30.64 26.6745 26.2077 30.9334 20.7996 30.9334Z" fill="#111111"/>
<path d="M27.2015 7.47148C27.2015 7.43254 27.2009 7.3936 27.1972 7.33441C27.1151 6.45023 26.5072 5.72385 25.7045 5.45135L26.3082 4.84767C27.3551 3.82217 27.4602 2.18174 26.5439 1.02342C25.5627 -0.16901 23.7942 -0.338635 22.6023 0.642113C22.5345 0.698113 22.469 0.7573 22.4034 0.822925L21.7474 1.48849C21.4722 0.690113 20.7443 0.0864267 19.8473 0.0032394C18.6661 -0.0612605 17.6661 0.8453 17.6027 2.01961C17.6006 2.05855 17.6 2.09749 17.6 2.13586V2.95342C17.2864 2.77155 16.9232 2.66705 16.5356 2.66648C16.4972 2.66648 16.4577 2.66755 16.3985 2.67073C15.2583 2.77686 14.3811 3.75654 14.4002 4.89242V5.61773C14.0802 5.43267 13.7155 5.33348 13.3358 5.33292C13.2974 5.33292 13.2585 5.33398 13.1993 5.33717C12.0586 5.44329 11.1813 6.42298 11.2005 7.55891V15.4677C11.2005 15.7626 11.4394 16.001 11.7338 16.001H20.7999C21.9763 16.001 22.933 15.0443 22.9325 13.8689C22.9325 13.4807 22.8285 13.1164 22.6461 12.8023H23.3666C24.5121 12.8338 25.4918 11.9437 25.599 10.7827C25.6219 10.3486 25.5131 9.93797 25.3073 9.58922C25.7862 9.53591 26.2294 9.32416 26.5749 8.97966C26.978 8.57753 27.2009 8.0421 27.2015 7.47148ZM25.8218 8.22447C25.6202 8.42497 25.353 8.53541 25.0677 8.53541C25.0672 8.53541 25.0667 8.53541 25.0661 8.53541H23.4662C23.1713 8.53541 22.9329 8.77435 22.9329 9.06872C22.9329 9.3631 23.1713 9.60203 23.4662 9.60203L23.5249 9.60366C24.1126 9.6351 24.5649 10.1385 24.535 10.7049C24.4806 11.2926 23.982 11.7475 23.3756 11.7352H20.7998C20.5049 11.7352 20.2665 11.9742 20.2665 12.2685C20.2665 12.5629 20.5049 12.8018 20.7998 12.8018C21.388 12.8018 21.8664 13.2802 21.8664 13.8685C21.8664 14.4567 21.388 14.9351 20.7998 14.9351H12.267V7.54985C12.2569 6.95948 12.7102 6.45448 13.2771 6.4011L13.3352 6.39948C13.9224 6.39998 14.3996 6.87785 14.4002 7.46448V7.46823C14.4002 7.7626 14.6386 8.00154 14.9329 8.00154C14.9335 8.00154 14.9335 8.00154 14.9335 8.00154C15.2279 8.00154 15.4662 7.76316 15.4668 7.46879V7.46829V4.88336C15.4567 4.29298 15.91 3.78798 16.4769 3.73461L16.5345 3.73298C17.1222 3.73404 17.5995 4.21186 17.6001 4.79904V4.80223C17.6001 5.0966 17.8384 5.33554 18.1328 5.33554C18.1334 5.33554 18.1334 5.33554 18.1334 5.33554C18.4277 5.33554 18.6661 5.09717 18.6667 4.80279V4.80223V2.1358L18.6683 2.07661C18.6992 1.48942 19.1909 1.03724 19.769 1.06655C20.3578 1.12149 20.8105 1.62649 20.7994 2.22698V2.66961C20.7994 2.88561 20.93 3.0808 21.1305 3.16292C21.3295 3.24505 21.5609 3.19811 21.7124 3.04348L23.1592 1.5753C23.1986 1.53636 23.2392 1.49955 23.2813 1.46492C24.0194 0.85805 25.1132 0.963612 25.7147 1.69317C26.2843 2.41417 26.2187 3.44236 25.5585 4.08929L24.1559 5.49185C24.0034 5.64435 23.9575 5.87367 24.0402 6.07317C24.1223 6.2721 24.3175 6.40223 24.5329 6.40223H24.9755C24.9867 6.40223 24.9947 6.40223 25.0038 6.40223C25.5862 6.40223 26.081 6.85129 26.1333 7.41229L26.1349 7.47098C26.1343 7.75572 26.0234 8.02341 25.8218 8.22447Z" fill="#111111"/>
<path d="M23.0895 3.35709L8.15747 18.2891L8.91164 19.0433L23.8437 4.11126L23.0895 3.35709Z" fill="#111111"/>
<path d="M20.7986 4.27173H19.7319V6.93822H20.7986V4.27173Z" fill="#111111"/>
<path d="M17.5989 6.93829H16.5322V10.1381H17.5989V6.93829Z" fill="#111111"/>
<path d="M14.3991 9.59937H13.3325V13.3324H14.3991V9.59937Z" fill="#111111"/>
<path d="M22.9319 6.40491H20.2654V7.47147H22.9319V6.40491Z" fill="#111111"/>
<path d="M20.2652 9.59937H17.0654V10.6659H20.2652V9.59937Z" fill="#111111"/>
<path d="M17.5988 12.7992H13.8657V13.8658H17.5988V12.7992Z" fill="#111111"/>
<path d="M9.95493 2.46706C9.95443 2.46599 9.9533 2.46493 9.9528 2.46387C9.2003 1.33699 7.67081 1.03087 6.5445 1.78337C6.50931 1.80631 6.47462 1.83081 6.43518 1.86018L6.24319 2.00631L6.05869 1.87349C5.08275 0.963182 3.54844 0.999995 2.61944 1.96418C2.16457 2.43562 1.92032 3.05637 1.93257 3.7118C1.94482 4.36724 2.21094 4.97837 2.68188 5.43274C2.81894 5.56499 2.97144 5.68124 3.13569 5.7783L3.58475 6.12924V6.4023C3.58475 7.87261 4.78094 9.0688 6.25125 9.0688C7.72156 9.0688 8.91774 7.87205 8.91718 6.4018V6.12874L9.38918 5.76024C10.4104 4.9853 10.6584 3.53849 9.95493 2.46706ZM8.73849 4.91543L8.05587 5.44874C7.92681 5.54955 7.85106 5.70474 7.85106 5.86899V6.4023C7.85106 7.28436 7.13325 8.00218 6.25119 8.00218C5.36912 8.00218 4.65131 7.28436 4.65131 6.4023V5.86899C4.65131 5.70474 4.57613 5.54955 4.4465 5.44874L3.76388 4.91543C3.74363 4.89943 3.72175 4.88505 3.69938 4.87224C3.59913 4.81518 3.50632 4.74587 3.42313 4.6653C3.1565 4.40824 3.00607 4.06268 2.99913 3.69255C2.99219 3.32243 3.13032 2.97156 3.38738 2.70487C3.65882 2.42331 4.022 2.28143 4.38569 2.28143C4.73231 2.28143 5.0795 2.40993 5.34831 2.66968C5.36644 2.68674 5.38562 2.70331 5.40644 2.71818L5.93975 3.10218C6.12962 3.23924 6.38718 3.23606 6.57387 3.09418L7.136 2.67131C7.44531 2.46437 7.81593 2.39187 8.18074 2.46387C8.54443 2.53637 8.85856 2.74599 9.06493 3.05424C9.46062 3.65899 9.3198 4.47387 8.73849 4.91543Z" fill="#111111"/>
<path d="M12.7993 0.533325H11.7327V1.59989H12.7993V0.533325Z" fill="#111111"/>
<path d="M15.9989 17.5988H14.9324V18.6654H15.9989V17.5988Z" fill="#111111"/>
<path d="M28.7991 3.20251V4.26914C29.3873 4.26914 29.8657 4.74751 29.8657 5.3357C29.8657 5.92388 29.3873 6.40232 28.7991 6.40232V7.46888C29.9755 7.46888 30.9323 6.51213 30.9323 5.3357C30.9323 4.15926 29.9755 3.20251 28.7991 3.20251Z" fill="#111111"/>
<path d="M2.13321 8.00476H1.06665V9.07138H2.13321V8.00476Z" fill="#111111"/>
<path d="M1.06754 5.87158H0.000976562V6.9382H1.06754V5.87158Z" fill="#111111"/>
<path d="M20.7997 17.0676C19.6233 17.0676 18.6665 18.0244 18.6665 19.2008H19.7331C19.7331 18.6126 20.2115 18.1342 20.7997 18.1342C21.3879 18.1342 21.8663 18.6126 21.8663 19.2008H22.9329C22.9329 18.0244 21.9761 17.0676 20.7997 17.0676Z" fill="#111111"/>
<path d="M6.40077 12.268H6.33358C6.09571 11.3491 5.26002 10.6682 4.26759 10.6682C3.27515 10.6682 2.4389 11.3491 2.20159 12.268H2.1344C0.957969 12.268 0.0012207 13.2248 0.0012207 14.4012C0.0012207 15.5776 0.957969 16.5344 2.1344 16.5344H6.40077C7.57721 16.5344 8.53395 15.5776 8.53395 14.4012C8.53395 13.2248 7.57721 12.268 6.40077 12.268ZM6.40077 15.4683H2.13434C1.54609 15.4683 1.06772 14.99 1.06772 14.4018C1.06772 13.8135 1.54609 13.3351 2.13434 13.3351H2.66765C2.96203 13.3351 3.20096 13.0962 3.20096 12.8018C3.20096 12.2136 3.67934 11.7353 4.26759 11.7353C4.85584 11.7353 5.33421 12.2136 5.33421 12.8018C5.33421 13.0962 5.57315 13.3351 5.86752 13.3351H6.40083C6.98908 13.3351 7.46746 13.8135 7.46746 14.4018C7.46733 14.99 6.98896 15.4683 6.40077 15.4683Z" fill="#111111"/>
<path d="M5.33398 15.4678H3.20079C2.90642 15.4678 2.66748 15.7067 2.66748 16.0011V18.1343C2.66748 18.4292 2.90642 18.6676 3.20079 18.6676H5.33398C5.62835 18.6676 5.86729 18.4292 5.86729 18.1343V16.0011C5.86729 15.7067 5.62835 15.4678 5.33398 15.4678ZM4.80066 17.6009H3.7341V16.5344H4.80073V17.6009H4.80066Z" fill="#111111"/>
<path d="M28.2659 13.8679C27.3838 13.8679 26.666 14.5857 26.666 15.4678C26.666 16.3499 27.3838 17.0677 28.2659 17.0677C29.1479 17.0677 29.8658 16.3499 29.8658 15.4678C29.8658 14.5857 29.1479 13.8679 28.2659 13.8679ZM28.2659 16.0016C27.9715 16.0016 27.7326 15.7622 27.7326 15.4683C27.7326 15.1744 27.9715 14.935 28.2659 14.935C28.5603 14.935 28.7992 15.1739 28.7992 15.4683C28.7992 15.7627 28.5603 16.0016 28.2659 16.0016Z" fill="#111111"/>
<path d="M28.2658 11.7347C26.2078 11.7347 24.5327 13.4093 24.5327 15.4678C24.5327 17.5263 26.2078 19.2009 28.2658 19.2009C30.3238 19.2009 31.9988 17.5263 31.9988 15.4678C31.9988 13.4093 30.3238 11.7347 28.2658 11.7347ZM28.2658 18.1348C26.7955 18.1348 25.5993 16.9381 25.5993 15.4683C25.5993 13.998 26.7955 12.8018 28.2658 12.8018C29.7361 12.8018 30.9323 13.998 30.9323 15.4683C30.9323 16.9386 29.7361 18.1348 28.2658 18.1348Z" fill="#111111"/>
</svg>
