<svg width="32" height="32" viewBox="0 0 32 32" fill="none" xmlns="http://www.w3.org/2000/svg">
<path d="M20.2665 2.66675C20.1705 2.66675 20.0767 2.69237 19.994 2.74144L0.260671 14.4747C0.0542959 14.5974 -0.0443916 14.8433 0.0190459 15.0747C0.0825459 15.3062 0.293171 15.4667 0.533171 15.4667H31.4665C31.7614 15.4667 31.9998 15.2278 31.9998 14.9334V14.4001C31.9999 7.93019 26.7364 2.66675 20.2665 2.66675ZM2.47398 14.4001L20.411 3.73444C26.2265 3.81231 30.9332 8.56694 30.9332 14.4001H2.47398Z" fill="#111111"/>
<path d="M23.9999 17.0667C22.5296 17.0667 21.3333 18.2629 21.3333 19.7333C21.3333 21.2037 22.5295 22.4 23.9999 22.4C25.4703 22.4 26.6666 21.2038 26.6666 19.7333C26.6666 18.2629 25.4703 17.0667 23.9999 17.0667ZM23.9999 21.3333C23.1178 21.3333 22.3999 20.6154 22.3999 19.7333C22.3999 18.8512 23.1178 18.1333 23.9999 18.1333C24.8821 18.1333 25.5999 18.8512 25.5999 19.7333C25.5999 20.6154 24.8821 21.3333 23.9999 21.3333Z" fill="#111111"/>
<path d="M18.6668 17.0667H17.6001V18.1333H18.6668V17.0667Z" fill="#111111"/>
<path d="M5.86674 22.4H4.80005V23.4667H5.86674V22.4Z" fill="#111111"/>
<path d="M29.8667 22.4H28.8V23.4667H29.8667V22.4Z" fill="#111111"/>
<path d="M12.8001 19.2H11.7334V20.2666H12.8001V19.2Z" fill="#111111"/>
<path d="M31.4667 14.4H0.533312C0.238937 14.4 0 14.639 0 14.9333V19.2C0 19.495 0.238937 19.7333 0.533312 19.7333C1.70988 19.7333 2.66663 20.6901 2.66663 21.8666C2.66669 23.0432 1.70988 24 0.533312 24C0.238937 24 0 24.2384 0 24.5333V28.8C0 29.095 0.238937 29.3333 0.533312 29.3333H18.6666C18.9616 29.3333 19.1999 29.095 19.1999 28.8C19.1999 27.9179 19.9178 27.2 20.7999 27.2C21.6821 27.2 22.3999 27.9179 22.3999 28.8C22.3999 29.095 22.6383 29.3333 22.9333 29.3333H31.4666C31.7615 29.3333 31.9999 29.095 31.9999 28.8V14.9333C32 14.639 31.7616 14.4 31.4667 14.4ZM30.9333 28.2667H23.4133C23.1653 27.0513 22.088 26.1334 20.8 26.1334C19.512 26.1334 18.4352 27.0513 18.1872 28.2667H1.06669V25.0225C2.57812 24.7675 3.73338 23.4496 3.73338 21.8667C3.73338 20.2838 2.57819 18.9659 1.06669 18.711V15.4667H30.9334V28.2667H30.9333Z" fill="#111111"/>
<path d="M12.8001 22.4C11.6235 22.4 10.6667 23.3568 10.6667 24.5333C10.6667 25.7099 11.6236 26.6666 12.8001 26.6666C13.9766 26.6666 14.9334 25.7098 14.9334 24.5333C14.9334 23.3568 13.9766 22.4 12.8001 22.4ZM12.8001 25.6C12.2118 25.6 11.7334 25.1216 11.7334 24.5333C11.7334 23.9451 12.2117 23.4667 12.8001 23.4667C13.3883 23.4667 13.8667 23.945 13.8667 24.5333C13.8667 25.1216 13.3883 25.6 12.8001 25.6Z" fill="#111111"/>
<path d="M19.2 22.9333H18.1333V24H19.2V22.9333Z" fill="#111111"/>
<path d="M7.9999 17.0667C7.11778 17.0667 6.3999 17.7845 6.3999 18.6667C6.3999 19.5488 7.11778 20.2667 7.9999 20.2667C8.88202 20.2667 9.5999 19.5488 9.5999 18.6667C9.5999 17.7845 8.88202 17.0667 7.9999 17.0667ZM7.9999 19.2C7.70602 19.2 7.46659 18.961 7.46659 18.6667C7.46659 18.3723 7.70602 18.1333 7.9999 18.1333C8.29377 18.1333 8.53321 18.3723 8.53321 18.6667C8.53321 18.961 8.29377 19.2 7.9999 19.2Z" fill="#111111"/>
<path d="M27.7334 25.0667H26.6667V26.1333H27.7334V25.0667Z" fill="#111111"/>
</svg>
