<svg width="32" height="32" viewBox="0 0 32 32" fill="none" xmlns="http://www.w3.org/2000/svg">
<g clip-path="url(#clip0)">
<path d="M26.0021 10.5556C25.9061 10.448 25.7688 10.3864 25.6245 10.3864H25.3184V3.13309C25.3184 2.95879 25.2287 2.79685 25.081 2.70436C24.9333 2.61186 24.7484 2.60189 24.5916 2.67806L21.6542 4.10422C21.48 4.18884 21.3694 4.36552 21.3694 4.55926V7.18418L19.4429 6.39761V1.71039C19.4429 1.53624 19.3533 1.3743 19.2057 1.28181C19.0581 1.18924 18.8734 1.17927 18.7166 1.25514L16.5043 2.32621V1.77514C16.5043 1.57338 16.3844 1.39085 16.1991 1.31078L13.2618 0.0414981C13.1055 -0.026067 12.9257 -0.0103861 12.7833 0.0831211C12.641 0.176628 12.5553 0.335533 12.5553 0.505855V5.85694L10.6288 6.87316V2.53389C10.6288 2.3674 10.5469 2.21153 10.4097 2.11716C10.2725 2.02278 10.0977 2.0019 9.9422 2.06144L7.00394 3.18606C6.80826 3.26099 6.67891 3.44888 6.67891 3.65851V10.3864H6.37548C6.23124 10.3864 6.09387 10.448 5.99791 10.5556C5.90187 10.6633 5.85642 10.8068 5.87297 10.9501L8.24613 31.552C8.26224 31.692 8.33617 31.819 8.44991 31.9023C8.56372 31.9856 8.70716 32.0177 8.84547 31.9906C13.5928 31.0652 18.4071 31.0652 23.1545 31.9906C23.1866 31.9969 23.2191 31.9999 23.2513 31.9999C23.3579 31.9999 23.4627 31.9663 23.55 31.9023C23.6638 31.8191 23.7377 31.692 23.7538 31.552L26.127 10.9501C26.1435 10.8069 26.0981 10.6633 26.0021 10.5556ZM22.381 4.87598L24.3067 3.94098V10.3864H23.7599C23.495 10.3864 23.2749 10.5909 23.2555 10.8551L23.1853 11.808C23.112 12.8042 22.8348 13.7596 22.381 14.6247V4.87598ZM21.3693 8.27693V16.0829C21.2221 16.2472 21.0671 16.4056 20.9039 16.5572C20.4581 16.9714 19.9666 17.3219 19.4428 17.6073V7.49035L21.3693 8.27693ZM18.431 2.51734L18.431 18.061C18.2683 18.1193 18.1038 18.1721 17.9371 18.2185V12.2757C17.9371 12.0695 17.812 11.8839 17.6207 11.8066L16.5042 11.3558V3.45018L18.431 2.51734ZM16.9255 12.617V18.423C16.6204 18.4622 16.3115 18.4837 15.9999 18.4837C15.663 18.4837 15.3291 18.46 14.9999 18.4142V11.8395L16.9255 12.617ZM15.4925 2.10762V3.12883C15.4925 3.13034 15.4922 3.13179 15.4922 3.13331V10.9473L14.6835 10.6208C14.5276 10.5578 14.3505 10.5764 14.2112 10.6705C14.0718 10.7645 13.9883 10.9217 13.9883 11.0898V18.1985C13.8462 18.1573 13.7061 18.1103 13.5671 18.0604L13.567 1.27566L15.4925 2.10762ZM12.5553 7.00078V17.6064C12.0322 17.3212 11.5413 16.9709 11.0961 16.5572C10.9323 16.4051 10.7766 16.246 10.6288 16.081V8.01693L12.5553 7.00078ZM7.69065 4.00652L9.61723 3.26909V14.621C9.16451 13.7569 8.88796 12.8027 8.81476 11.8079L8.7446 10.855C8.72516 10.5908 8.50512 10.3863 8.24013 10.3863H7.69072V4.00652H7.69065ZM22.8109 30.8969C20.5496 30.4888 18.275 30.2848 16 30.2848C13.725 30.2848 11.4504 30.4888 9.18908 30.8969L8.83471 27.821H23.1652L22.8109 30.8969ZM23.2818 26.8093H8.71815L8.08549 21.3174H23.9144L23.2818 26.8093ZM24.0309 20.3057H7.96901L6.94295 11.3981H7.77007L7.80576 11.8823C7.9586 13.9582 8.88254 15.8817 10.4075 17.2984C11.9324 18.7151 13.9185 19.4953 16 19.4953C18.0815 19.4953 20.0676 18.7151 21.5925 17.2984C23.1175 15.8817 24.0415 13.9582 24.1943 11.8823L24.2299 11.3981H25.0571L24.0309 20.3057Z" fill="#111111"/>
</g>
<defs>
<clipPath id="clip0">
<rect width="32" height="32" fill="white"/>
</clipPath>
</defs>
</svg>
