<svg width="32" height="32" viewBox="0 0 32 32" fill="none" xmlns="http://www.w3.org/2000/svg">
<path d="M2.5 22.5C2.5 24.2177 2.96619 26.3063 3.71669 27.95C4.61444 29.9169 5.78044 31 7 31C7.89188 31 8.74644 30.4309 9.5 29.3443C10.2536 30.4313 11.1081 31 12 31C13.2196 31 14.3856 29.9169 15.2833 27.95C15.3366 27.8333 15.388 27.7139 15.4383 27.5929C15.6034 27.9564 15.791 28.3091 16 28.6492V30.5C16 30.6326 16.0527 30.7598 16.1464 30.8536C16.2402 30.9473 16.3674 31 16.5 31H26.5C26.6326 31 26.7598 30.9473 26.8536 30.8536C26.9473 30.7598 27 30.6326 27 30.5V28.6505C27.4705 27.9091 29.5 24.2875 29.5 17C29.5 10.9369 27.5188 7.39956 27.4341 7.25194C27.3904 7.17541 27.3272 7.11179 27.251 7.06755C27.1747 7.0233 27.0881 7 27 7H19.3456L18.9956 4.43244C18.9866 4.36684 18.9647 4.30367 18.9311 4.24661C18.8976 4.18954 18.853 4.13971 18.8 4.1L14.8 1.1C14.6939 1.02044 14.5606 0.986274 14.4293 1.00503C14.298 1.02378 14.1796 1.09392 14.1 1.2C14.0204 1.30609 13.9863 1.43944 14.005 1.57071C14.0238 1.70199 14.0939 1.82044 14.2 1.9L18.0328 4.77463L18.3363 7H16C15.9119 7 15.8253 7.0233 15.749 7.06755C15.6728 7.11179 15.6096 7.17541 15.5659 7.25194C15.4816 7.39956 13.5 10.9369 13.5 17C13.5 17.3813 13.5063 17.7606 13.5177 18.1358C13.0177 18.039 12.5092 17.9935 12 18C11.3074 18 10.7211 18.0661 10.2138 18.2029C10.4217 17.3223 10.8103 16.5 11.5 16.5C11.6326 16.5 11.7598 16.4473 11.8536 16.3536C11.9473 16.2598 12 16.1326 12 16C12 15.8674 11.9473 15.7402 11.8536 15.6464C11.7598 15.5527 11.6326 15.5 11.5 15.5C10.7831 15.5 9.83981 15.8798 9.32969 17.6404C8.92697 16.9866 8.36365 16.4466 7.69331 16.072C7.02298 15.6973 6.26793 15.5004 5.5 15.5C5.36739 15.5 5.24021 15.5527 5.14645 15.6464C5.05268 15.7402 5 15.8674 5 16C4.99918 16.7433 5.18366 17.4751 5.53675 18.1292C3.49575 18.5426 2.5 19.9789 2.5 22.5ZM17 30V29H26V30H17ZM26.6953 8C27.0305 8.70526 27.3107 9.43535 27.5334 10.1838C27.6167 10.457 27.6934 10.7291 27.7633 11H19.891L19.4819 8H26.6953ZM16.3047 8H18.4726L18.8818 11H15.237C15.314 10.7025 15.3916 10.4296 15.4666 10.1838C15.6894 9.43535 15.9695 8.70526 16.3047 8ZM14.5 17C14.4962 15.3205 14.665 13.645 15.0036 12H19.0181L21.0046 26.5676C21.0225 26.699 21.0919 26.8179 21.1974 26.8981C21.303 26.9783 21.4362 27.0134 21.5676 26.9954C21.699 26.9775 21.8179 26.9081 21.8981 26.8026C21.9783 26.697 22.0134 26.5638 21.9954 26.4324L20.0274 12H27.9969C28.3331 13.6454 28.5017 15.3206 28.5 17C28.5 23.6534 26.725 27.1466 26.2236 28H16.7755C16.4429 27.4194 16.1611 26.8111 15.9331 26.182C16.2925 24.9505 16.5 23.6433 16.5 22.5C16.5 20.1583 15.6343 19.0188 14.5301 18.475C14.5104 17.9911 14.5 17.4968 14.5 17ZM8.95813 19.4581C8.22639 19.3422 7.55013 18.9976 7.02626 18.4737C6.50239 17.9499 6.1578 17.2736 6.04187 16.5419C6.77361 16.6578 7.44987 17.0024 7.97374 17.5263C8.49761 18.0501 8.8422 18.7264 8.95813 19.4581ZM6.18512 19.0394C6.60586 19.4998 7.11793 19.8675 7.68867 20.1189C8.25942 20.3704 8.87631 20.5002 9.5 20.5C9.63261 20.5 9.75979 20.4473 9.85355 20.3536C9.94732 20.2598 10 20.1326 10 20C10 19.8258 10.0102 19.5896 10.0352 19.3216C10.5336 19.1058 11.18 19 12 19C14.1008 19 15.5 19.5952 15.5 22.5C15.5 24.0836 15.0684 26.0129 14.3736 27.535C13.6688 29.0785 12.7817 30 12 30C11.3267 30 10.5944 29.3434 9.938 28.1511C9.89484 28.0727 9.83143 28.0073 9.75438 27.9618C9.67734 27.9162 9.58949 27.8922 9.5 27.8922C9.41051 27.8922 9.32266 27.9162 9.24562 27.9618C9.16857 28.0073 9.10516 28.0727 9.062 28.1511C8.40556 29.3434 7.67325 30 7 30C6.21831 30 5.33125 29.0785 4.62644 27.535C3.93163 26.0129 3.5 24.0836 3.5 22.5C3.5 21.243 3.76419 20.3625 4.30756 19.8083C4.72531 19.3822 5.34069 19.1301 6.18512 19.0396V19.0394Z" fill="#111111"/>
</svg>
