<svg width="32" height="32" viewBox="0 0 32 32" fill="none" xmlns="http://www.w3.org/2000/svg">
<path d="M31.9434 8.54818L31.9439 8.54794L29.6167 3.75156C29.5232 3.55867 29.3276 3.43628 29.1132 3.43628H2.88678C2.67238 3.43628 2.47693 3.55875 2.38332 3.75156L0.0561176 8.54794L0.0565973 8.54818C0.0207044 8.62204 0 8.70462 0 8.79224V28.0041C0 28.3132 0.250531 28.5637 0.559578 28.5637H31.4404C31.7495 28.5637 32 28.3132 32 28.0041V8.79224C32 8.70462 31.9793 8.62204 31.9434 8.54818ZM24.7124 18.4727L25.0443 13.4215C25.0667 13.0784 25.2215 12.7647 25.4802 12.538C25.739 12.3111 26.0705 12.1985 26.4143 12.2214L28.3613 12.3494C29.0699 12.3962 29.6088 13.0108 29.5626 13.7193L29.2496 18.4727H24.7124ZM2.35862 18.4727L4.48318 11.9002C4.70005 11.2293 5.42263 10.8598 6.09396 11.0768L7.28834 11.4628C7.84632 11.6433 8.19437 12.1734 8.17175 12.7324C7.26595 12.1805 6.0659 12.2802 5.26419 13.0476L4.35799 13.9159C3.89522 14.3588 3.63278 14.9557 3.61903 15.5963C3.60528 16.2369 3.8419 16.8443 4.28501 17.3064L5.40208 18.4728H2.35862V18.4727ZM10.5245 15.0729L9.11672 13.6032L9.17683 13.4178C9.58348 12.1595 8.89089 10.8048 7.63272 10.3979L6.43826 10.0119C5.17969 9.60506 3.82511 10.2978 3.41838 11.556L1.18255 18.4727H1.11916V9.35181H10.5245V15.0729ZM6.95179 18.4727L5.09303 16.5319C4.85673 16.2855 4.73067 15.9618 4.73794 15.6202C4.7453 15.2786 4.88511 14.9605 5.13205 14.7242L6.03824 13.8559C6.54762 13.3681 7.35908 13.3859 7.84712 13.8953L8.06151 14.1189C8.06663 14.1248 8.07191 14.1304 8.07726 14.136L12.2314 18.4727H6.95179ZM13.7813 18.4727L11.6437 16.2412V7.63495C11.6437 7.2514 11.9558 6.93931 12.3394 6.93931H14.7613C15.1449 6.93931 15.457 7.2514 15.457 7.63495V14.7981L14.0894 18.4727H13.7813ZM16.576 9.35181H18.8765C18.8203 9.61937 18.8107 9.89372 18.8483 10.1649C17.8742 10.1683 16.9573 10.7668 16.5979 11.7323L16.576 11.7909V9.35181ZM17.6468 12.1227C17.8946 11.4569 18.6377 11.1168 19.3033 11.3647L21.1324 12.0452C21.7982 12.293 22.1382 13.0361 21.8904 13.7017L20.1146 18.4727H15.2834L17.6468 12.1227ZM21.5551 17.8111L21.7943 18.4727H21.3089L21.5551 17.8111ZM22.9842 18.4727L22.1589 16.1892L22.9395 14.0922C23.1638 13.4895 23.14 12.8356 22.8724 12.2509C22.6049 11.6663 22.1256 11.2207 21.523 10.9964L20.0896 10.4631L20.0219 10.2754C19.9058 9.95416 19.9218 9.60698 20.0669 9.29777C20.2119 8.98849 20.4689 8.75418 20.7902 8.63803L22.749 7.93033C23.0702 7.81417 23.4174 7.83016 23.7266 7.97525C24.0359 8.12034 24.2702 8.37727 24.3864 8.69855L25.3314 11.3149C25.1203 11.4113 24.922 11.539 24.7425 11.6963C24.2589 12.1202 23.9694 12.707 23.9275 13.3484L23.5909 18.4727H22.9842ZM28.4348 11.2326L26.4877 11.1046C26.4733 11.1036 26.459 11.1035 26.4447 11.1028L25.8122 9.35181H30.8809V18.4727H30.3712L30.6793 13.7925C30.7657 12.4683 29.7589 11.3199 28.4348 11.2326ZM3.23724 4.55543H28.7628L30.547 8.23266H25.4055C25.1781 7.67028 24.754 7.2211 24.202 6.96202C23.6221 6.68982 22.9709 6.65993 22.3685 6.87768L20.4097 7.58539C20.0336 7.72136 19.7046 7.94368 19.4443 8.23258H16.576V7.63479C16.576 6.63411 15.7619 5.82 14.7612 5.82H12.3393C11.3386 5.82 10.5245 6.63411 10.5245 7.63479V8.23258H1.45306L3.23724 4.55543ZM1.11916 19.5918H4.289V27.4446H1.11916V19.5918ZM5.40816 19.5918H5.95878V27.4446H5.40816V19.5918ZM7.07794 27.4446V19.5918H24.9221V27.4446H7.07794ZM26.0413 27.4446V19.5918H26.5918V27.4446H26.0413ZM27.711 27.4446V19.5918H30.8808V27.4446H27.711Z" fill="#111111"/>
</svg>
