<svg width="32" height="32" viewBox="0 0 32 32" fill="none" xmlns="http://www.w3.org/2000/svg">
<path d="M6.0095 20.3949C5.79787 20.184 5.4545 20.1842 5.24269 20.3952C5.03087 20.6063 5.03075 20.9485 5.24237 21.1594C5.45406 21.3703 5.79731 21.3702 6.00918 21.1591C6.22099 20.948 6.22112 20.6058 6.0095 20.3949Z" fill="#111111"/>
<path d="M5.70145 23.7575C5.4897 23.5466 5.14645 23.5467 4.93457 23.7577C4.72276 23.9689 4.72263 24.311 4.93432 24.5219C5.14595 24.7329 5.48926 24.7327 5.70114 24.5217C5.91295 24.3105 5.91307 23.9684 5.70145 23.7575Z" fill="#111111"/>
<path d="M9.99607 21.9217C9.78438 21.7109 9.44113 21.711 9.22926 21.9221C9.01745 22.1332 9.01732 22.4753 9.22895 22.6863C9.44057 22.8972 9.78388 22.8971 9.99576 22.6859C10.2076 22.4748 10.2077 22.1327 9.99607 21.9217Z" fill="#111111"/>
<path d="M3.91306 21.8732C3.70137 21.6622 3.35806 21.6624 3.14624 21.8735C2.93443 22.0846 2.9343 22.4268 3.14599 22.6377C3.35762 22.8486 3.70093 22.8485 3.91281 22.6374C4.12462 22.4263 4.12475 22.0841 3.91306 21.8732Z" fill="#111111"/>
<path d="M6.98246 15.7585C6.7707 15.5475 6.42745 15.5476 6.21558 15.7588C6.00377 15.9699 6.00364 16.312 6.21533 16.523C6.42695 16.7339 6.77027 16.7338 6.98214 16.5227C7.19396 16.3115 7.19408 15.9694 6.98246 15.7585Z" fill="#111111"/>
<path d="M12.0935 17.7943C11.8818 17.5834 11.5386 17.5835 11.3267 17.7947C11.1148 18.0058 11.1148 18.3479 11.3264 18.5588C11.538 18.7698 11.8813 18.7696 12.0932 18.5585C12.3051 18.3474 12.3052 18.0053 12.0935 17.7943Z" fill="#111111"/>
<path d="M11.0727 13.719C10.8611 13.5081 10.5178 13.5082 10.3059 13.7193C10.0941 13.9305 10.094 14.2726 10.3057 14.4835C10.5173 14.6945 10.8606 14.6943 11.0725 14.4832C11.2842 14.2721 11.2843 13.93 11.0727 13.719Z" fill="#111111"/>
<path d="M17.7185 13.2072C17.5068 12.9963 17.1635 12.9964 16.9517 13.2075C16.7399 13.4186 16.7397 13.7607 16.9514 13.9717C17.163 14.1826 17.5063 14.1824 17.7182 13.9714C17.93 13.7602 17.9301 13.4181 17.7185 13.2072Z" fill="#111111"/>
<path d="M31.7628 9.82786C31.7419 9.54399 31.6593 9.27299 31.5215 9.03018C31.3517 8.54705 31.1381 8.05986 30.8817 7.5743L31.415 7.0428C31.7759 6.68311 31.9747 6.2033 31.9747 5.69167C31.9747 5.18004 31.7759 4.70017 31.415 4.34054C30.9117 3.83885 30.1925 3.67467 29.547 3.85479C29.4613 3.54148 29.2844 3.23748 29.03 2.98291C28.6078 2.56041 28.0494 2.34879 27.5365 2.41666L27.3494 2.44148C27.448 1.84991 27.266 1.22479 26.8156 0.775973C26.07 0.0328464 24.8567 0.0328464 24.111 0.775973L23.69 1.1956C22.5763 0.801348 21.4787 0.639285 20.4988 0.72741C19.3648 0.82941 18.3816 1.26591 17.6554 1.98966L1.29113 18.2988C0.446501 19.1406 0 20.3071 0 21.6724C0 24.0368 1.34119 26.785 3.58769 29.0239C4.82313 30.2551 6.44569 30.8707 8.06907 30.8706C8.27582 30.8706 8.48251 30.8605 8.68851 30.8405C8.68263 30.8547 8.67732 30.8693 8.67276 30.8845C8.59795 31.1323 8.7382 31.3939 8.98601 31.4687C9.67957 31.6782 10.3441 31.7813 10.961 31.7813C12.1021 31.7813 13.0793 31.4279 13.7697 30.7398L28.3651 16.1938C29.2864 16.0242 30.0877 15.6227 30.7088 15.0037C31.581 14.1346 32.027 12.9244 31.9987 11.504C31.988 10.9633 31.9075 10.401 31.7628 9.82786ZM29.5402 4.87267C29.9197 4.63185 30.4259 4.67848 30.7533 5.00473C30.9364 5.18717 31.0372 5.43117 31.0372 5.69167C31.0372 5.95223 30.9364 6.19623 30.7533 6.37873L29.928 7.20123C29.7972 6.8973 29.6092 6.61805 29.3702 6.37986C29.3615 6.3713 29.3518 6.36298 29.343 6.35442L29.5402 4.87267ZM24.9603 10.1488L26.3334 9.96686C26.5925 9.93243 26.9337 10.1693 27.0649 10.4734C27.1059 10.5684 27.122 10.6611 27.1112 10.7416L26.9382 12.0417C26.9041 12.2984 27.0845 12.5341 27.341 12.5682C27.362 12.571 27.3828 12.5724 27.4035 12.5724C27.6348 12.5724 27.8362 12.401 27.8675 12.1654L28.0405 10.8652C28.0598 10.7207 28.0537 10.571 28.0245 10.4217L29.166 9.28411C29.3143 9.1363 29.5049 9.04236 29.7171 9.01242C30.0273 8.96855 30.33 9.06767 30.5472 9.28417C30.5942 9.33105 30.6355 9.38205 30.6713 9.43624C30.7316 9.61386 30.7843 9.79024 30.8308 9.96543C30.8308 9.96736 30.8311 9.9693 30.8311 9.97124C30.8311 10.2318 30.7302 10.4758 30.5472 10.6583L27.477 13.7181C26.8919 13.742 26.2075 13.6225 25.4828 13.3606C25.5247 13.3186 25.5602 13.2689 25.5845 13.2107C25.9925 12.2331 25.74 11.0268 24.9603 10.1488ZM26.8157 3.47841C26.8233 3.47085 26.8308 3.46291 26.8383 3.4551L27.6597 3.34616C27.882 3.31666 28.1528 3.43148 28.3669 3.64573C28.5796 3.85854 28.6936 4.12729 28.6643 4.34704L28.6364 4.55685C28.6364 4.55698 28.6364 4.55704 28.6364 4.55717L28.4719 5.79367C28.2477 5.70573 28.0115 5.64798 27.7685 5.62386C27.511 5.59842 27.2813 5.78636 27.2557 6.04404C27.2302 6.30167 27.4183 6.53123 27.6758 6.55686C27.9982 6.58886 28.3025 6.71086 28.5561 6.90986C28.6123 6.95398 28.6621 6.9978 28.7084 7.04392C29.004 7.33855 29.1794 7.72986 29.2023 8.1458C29.2029 8.15711 29.2029 8.16849 29.2033 8.1798C28.9415 8.27336 28.7038 8.42136 28.5044 8.62017L27.5612 9.56018C27.2123 9.19999 26.7299 8.99242 26.2676 9.0328C26.3594 8.64674 26.428 8.23424 26.4712 7.79911C26.5062 7.44474 26.5241 7.07936 26.5242 6.71298C26.5242 6.69542 26.524 6.67798 26.5237 6.66055L26.5234 6.6318C26.5198 6.08911 26.4778 5.55836 26.3988 5.05423C26.346 4.71792 26.2773 4.39767 26.1938 4.09823L26.8157 3.47841ZM24.7727 1.44022C25.1535 1.06072 25.7731 1.06066 26.1539 1.44016C26.501 1.78604 26.5346 2.33823 26.2322 2.72429C26.203 2.76148 26.1782 2.79004 26.1539 2.81423L25.8367 3.13035C25.4566 2.3416 24.9543 1.89029 24.3805 1.8311L24.7727 1.44022ZM23.4832 3.58842C23.7211 3.07848 24.0148 2.76166 24.25 2.76154H24.25C24.5142 2.7616 24.9158 3.17823 25.2182 4.10904C25.3252 4.43823 25.4107 4.80511 25.4725 5.19942C25.5443 5.65767 25.5825 6.14167 25.5858 6.63811L25.5867 6.71273C25.5865 7.04836 25.5702 7.3828 25.5382 7.70655C25.4857 8.2358 25.393 8.72467 25.2633 9.16286L24.0113 9.32874L24.769 8.57367C25.1298 8.21405 25.3287 7.73424 25.3287 7.22267C25.3287 6.71105 25.1299 6.23117 24.769 5.87148C24.2918 5.39586 23.6202 5.22361 23.0014 5.36073C23.096 4.67735 23.261 4.06498 23.4832 3.58842ZM19.6592 5.51779C19.689 5.48811 19.7248 5.45823 19.7716 5.42386C20.1575 5.14111 20.703 5.18148 21.0404 5.51779C21.3773 5.85354 21.4178 6.39617 21.1347 6.7798C21.1003 6.82642 21.0703 6.86198 21.0404 6.8918C20.857 7.07455 20.8565 7.37136 21.0392 7.55474C21.1308 7.64667 21.251 7.69261 21.3713 7.69261C21.491 7.69261 21.6106 7.64705 21.7021 7.55586C21.7181 7.53992 21.734 7.52342 21.7497 7.50636C21.7541 7.50161 21.7584 7.49642 21.7628 7.49161C21.7742 7.47892 21.7856 7.4663 21.797 7.45292C21.7971 7.45267 21.7974 7.45242 21.7976 7.45217C21.7996 7.45067 21.8015 7.44861 21.8035 7.44711C21.8215 7.43373 21.839 7.41942 21.8553 7.40317L22.7256 6.5358C22.7321 6.52948 22.7389 6.52392 22.7456 6.51811L22.7674 6.49892C23.1536 6.15567 23.7421 6.17167 24.1071 6.53548C24.2902 6.71798 24.391 6.96198 24.391 7.22255C24.391 7.48311 24.2902 7.72705 24.1071 7.90949L22.9472 9.06549C22.8561 9.05443 22.7643 9.0478 22.6722 9.0453C22.6621 9.04443 22.6521 9.04349 22.6419 9.0433C22.6303 9.04317 22.6193 9.04324 22.6066 9.04355C22.6059 9.04355 22.6052 9.04368 22.6045 9.04368C22.5682 9.04368 22.5323 9.04411 22.4964 9.04536H22.4961C22.496 9.04536 22.4958 9.04536 22.4958 9.04536H22.4954L22.4889 9.04561C22.4889 9.04561 22.4885 9.04561 22.4883 9.04561C22.4852 9.04574 22.4821 9.04586 22.479 9.04593C22.4647 9.04649 22.4503 9.04705 22.436 9.04786L22.4356 9.04792C22.4183 9.04892 22.4011 9.05017 22.3839 9.05155C22.3631 9.05324 22.3424 9.05517 22.3216 9.05724H22.3212L22.309 9.05842C22.3086 9.05842 22.3082 9.05849 22.3082 9.05849L22.3075 9.05855C22.2928 9.05992 22.2781 9.06142 22.2634 9.06324C22.2633 9.06324 22.2633 9.06324 22.2633 9.06324H22.263C22.2628 9.06324 22.2626 9.0633 22.2626 9.0633C22.262 9.06336 22.2615 9.06349 22.2611 9.06355C22.2207 9.06849 22.1808 9.0748 22.1409 9.08161C22.1408 9.08161 22.1407 9.08168 22.1407 9.08168H22.1406L22.1325 9.08292C22.1189 9.08505 22.1053 9.08718 22.092 9.08974C21.8378 9.13842 21.6704 9.38405 21.719 9.6383C21.762 9.86286 21.9578 10.0193 22.1783 10.0193C22.2073 10.0193 22.2369 10.0166 22.2665 10.0109L22.299 10.0057C22.299 10.0057 22.2991 10.0057 22.2992 10.0057C22.3251 10.0012 22.3511 9.99699 22.3774 9.99374L22.3777 9.99368L22.4148 9.98999C22.439 9.98755 22.4631 9.98536 22.4872 9.98393C22.4882 9.98386 22.4893 9.98374 22.4903 9.98368C22.5011 9.98305 22.512 9.98268 22.5228 9.9823L22.5288 9.98211H22.5291C22.5509 9.9813 22.5728 9.98099 22.5947 9.98099C22.5983 9.98099 22.6021 9.98074 22.6057 9.9808L22.6261 9.98111C22.7556 9.98318 22.8846 9.99793 23.0094 10.0248C23.2075 10.0676 23.4029 10.1402 23.5902 10.2407C23.7971 10.3517 23.9878 10.4936 24.1572 10.6622C24.7801 11.2831 25.006 12.1619 24.7192 12.8491C24.6958 12.9052 24.6845 12.9631 24.6834 13.0204C24.5982 12.9788 24.5129 12.9359 24.4282 12.8912C24.006 12.6691 23.5145 12.7072 23.138 12.9472C22.8241 12.1922 22.3611 11.4989 21.7643 10.9041C20.3111 9.45574 19.2914 7.68023 19.0069 6.16786L19.6592 5.51779ZM18.9975 4.85367L18.9582 4.89279C19.0216 4.45804 19.1801 4.10454 19.4312 3.83735C19.4818 3.84798 19.5349 3.85079 19.5891 3.84354L22.1951 3.49829C22.2483 3.49129 22.307 3.49579 22.3694 3.51173C22.4071 3.52141 22.4452 3.53554 22.4829 3.55292C22.287 4.07254 22.142 4.68548 22.0577 5.34773C21.9684 5.16823 21.8498 5.00085 21.7021 4.85367C21.0408 4.19442 19.9726 4.11435 19.2174 4.66767C19.1326 4.72992 19.0606 4.79073 18.9975 4.85367ZM8.06901 29.9336C6.68563 29.9336 5.30226 29.409 4.24944 28.3598C2.17563 26.293 0.937501 23.793 0.937501 21.6724C0.937501 20.5618 1.28863 19.6249 1.95288 18.9629L18.3171 2.65385C19.3454 1.62916 21.0411 1.37754 22.9441 1.93891L22.3208 2.56016C22.237 2.55554 22.1538 2.55804 22.072 2.56885L20.2493 2.81029C20.2328 2.75079 20.2043 2.69354 20.1631 2.64235C20.001 2.4406 19.706 2.40835 19.5041 2.57054L18.8425 3.10223C18.8294 3.11266 18.817 3.12385 18.8051 3.1356C18.2711 3.66779 17.9888 4.43485 17.9888 5.35379C17.9888 7.27286 19.182 9.65405 21.1025 11.5681C22.1202 12.5824 22.6807 13.9336 22.6807 15.3726C22.6807 16.8134 22.1191 18.1665 21.0993 19.1828L11.8945 28.3566C10.8394 29.408 9.4542 29.9337 8.06901 29.9336ZM30.0472 14.3396C29.2073 15.1766 27.9168 15.5091 26.4137 15.2761C26.1577 15.2367 25.9183 15.4117 25.8786 15.6675C25.8389 15.9233 26.0142 16.1629 26.27 16.2026C26.5028 16.2388 26.7313 16.2618 26.956 16.2746L13.108 30.0756C12.3604 30.8208 11.1102 31.0323 9.63901 30.6748C10.7086 30.4043 11.721 29.8532 12.5563 29.0207L21.7612 19.8469C22.9588 18.6534 23.6183 17.0644 23.6183 15.3727C23.6183 14.89 23.5644 14.4158 23.4598 13.9567C23.4845 13.9292 23.5065 13.8986 23.5247 13.8646C23.6138 13.6969 23.8234 13.6327 23.9915 13.7213C24.1637 13.8119 24.3382 13.8976 24.5105 13.976C25.5115 14.4311 26.477 14.6576 27.3242 14.6576C27.4398 14.6576 27.5532 14.6534 27.6642 14.6449C27.6697 14.6451 27.6753 14.6457 27.6808 14.6457C27.7162 14.6457 27.7515 14.6412 27.7861 14.6333C28.5055 14.5571 29.1171 14.2986 29.5593 13.8579C29.7427 13.6751 29.7432 13.3783 29.5605 13.1949C29.5201 13.1544 29.4739 13.1233 29.4248 13.1006L31.0595 11.4714C31.06 11.4884 31.0612 11.5057 31.0615 11.5227C31.0845 12.6813 30.7338 13.6554 30.0472 14.3396Z" fill="#111111"/>
</svg>
