<svg width="32" height="32" viewBox="0 0 32 32" fill="none" xmlns="http://www.w3.org/2000/svg">
<path d="M6.5 30.5C6.5 30.6326 6.55268 30.7598 6.64645 30.8536C6.74021 30.9473 6.86739 31 7 31H16C16.1326 31 16.2598 30.9473 16.3536 30.8536C16.4473 30.7598 16.5 30.6326 16.5 30.5V17C16.5001 16.1588 16.2886 15.331 15.885 14.5929C15.4814 13.8548 14.8987 13.2301 14.1904 12.7762L13.5384 3.99806C13.6639 3.98849 13.7812 3.93186 13.8668 3.83951C13.9524 3.74717 14 3.62591 14 3.5V1.5C14 1.36739 13.9473 1.24021 13.8536 1.14645C13.7598 1.05268 13.6326 1 13.5 1H9.5C9.36739 1 9.24021 1.05268 9.14645 1.14645C9.05268 1.24021 9 1.36739 9 1.5V3.5C9.00003 3.62591 9.0476 3.74717 9.13319 3.83951C9.21878 3.93186 9.33608 3.98849 9.46163 3.99806L8.80956 12.7762C8.1013 13.2301 7.51857 13.8548 7.11498 14.5929C6.7114 15.331 6.49992 16.1588 6.5 17V30.5ZM7.5 30V26.5H15.5V30H7.5ZM7.5 25.5V18.5H15.5V25.5H7.5ZM12.8701 8.5H10.1299L10.4642 4H12.5358L12.8701 8.5ZM10 2H13V3H10V2ZM9.53456 13.5068C9.6063 13.4664 9.66694 13.4088 9.71108 13.3393C9.75523 13.2698 9.78152 13.1904 9.78763 13.1083L10.0557 9.5H12.9443L13.2124 13.1083C13.2185 13.1904 13.2448 13.2698 13.2889 13.3393C13.3331 13.4088 13.3937 13.4664 13.4654 13.5068C14.0834 13.8569 14.5973 14.3648 14.9548 14.9785C15.3122 15.5922 15.5004 16.2898 15.5 17V17.5H7.5V17C7.49963 16.2898 7.68778 15.5922 8.04523 14.9785C8.40268 14.3648 8.91663 13.8569 9.53456 13.5068Z" fill="#111111"/>
<path d="M19 23C18.9283 23 18.8575 23.0154 18.7924 23.0451C18.7272 23.0749 18.6692 23.1183 18.6223 23.1724C18.5753 23.2265 18.5406 23.2901 18.5204 23.3588C18.5001 23.4275 18.4949 23.4998 18.505 23.5707L19.505 30.5707C19.522 30.6898 19.5815 30.7988 19.6724 30.8777C19.7633 30.9566 19.8796 31 20 31H24C24.1203 31 24.2366 30.9566 24.3275 30.8777C24.4185 30.7988 24.4779 30.6898 24.4949 30.5707L25.4949 23.5707C25.505 23.4998 25.4998 23.4275 25.4796 23.3588C25.4593 23.2901 25.4246 23.2265 25.3776 23.1724C25.3307 23.1183 25.2727 23.0749 25.2075 23.0451C25.1424 23.0154 25.0716 23 25 23H19ZM24.4235 24L23.852 28H20.1479L19.5765 24H24.4235ZM20.4336 30L20.2908 29H23.7091L23.5663 30H20.4336Z" fill="#111111"/>
</svg>
