<svg width="32" height="32" viewBox="0 0 32 32" fill="none" xmlns="http://www.w3.org/2000/svg">
<path d="M7.69429 28.6688C7.77585 29.976 8.78804 31 9.99854 31H22.0014C23.212 31 24.2242 29.976 24.3057 28.6688L25.999 1.53125C26.0032 1.46309 25.9935 1.39478 25.9704 1.33053C25.9472 1.26628 25.9112 1.20746 25.8644 1.15768C25.8176 1.10791 25.7612 1.06823 25.6985 1.04111C25.6358 1.014 25.5683 1 25.5 1H6.49998C6.43169 1 6.36412 1.014 6.30144 1.04111C6.23877 1.06823 6.18231 1.10791 6.13556 1.15768C6.0888 1.20746 6.05274 1.26628 6.02959 1.33053C6.00645 1.39478 5.99671 1.46309 6.00098 1.53125L7.69429 28.6688ZM22.0014 30H9.99854C9.43498 30 8.94635 29.5839 8.76467 29H23.2353C23.0536 29.5839 22.565 30 22.0014 30ZM15.5 28V26H17.5V28H15.5ZM24.9678 2L24.7803 5H22.5C22.3674 5 22.2402 5.05268 22.1464 5.14645C22.0527 5.24021 22 5.36739 22 5.5C22 5.63261 22.0527 5.75979 22.1464 5.85355C22.2402 5.94732 22.3674 6 22.5 6H24.7182L23.3455 28H18.5V25.5C18.5 25.3674 18.4473 25.2402 18.3535 25.1464C18.2598 25.0527 18.1326 25 18 25H15C14.8674 25 14.7402 25.0527 14.6464 25.1464C14.5527 25.2402 14.5 25.3674 14.5 25.5V28H8.65448L7.28173 6H20.5C20.6326 6 20.7598 5.94732 20.8535 5.85355C20.9473 5.75979 21 5.63261 21 5.5C21 5.36739 20.9473 5.24021 20.8535 5.14645C20.7598 5.05268 20.6326 5 20.5 5H7.21935L7.03185 2H24.9678Z" fill="#B4323C"/>
<path d="M12.3536 21.6465C12.3072 21.6 12.252 21.5632 12.1914 21.5381C12.1307 21.5129 12.0657 21.5 12 21.5C11.9344 21.5 11.8693 21.5129 11.8087 21.5381C11.748 21.5632 11.6929 21.6 11.6465 21.6465L9.64646 23.6465C9.60002 23.6929 9.56319 23.748 9.53806 23.8087C9.51293 23.8693 9.5 23.9344 9.5 24C9.5 24.0657 9.51293 24.1307 9.53806 24.1914C9.56319 24.252 9.60002 24.3072 9.64646 24.3536L11.6465 26.3536C11.6929 26.4 11.748 26.4368 11.8087 26.462C11.8693 26.4871 11.9344 26.5 12 26.5C12.0657 26.5 12.1307 26.4871 12.1914 26.462C12.252 26.4368 12.3072 26.4 12.3536 26.3536L14.3536 24.3536C14.4 24.3072 14.4368 24.252 14.462 24.1914C14.4871 24.1307 14.5 24.0657 14.5 24C14.5 23.9344 14.4871 23.8693 14.462 23.8087C14.4368 23.748 14.4 23.6929 14.3536 23.6465L12.3536 21.6465ZM12 25.2929L10.7071 24L12 22.7071L13.2929 24L12 25.2929Z" fill="#B4323C"/>
<path d="M20.3536 20.1465C20.3072 20.1 20.252 20.0632 20.1914 20.0381C20.1307 20.0129 20.0657 20 20 20C19.9344 20 19.8693 20.0129 19.8087 20.0381C19.748 20.0632 19.6929 20.1 19.6465 20.1465L17.6465 22.1465C17.6 22.1929 17.5632 22.248 17.5381 22.3087C17.5129 22.3693 17.5 22.4344 17.5 22.5C17.5 22.5657 17.5129 22.6307 17.5381 22.6914C17.5632 22.752 17.6 22.8072 17.6465 22.8536L19.6465 24.8536C19.6929 24.9 19.748 24.9368 19.8087 24.962C19.8693 24.9871 19.9344 25 20 25C20.0657 25 20.1307 24.9871 20.1914 24.962C20.252 24.9368 20.3072 24.9 20.3536 24.8536L22.3536 22.8536C22.4 22.8072 22.4368 22.752 22.462 22.6914C22.4871 22.6307 22.5 22.5657 22.5 22.5C22.5 22.4344 22.4871 22.3693 22.462 22.3087C22.4368 22.248 22.4 22.1929 22.3536 22.1465L20.3536 20.1465ZM20 23.7929L18.7071 22.5L20 21.2071L21.293 22.5L20 23.7929Z" fill="#B4323C"/>
<path d="M17 11C17.2967 11 17.5867 10.912 17.8334 10.7472C18.08 10.5824 18.2723 10.3481 18.3858 10.074C18.4994 9.79993 18.5291 9.49833 18.4712 9.20736C18.4133 8.91639 18.2704 8.64912 18.0607 8.43934C17.8509 8.22956 17.5836 8.0867 17.2926 8.02882C17.0017 7.97094 16.7001 8.00065 16.426 8.11418C16.1519 8.22771 15.9176 8.41997 15.7528 8.66665C15.588 8.91332 15.5 9.20333 15.5 9.5C15.5004 9.89769 15.6586 10.279 15.9398 10.5602C16.221 10.8414 16.6023 10.9996 17 11ZM17 9C17.0989 9 17.1956 9.02932 17.2778 9.08426C17.36 9.1392 17.4241 9.21729 17.4619 9.30866C17.4998 9.40002 17.5097 9.50055 17.4904 9.59754C17.4711 9.69453 17.4235 9.78363 17.3536 9.85355C17.2836 9.92348 17.1945 9.9711 17.0975 9.99039C17.0006 10.0097 16.9 9.99978 16.8087 9.96194C16.7173 9.92409 16.6392 9.86001 16.5843 9.77778C16.5293 9.69556 16.5 9.59889 16.5 9.5C16.5002 9.36744 16.5529 9.24035 16.6466 9.14661C16.7403 9.05287 16.8674 9.00015 17 9Z" fill="#B4323C"/>
<path d="M11 12.5C11.2967 12.5 11.5867 12.412 11.8334 12.2472C12.08 12.0824 12.2723 11.8481 12.3858 11.574C12.4993 11.2999 12.5291 10.9983 12.4712 10.7074C12.4133 10.4164 12.2704 10.1491 12.0607 9.93934C11.8509 9.72956 11.5836 9.5867 11.2926 9.52882C11.0017 9.47094 10.7001 9.50065 10.426 9.61418C10.1519 9.72771 9.91762 9.91997 9.75279 10.1666C9.58797 10.4133 9.5 10.7033 9.5 11C9.50045 11.3977 9.65862 11.779 9.93983 12.0602C10.221 12.3414 10.6023 12.4996 11 12.5ZM11 10.5C11.0989 10.5 11.1956 10.5293 11.2778 10.5843C11.36 10.6392 11.4241 10.7173 11.4619 10.8087C11.4998 10.9 11.5097 11.0006 11.4904 11.0975C11.4711 11.1945 11.4235 11.2836 11.3536 11.3536C11.2836 11.4235 11.1945 11.4711 11.0975 11.4904C11.0006 11.5097 10.9 11.4998 10.8087 11.4619C10.7173 11.4241 10.6392 11.36 10.5843 11.2778C10.5293 11.1956 10.5 11.0989 10.5 11C10.5001 10.8674 10.5529 10.7403 10.6466 10.6466C10.7403 10.5529 10.8674 10.5001 11 10.5Z" fill="#B4323C"/>
<path d="M20 12.5C20 12.7967 20.088 13.0867 20.2528 13.3334C20.4176 13.58 20.6519 13.7723 20.926 13.8858C21.2001 13.9993 21.5017 14.0291 21.7926 13.9712C22.0836 13.9133 22.3509 13.7704 22.5607 13.5607C22.7704 13.3509 22.9133 13.0836 22.9712 12.7926C23.0291 12.5017 22.9994 12.2001 22.8858 11.926C22.7723 11.6519 22.58 11.4176 22.3334 11.2528C22.0867 11.088 21.7967 11 21.5 11C21.1023 11.0004 20.721 11.1586 20.4398 11.4398C20.1586 11.721 20.0004 12.1023 20 12.5ZM22 12.5C22 12.5989 21.9707 12.6956 21.9157 12.7778C21.8608 12.86 21.7827 12.9241 21.6913 12.9619C21.6 12.9998 21.4994 13.0097 21.4025 12.9904C21.3055 12.9711 21.2164 12.9235 21.1464 12.8536C21.0765 12.7836 21.0289 12.6945 21.0096 12.5975C20.9903 12.5006 21.0002 12.4 21.0381 12.3087C21.0759 12.2173 21.14 12.1392 21.2222 12.0843C21.3044 12.0293 21.4011 12 21.5 12C21.6326 12.0001 21.7597 12.0529 21.8534 12.1466C21.9471 12.2403 21.9999 12.3674 22 12.5Z" fill="#B4323C"/>
<path d="M15 12.5C14.7033 12.5 14.4133 12.588 14.1666 12.7528C13.92 12.9176 13.7277 13.1519 13.6142 13.426C13.5006 13.7001 13.4709 14.0017 13.5288 14.2926C13.5867 14.5836 13.7296 14.8509 13.9393 15.0607C14.1491 15.2704 14.4164 15.4133 14.7074 15.4712C14.9983 15.5291 15.2999 15.4993 15.574 15.3858C15.8481 15.2723 16.0824 15.08 16.2472 14.8334C16.412 14.5867 16.5 14.2967 16.5 14C16.4996 13.6023 16.3414 13.221 16.0602 12.9398C15.779 12.6586 15.3977 12.5004 15 12.5ZM15 14.5C14.9011 14.5 14.8044 14.4707 14.7222 14.4157C14.64 14.3608 14.5759 14.2827 14.5381 14.1913C14.5002 14.1 14.4903 13.9994 14.5096 13.9025C14.5289 13.8055 14.5765 13.7164 14.6465 13.6464C14.7164 13.5765 14.8055 13.5289 14.9025 13.5096C14.9995 13.4903 15.1 13.5002 15.1913 13.5381C15.2827 13.5759 15.3608 13.64 15.4157 13.7222C15.4707 13.8044 15.5 13.9011 15.5 14C15.4999 14.1326 15.4471 14.2597 15.3534 14.3534C15.2597 14.4471 15.1326 14.4998 15 14.5Z" fill="#B4323C"/>
<path d="M12.9974 8C13.2749 8 13.4999 7.77502 13.4999 7.4975C13.4999 7.21997 13.2749 6.995 12.9974 6.995C12.7199 6.995 12.4949 7.21997 12.4949 7.4975C12.4949 7.77502 12.7199 8 12.9974 8Z" fill="#B4323C"/>
<path d="M11.9974 19C12.2749 19 12.4999 18.775 12.4999 18.4975C12.4999 18.22 12.2749 17.995 11.9974 17.995C11.7199 17.995 11.4949 18.22 11.4949 18.4975C11.4949 18.775 11.7199 19 11.9974 19Z" fill="#B4323C"/>
<path d="M16.9974 17.5C17.2749 17.5 17.4999 17.275 17.4999 16.9975C17.4999 16.72 17.2749 16.495 16.9974 16.495C16.7198 16.495 16.4949 16.72 16.4949 16.9975C16.4949 17.275 16.7198 17.5 16.9974 17.5Z" fill="#B4323C"/>
<path d="M9.49737 14.5C9.7749 14.5 9.99987 14.275 9.99987 13.9975C9.99987 13.72 9.7749 13.495 9.49737 13.495C9.21985 13.495 8.99487 13.72 8.99487 13.9975C8.99487 14.275 9.21985 14.5 9.49737 14.5Z" fill="#B4323C"/>
<path d="M21.4974 16C21.7749 16 21.9999 15.775 21.9999 15.4975C21.9999 15.22 21.7749 14.995 21.4974 14.995C21.2198 14.995 20.9949 15.22 20.9949 15.4975C20.9949 15.775 21.2198 16 21.4974 16Z" fill="#B4323C"/>
<path d="M21.9974 8C22.2749 8 22.4999 7.77502 22.4999 7.4975C22.4999 7.21997 22.2749 6.995 21.9974 6.995C21.7198 6.995 21.4949 7.21997 21.4949 7.4975C21.4949 7.77502 21.7198 8 21.9974 8Z" fill="#B4323C"/>
</svg>
