<svg width="32" height="32" viewBox="0 0 32 32" fill="none" xmlns="http://www.w3.org/2000/svg">
<g clip-path="url(#clip0)">
<path d="M31.4667 25.6H0.533312C0.238937 25.6 0 25.8384 0 26.1333C0 29.368 2.632 32 5.86669 32H26.1334C29.368 32 32 29.368 32 26.1333C32 25.8384 31.7616 25.6 31.4667 25.6ZM26.1333 30.9333H5.86669C3.4 30.9333 1.36212 29.0634 1.096 26.6666H30.9034C30.6373 29.0635 28.6 30.9333 26.1333 30.9333Z" fill="#111111"/>
<path d="M16.0004 17.6C15.9977 17.6 15.9956 17.6 15.9935 17.6C13.8916 17.6 11.8729 18.3739 10.3103 19.7797L11.0234 20.5723C12.3903 19.3435 14.1551 18.6667 15.994 18.6667C15.9957 18.6667 15.9983 18.6667 15.9999 18.6667C18.9557 18.6667 21.4826 20.2101 22.4378 22.5979L23.4287 22.2021C22.3102 19.4064 19.394 17.6 16.0004 17.6Z" fill="#111111"/>
<path d="M20.0768 21.2022C17.3557 18.9552 13.3141 19.3408 11.0667 22.0608L11.889 22.7398C13.7616 20.4731 17.1301 20.151 19.3968 22.024C19.7648 22.3286 20.0901 22.6806 20.3637 23.0693L21.2373 22.4565C20.9088 21.9899 20.5183 21.568 20.0768 21.2022Z" fill="#111111"/>
<path d="M18.9863 23.0858C17.3052 21.4384 14.5991 21.4671 12.9521 23.1466L13.7143 23.8933C14.9495 22.6336 16.9799 22.6128 18.2396 23.8469C18.8503 24.4448 19.2001 25.2779 19.2001 26.1333H20.2668C20.2668 24.993 19.8001 23.8821 18.9863 23.0858Z" fill="#111111"/>
<path d="M21.8902 19.7333C21.8822 19.7333 21.8748 19.7333 21.8668 19.7333H21.3335V20.8H21.8689C24.8967 20.8117 27.4822 23.152 27.7356 26.1776L28.798 26.089C28.4999 22.5205 25.4668 19.7333 21.8902 19.7333Z" fill="#111111"/>
<path d="M25.0469 23.0908C24.0911 22.2364 22.8591 21.8038 21.5797 21.8764C20.2997 21.9473 19.1242 22.5132 18.2693 23.4684L19.064 24.1798C19.729 23.4369 20.6432 22.9964 21.6389 22.9409C22.64 22.8891 23.592 23.2209 24.336 23.8854C25.0064 24.4854 25.4379 25.3073 25.5509 26.2006L26.6096 26.0663C26.4639 24.9184 25.9087 23.8614 25.0469 23.0908Z" fill="#111111"/>
<path d="M22.5041 24.079C21.0795 23.7131 19.6247 24.5771 19.2593 26.0011L20.2929 26.2657C20.5116 25.4113 21.3852 24.8934 22.2396 25.1126C22.8055 25.2572 23.2482 25.6993 23.3927 26.2657L24.4263 26.0011C24.1841 25.0571 23.4481 24.3206 22.5041 24.079Z" fill="#111111"/>
<path d="M10.6779 19.7451C8.83202 19.5948 7.0379 20.1708 5.62615 21.3691C4.2139 22.5675 3.35309 24.2443 3.20215 26.0897L4.26509 26.1772C4.39252 24.615 5.12109 23.1963 6.31577 22.183C7.51096 21.1691 9.02884 20.6801 10.591 20.8091C11.4576 20.8795 12.3131 21.1489 13.0651 21.5868L13.6021 20.6646C12.7131 20.1468 11.7019 19.8289 10.6779 19.7451Z" fill="#111111"/>
<path d="M10.7206 21.8912C8.09713 21.567 5.69282 23.4411 5.36963 26.0683L6.42832 26.1984C6.6795 24.1552 8.54619 22.703 10.5899 22.9493C12.2929 23.1595 13.6289 24.4955 13.8385 26.1984L14.8983 26.0683C14.6283 23.8784 12.9104 22.1606 10.7206 21.8912Z" fill="#111111"/>
<path d="M10.8074 24.0923C10.1189 23.912 9.39998 24.0117 8.78554 24.3706C8.1706 24.7306 7.73273 25.3088 7.55298 25.9978L8.58498 26.2677C8.69323 25.8544 8.95617 25.5071 9.32473 25.2917C9.69329 25.0757 10.1247 25.0165 10.538 25.1248C11.097 25.2709 11.5354 25.7088 11.6815 26.2682L12.713 25.9978C12.4693 25.0656 11.7392 24.3355 10.8074 24.0923Z" fill="#111111"/>
<path d="M16 24C14.8234 24 13.8667 24.9568 13.8667 26.1333H14.9334C14.9334 25.5451 15.4118 25.0666 16.0001 25.0666C16.5883 25.0666 17.0668 25.545 17.0668 26.1333H18.1334C18.1333 24.9568 17.1766 24 16 24Z" fill="#111111"/>
<path d="M9.59995 2.1333H5.33325V3.19999H9.59995V2.1333Z" fill="#111111"/>
<path d="M9.5999 4.26672H6.3999V5.33341H9.5999V4.26672Z" fill="#111111"/>
<path d="M4.15893 11.4688C3.59361 10.4806 3.59361 9.25338 4.15893 8.26506C4.91093 6.95037 4.91093 5.31681 4.15893 4.00212C3.59361 3.01387 3.59361 1.78669 4.15893 0.798375C4.2533 0.633062 4.2528 0.430375 4.1573 0.265563C4.06186 0.101313 3.88586 0 3.69599 0H2.1333V1.06669H2.87999C2.50986 2.20644 2.62718 3.47256 3.23305 4.53125C3.79836 5.5195 3.79836 6.74669 3.23305 7.735C2.48105 9.04969 2.48105 10.6832 3.23305 11.9979C3.79836 12.9862 3.79836 14.2134 3.23305 15.2017C2.48105 16.5169 2.48105 18.1499 3.21118 19.4219C3.37436 19.7782 3.51249 20.1478 3.62186 20.519L4.6448 20.2177C4.52105 19.7974 4.3648 19.3809 4.15893 18.9356C3.59361 17.9478 3.59361 16.7196 4.15893 15.7318C4.91093 14.4171 4.91093 12.7834 4.15893 11.4688Z" fill="#111111"/>
<path d="M31.9991 3.888C31.9553 2.32744 30.6508 1.10506 29.0887 1.136L13.5479 1.59306L12.7345 0.77975C12.2311 0.276812 11.5618 0 10.8508 0C10.8498 0 10.8487 0 10.8481 0H5.90413C5.7127 0 5.53613 0.102375 5.4412 0.26825C4.6892 1.58294 4.6892 3.2165 5.4412 4.53119C6.00651 5.51944 6.00651 6.74669 5.4412 7.73494C4.6892 9.04963 4.6892 10.6832 5.4412 11.9979C6.00651 12.9861 6.00651 14.2133 5.4412 15.2016C4.6892 16.5168 4.6892 18.1499 5.4412 19.4646C5.51426 19.5926 5.57826 19.7254 5.6332 19.8624L6.62307 19.4656C6.55051 19.2838 6.46413 19.1051 6.36707 18.9355C5.80176 17.9478 5.80176 16.7195 6.36707 15.7317C7.11907 14.4171 7.11907 12.7835 6.36707 11.4688C5.80176 10.4806 5.80176 9.25338 6.36707 8.26506C6.5132 8.00906 6.63107 7.74188 6.72013 7.46669H10.8476C10.8486 7.46669 10.8492 7.46669 10.8503 7.46669C11.5617 7.46669 12.2311 7.18937 12.7345 6.68644L13.5414 5.8795L29.0028 6.78831C29.0582 6.7915 29.1356 6.79044 29.1681 6.79313C30.7286 6.79313 31.999 5.52381 32.0001 3.96275L31.9991 3.888ZM29.1676 5.72638C29.1266 5.71731 29.1004 5.72531 29.0663 5.72369L13.3649 4.80106C13.2129 4.78988 13.0641 4.8485 12.9564 4.95625L11.9804 5.93225C11.6785 6.23356 11.2774 6.4 10.8497 6.4C10.8491 6.4 10.8486 6.4 10.8481 6.4H6.92276C6.97345 5.57544 6.78839 4.73869 6.36701 4.00163C5.85232 3.10138 5.80645 2.00219 6.22995 1.06669H10.8486C10.8492 1.06669 10.8497 1.06669 10.8503 1.06669C11.2769 1.06669 11.6785 1.23306 11.9804 1.53494L12.9564 2.51094C13.0598 2.61437 13.2049 2.67519 13.3489 2.66669L29.1191 2.20213C30.1148 2.17494 30.9052 2.94506 30.9334 3.96213C30.9324 4.93544 30.1404 5.72638 29.1676 5.72638Z" fill="#111111"/>
<path d="M8.49968 11.4688C7.93436 10.4805 7.93436 9.25334 8.49911 8.26559C8.71243 7.8944 8.86818 7.4949 8.96255 7.07784L7.92205 6.84265C7.85111 7.15571 7.7343 7.45596 7.5738 7.73546C6.8218 9.05015 6.8218 10.6837 7.5738 11.9984C8.13911 12.9867 8.13911 14.2144 7.57324 15.2032C6.87724 16.4256 6.82287 17.9142 7.42762 19.184L8.3903 18.7259C7.93486 17.7702 7.97643 16.6507 8.49961 15.7318C9.25167 14.417 9.25168 12.7835 8.49968 11.4688Z" fill="#111111"/>
<path d="M3.19999 2.1333H2.1333V3.19999H3.19999V2.1333Z" fill="#111111"/>
<path d="M3.7333 4.26672H2.1333V5.33341H3.7333V4.26672Z" fill="#111111"/>
<path d="M4.26662 6.40002H2.1333V7.46671H4.26662V6.40002Z" fill="#111111"/>
</g>
<defs>
<clipPath id="clip0">
<rect width="32" height="32" fill="white"/>
</clipPath>
</defs>
</svg>
