<svg width="32" height="32" viewBox="0 0 32 32" fill="none" xmlns="http://www.w3.org/2000/svg">
<path d="M8.90854 23.8446L8.15435 23.0905L3.79743 27.4474C3.69718 27.5471 3.64062 27.6831 3.64062 27.825C3.64062 27.9663 3.69662 28.1018 3.79687 28.2021C4.42037 28.8261 4.42087 29.8411 3.79793 30.465C3.17444 31.089 2.15844 31.0907 1.53494 30.4667C0.911444 29.8427 0.910944 28.8277 1.53388 28.2037C1.83575 27.9012 2.23788 27.7349 2.66512 27.7343L2.66406 26.6676C1.95207 26.6682 1.28269 26.9455 0.779757 27.4495C-0.259176 28.4901 -0.258114 30.1819 0.781882 31.2208C1.30138 31.7403 1.9835 32 2.66619 32C3.34943 31.9995 4.03318 31.7398 4.55262 31.2192C5.46249 30.3077 5.57505 28.8971 4.89024 27.8629L8.90854 23.8446Z" fill="#111111"/>
<path d="M11.8878 19.3564L10.2876 20.9565L11.0418 21.7108L12.642 20.1106L11.8878 19.3564Z" fill="#111111"/>
<path d="M17.2208 14.0235L15.6206 15.6237L16.3749 16.3779L17.975 14.7777L17.2208 14.0235Z" fill="#111111"/>
<path d="M20.9522 10.2918L19.3521 11.892L20.1063 12.6462L21.7064 11.0461L20.9522 10.2918Z" fill="#111111"/>
<path d="M26.2857 4.95843L24.6855 6.55859L25.4398 7.31284L27.04 5.71268L26.2857 4.95843Z" fill="#111111"/>
<path d="M31.0862 0.15708L28.4199 2.82336L29.1742 3.57762L31.8405 0.911331L31.0862 0.15708Z" fill="#111111"/>
<path d="M31.8423 5.4899L26.5088 0.156421C26.3002 -0.0521404 25.9632 -0.0521404 25.7546 0.156421L23.6213 2.28979C23.4127 2.49835 23.4127 2.83541 23.6213 3.04397L28.9547 8.37745C29.0587 8.48145 29.1953 8.5337 29.3318 8.5337C29.4684 8.5337 29.6049 8.48145 29.7089 8.37745L31.8422 6.24408C32.0508 6.03552 32.0508 5.6984 31.8423 5.4899ZM29.3319 7.24621L24.7525 2.66685L26.1318 1.2876L30.7111 5.86696L29.3319 7.24621Z" fill="#111111"/>
<path d="M27.357 8.46812L23.5329 4.64401C22.9281 4.03919 21.8737 4.04026 21.2704 4.64401L19.0448 6.86912C18.4213 7.49262 18.4213 8.50812 19.0448 9.13161L22.8694 12.9557C23.1713 13.2576 23.5729 13.424 24.0007 13.424C24.4279 13.424 24.8301 13.2576 25.1319 12.9563L27.357 10.7312C27.981 10.1071 27.981 9.09218 27.357 8.46812ZM26.6029 9.97642L24.3778 12.201C24.1761 12.4027 23.8247 12.4021 23.6236 12.201L19.7989 8.37693C19.5909 8.16893 19.5909 7.83081 19.7989 7.62274L22.0251 5.39763C22.2251 5.19707 22.576 5.1955 22.7787 5.39763L26.6028 9.22174C26.8109 9.4303 26.8109 9.76842 26.6029 9.97642Z" fill="#111111"/>
<path d="M22.7757 14.5568L17.4422 9.22332C17.2336 9.01475 16.8965 9.01475 16.688 9.22332L14.5546 11.3567C14.3461 11.5653 14.3461 11.9024 14.5546 12.1109L19.8881 17.4444C19.9921 17.5484 20.1287 17.6007 20.2652 17.6007C20.4017 17.6007 20.5382 17.5484 20.6422 17.4444L22.7756 15.311C22.9842 15.1024 22.9842 14.7654 22.7757 14.5568ZM20.2652 16.3131L15.6858 11.7337L17.065 10.3545L21.6444 14.9339L20.2652 16.3131Z" fill="#111111"/>
<path d="M18.29 17.5356L14.4659 13.7115C13.8414 13.0869 12.8265 13.0875 12.203 13.7115L9.97784 15.9366C9.67541 16.2385 9.50903 16.6401 9.50903 17.0679C9.50903 17.495 9.67541 17.8972 9.97784 18.1991L13.8019 22.0232C14.1139 22.3352 14.5236 22.491 14.9337 22.491C15.3433 22.491 15.7529 22.3352 16.0649 22.0232L18.29 19.7981C18.5919 19.4962 18.7589 19.0941 18.7589 18.6669C18.7589 18.2391 18.5919 17.837 18.29 17.5356ZM17.5364 19.0434L15.3113 21.2685C15.1028 21.4771 14.7636 21.4765 14.5566 21.2685L10.7325 17.4444C10.6317 17.3436 10.5763 17.2097 10.5763 17.0674C10.5763 16.9244 10.6317 16.7911 10.732 16.6908C10.732 16.6902 10.732 16.6902 10.732 16.6902L12.9571 14.4651C13.0617 14.3616 13.1982 14.3094 13.3348 14.3094C13.4713 14.3094 13.6078 14.3616 13.7124 14.4651L17.5365 18.2898C17.6373 18.39 17.6927 18.5234 17.6927 18.6664C17.6927 18.8087 17.6367 18.9426 17.5364 19.0434Z" fill="#111111"/>
<path d="M13.7086 23.6238L8.37509 18.2903C8.16653 18.0818 7.82947 18.0818 7.6209 18.2903L5.48748 20.4237C5.27891 20.6323 5.27891 20.9693 5.48748 21.1779L10.821 26.5114C10.925 26.6154 11.0615 26.6676 11.198 26.6676C11.3346 26.6676 11.4711 26.6154 11.5751 26.5114L13.7085 24.378C13.9171 24.1694 13.9171 23.8323 13.7086 23.6238ZM11.1981 25.3801L6.61872 20.8008L7.99797 19.4215L12.5773 24.0009L11.1981 25.3801Z" fill="#111111"/>
<path d="M22.3985 6.93372H21.3318V8.0004H22.3985V6.93372Z" fill="#111111"/>
<path d="M23.9983 8.53369H22.9316V9.60037H23.9983V8.53369Z" fill="#111111"/>
<path d="M13.865 16.0006H12.7983V17.0673H13.865V16.0006Z" fill="#111111"/>
</svg>
