<svg width="32" height="32" viewBox="0 0 32 32" fill="none" xmlns="http://www.w3.org/2000/svg">
<g clip-path="url(#clip0)">
<path d="M31.4667 28.2667H0.533312C0.238937 28.2667 0 28.5051 0 28.8C0 30.5648 1.43519 32 3.2 32H28.8C30.5648 32 32 30.5648 32 28.8C32 28.5051 31.7616 28.2667 31.4667 28.2667ZM28.8 30.9334H3.2C2.208 30.9334 1.37175 30.2528 1.13388 29.3333H30.8656C30.6288 30.2529 29.792 30.9334 28.8 30.9334Z" fill="#111111"/>
<path d="M29.0646 18.3584C28.9648 18.2171 28.8022 18.1333 28.6294 18.1333H3.37071C3.1979 18.1333 3.03471 18.2176 2.93496 18.3584C2.83521 18.4992 2.81015 18.68 2.86721 18.8432L5.6784 26.8442C6.20478 28.3333 7.61921 29.3333 9.1984 29.3333C9.19896 29.3333 9.20003 29.3333 9.20003 29.3333H22.8C22.8005 29.3333 22.8005 29.3333 22.8011 29.3333C24.3808 29.3333 25.7952 28.3333 26.3217 26.8432L29.1323 18.8432C29.1893 18.6806 29.1643 18.4997 29.0646 18.3584ZM25.3163 26.4891C24.9403 27.5526 23.9296 28.2667 22.8011 28.2667C22.8011 28.2667 22.8005 28.2667 22.8 28.2667H9.20003C9.19946 28.2667 9.19946 28.2667 9.19896 28.2667C8.0704 28.2667 7.06028 27.552 6.68428 26.4902L4.12321 19.2H27.8768L25.3163 26.4891Z" fill="#111111"/>
<path d="M25.649 1.64694C25.6431 1.64694 25.593 1.648 25.5839 1.648H25.5834C25.5829 1.648 25.5829 1.648 25.5829 1.648L12.8389 2.03837C12.0746 0.789312 10.5311 0 8.79991 0C6.30016 0 4.2666 1.67469 4.2666 3.73331C4.2666 5.79194 6.30023 7.46663 8.79991 7.46663C10.529 7.46663 12.0746 6.67731 12.8431 5.42825L25.5839 5.81812C26.7167 5.86025 27.697 4.94669 27.7322 3.79894C27.7327 3.79306 27.7332 3.73919 27.7332 3.73331C27.7338 2.584 26.7989 1.648 25.649 1.64694ZM25.6485 4.75306C25.6378 4.75306 25.6277 4.7525 25.6165 4.7525L12.5498 4.3525C12.3418 4.34556 12.145 4.46344 12.0532 4.65275C11.5471 5.69812 10.2399 6.4 8.79991 6.4C6.88848 6.4 5.33323 5.20375 5.33323 3.73331C5.33323 2.26288 6.88841 1.06662 8.79991 1.06662C10.241 1.06662 11.546 1.76794 12.0474 2.81225C12.1385 3.00262 12.3391 3.12262 12.5444 3.11462L25.6159 2.71462L25.5999 2.18131L25.6489 2.71412C26.211 2.71412 26.6676 3.17175 26.6665 3.76588C26.65 4.31681 26.1962 4.75306 25.6485 4.75306Z" fill="#111111"/>
<path d="M10.3503 3.83728L10.0207 4.08047C9.20091 4.69809 8.03559 4.61647 7.31078 3.88953L6.55615 4.64315C7.16147 5.24953 7.96947 5.55996 8.78016 5.55996C9.44041 5.55996 10.1023 5.35465 10.6585 4.9354L10.9838 4.6954L10.3503 3.83728Z" fill="#111111"/>
<path d="M11.2 5.86663V11.1999C11.2 11.4938 10.9606 11.7332 10.6667 11.7332C10.3729 11.7332 10.1334 11.4938 10.1334 11.1999V9.59994C10.1334 8.71781 9.41555 7.99994 8.53342 7.99994C7.6513 7.99994 6.93342 8.71781 6.93342 9.59994V10.1332C6.93342 10.4271 6.69399 10.6666 6.40011 10.6666C6.10624 10.6666 5.8668 10.4271 5.8668 10.1332V5.33325H4.80005V10.1332C4.80005 11.0154 5.51792 11.7332 6.40005 11.7332C7.28217 11.7332 8.00005 11.0154 8.00005 10.1332V9.59994C8.00005 9.30606 8.23949 9.06662 8.53336 9.06662C8.82724 9.06662 9.06667 9.30606 9.06667 9.59994V11.1999C9.06667 12.0821 9.78455 12.7999 10.6667 12.7999C11.5488 12.7999 12.2667 12.0821 12.2667 11.1999V5.86663H11.2Z" fill="#111111"/>
<path d="M30.4 16H1.6C0.717875 16 0 16.7179 0 17.6C0 18.4821 0.717875 19.2 1.6 19.2H30.4C31.2821 19.2 32 18.4821 32 17.6C32 16.7179 31.2821 16 30.4 16ZM30.4 18.1333H1.6C1.30613 18.1333 1.06669 17.8944 1.06669 17.6C1.06669 17.3056 1.30613 17.0667 1.6 17.0667H30.4C30.6944 17.0667 30.9333 17.3056 30.9333 17.6C30.9333 17.8944 30.6944 18.1333 30.4 18.1333Z" fill="#111111"/>
<path d="M16.4751 12.1036C16.8585 11.7174 17.0692 11.2049 17.0677 10.6609C17.066 10.1163 16.8527 9.60545 16.4693 9.22464C16.0917 8.84332 16.0917 8.22301 16.4693 7.84226C16.6767 7.6332 16.6757 7.29557 16.4661 7.08813C16.2565 6.8807 15.9189 6.88176 15.712 7.09132C14.9237 7.88651 14.9237 9.18039 15.7147 9.97826C15.8987 10.1617 16 10.4049 16.001 10.6641C16.0021 10.9233 15.9013 11.1676 15.712 11.358C14.9232 12.1532 14.9232 13.4471 15.712 14.2423C15.816 14.3473 15.9536 14.4001 16.0907 14.4001C16.2267 14.4001 16.3621 14.3484 16.4662 14.246C16.6758 14.0386 16.6769 13.7009 16.4693 13.4919C16.0917 13.1104 16.0917 12.4902 16.4751 12.1036Z" fill="#111111"/>
<path d="M21.8086 12.104C22.192 11.7179 22.4027 11.2053 22.4012 10.6613C22.3995 10.1168 22.1862 9.60589 21.8028 9.22507C21.4252 8.84376 21.4252 8.22345 21.8028 7.8427C22.0102 7.63307 22.0092 7.29551 21.7996 7.08801C21.59 6.88058 21.2529 6.88164 21.0455 7.0912C20.2572 7.88639 20.2572 9.18026 21.0482 9.97813C21.2322 10.1616 21.3335 10.4048 21.3345 10.664C21.3356 10.9232 21.2348 11.1674 21.0455 11.3579C20.2567 12.1531 20.2567 13.4469 21.0455 14.2421C21.1495 14.3472 21.2865 14.4 21.4242 14.4C21.5602 14.4 21.6957 14.3483 21.7997 14.2469C22.0093 14.0389 22.0103 13.7019 21.8028 13.4923C21.4251 13.1109 21.4251 12.4907 21.8086 12.104Z" fill="#111111"/>
<path d="M19.1419 12.1034C19.5254 11.7173 19.736 11.2048 19.7345 10.6608C19.7329 10.1162 19.5195 9.60531 19.1334 9.22181C18.9243 9.01437 18.5873 9.01544 18.3793 9.22394C18.1713 9.433 18.1723 9.77062 18.3814 9.97806C18.5654 10.1615 18.6667 10.4047 18.6678 10.6639C18.6688 10.9231 18.568 11.1674 18.3787 11.3578C17.5899 12.153 17.5899 13.4469 18.3787 14.2421C18.4827 14.3471 18.6198 14.3999 18.7574 14.3999C18.8934 14.3999 19.0289 14.3482 19.1329 14.2463C19.3425 14.0383 19.3436 13.7013 19.1361 13.4916C18.7584 13.1103 18.7584 12.4901 19.1419 12.1034Z" fill="#111111"/>
<path d="M23.999 12.7968C24.0001 12.5376 24.1014 12.2939 24.2881 12.1083C25.0769 11.3131 25.0769 10.0192 24.2881 9.224C24.0806 9.01494 23.7435 9.01388 23.5339 9.22082C23.3243 9.42882 23.3233 9.76588 23.5308 9.9755C23.9084 10.3563 23.9084 10.9771 23.5334 11.3553C23.1473 11.7387 22.934 12.2496 22.9324 12.7942C22.9308 13.3382 23.1414 13.8508 23.5324 14.2438C23.6353 14.3473 23.7697 14.3985 23.9046 14.3985C24.0412 14.3985 24.1783 14.3457 24.2828 14.2412C24.4913 14.0332 24.4886 13.6929 24.2811 13.4844C24.0988 13.3003 23.9979 13.056 23.999 12.7968Z" fill="#111111"/>
</g>
<defs>
<clipPath id="clip0">
<rect width="32" height="32" fill="white"/>
</clipPath>
</defs>
</svg>
