<svg width="32" height="32" viewBox="0 0 32 32" fill="none" xmlns="http://www.w3.org/2000/svg">
<path d="M4.89319 14.9972C4.92948 14.9991 4.96565 15.0001 5.00169 15.0001C5.35222 15.001 5.69671 14.9089 6 14.7331V29.5C6.00045 29.8977 6.15863 30.279 6.43983 30.5602C6.72104 30.8414 7.10231 30.9996 7.5 31H20.5C20.8977 30.9996 21.279 30.8414 21.5602 30.5602C21.8414 30.279 21.9996 29.8977 22 29.5V25.9829C23.8975 25.8539 25.6753 25.0097 26.9746 23.6209C28.2738 22.232 28.9977 20.4019 29 18.5V11.5C28.9993 10.8372 28.7356 10.2017 28.2669 9.73306C27.7983 9.26438 27.1628 9.00074 26.5 9H22V6.5C21.999 5.57206 21.6299 4.68243 20.9737 4.02628C20.3176 3.37013 19.4279 3.00104 18.5 3C18.3238 3.00024 18.1479 3.01422 17.9738 3.04181C17.0264 1.80806 14.8938 1 12.5 1C10.1062 1 7.97356 1.80806 7.02619 3.04181C6.85214 3.01422 6.67622 3.00024 6.5 3C5.57206 3.00104 4.68243 3.37013 4.02628 4.02628C3.37013 4.68243 3.00104 5.57206 3 6.5V12.9151C3 14.0271 3.83162 14.9416 4.89319 14.9972ZM22 12H25.5C25.6326 12.0001 25.7597 12.0529 25.8534 12.1466C25.9471 12.2403 25.9999 12.3674 26 12.5V18.5C25.9985 19.6064 25.59 20.6736 24.8523 21.4982C24.1147 22.3228 23.0994 22.8473 22 22.9716V12ZM22 23.9771C23.3658 23.8507 24.6353 23.2192 25.56 22.2062C26.4848 21.1932 26.9983 19.8716 27 18.5V12.5C26.9995 12.1023 26.8414 11.7211 26.5601 11.4399C26.2789 11.1586 25.8977 11.0005 25.5 11H22V10H26.5C26.8977 10.0005 27.2789 10.1586 27.5601 10.4399C27.8414 10.7211 27.9995 11.1023 28 11.5V18.5C27.9981 20.1369 27.3795 21.7129 26.2676 22.9141C25.1556 24.1152 23.6318 24.8533 22 24.9813V23.9771ZM21 29.5C20.9999 29.6326 20.9471 29.7597 20.8534 29.8534C20.7597 29.9471 20.6326 29.9999 20.5 30H7.5C7.36744 29.9999 7.24035 29.9471 7.14661 29.8534C7.05288 29.7597 7.00015 29.6326 7 29.5V29H21V29.5ZM21 28H7V10H9C9 10.5304 9.21071 11.0391 9.58579 11.4142C9.96086 11.7893 10.4696 12 11 12C11.5304 12 12.0391 11.7893 12.4142 11.4142C12.7893 11.0391 13 10.5304 13 10H21V28ZM7 9C7 8.73478 7.10536 8.48043 7.29289 8.29289C7.48043 8.10536 7.73478 8 8 8C8.26522 8 8.51957 8.10536 8.70711 8.29289C8.89464 8.48043 9 8.73478 9 9H7ZM21 7V9H13V8C13.0003 7.73488 13.1058 7.48071 13.2932 7.29324C13.4807 7.10577 13.7349 7.00031 14 7H21ZM4 6.60756C4.01488 6.53968 4.01551 6.46945 4.00187 6.40131C4.01504 6.02765 4.11221 5.66176 4.28618 5.3308C4.46014 4.99985 4.70642 4.71233 5.00673 4.4896C5.30704 4.26687 5.65367 4.11465 6.02087 4.04425C6.38807 3.97385 6.76642 3.98707 7.12781 4.08294C7.23372 4.11036 7.3457 4.10229 7.44658 4.05997C7.54746 4.01764 7.63167 3.9434 7.68631 3.84862C8.31394 2.76031 10.2934 2 12.5 2C14.7066 2 16.6861 2.76031 17.3137 3.84888C17.3683 3.94365 17.4525 4.01789 17.5534 4.06022C17.6543 4.10254 17.7663 4.11061 17.8722 4.08319C18.2005 3.99603 18.5432 3.97704 18.8792 4.0274C19.2152 4.07775 19.5373 4.19638 19.8256 4.37597C20.114 4.55556 20.3625 4.7923 20.5559 5.07161C20.7493 5.35092 20.8834 5.66688 20.95 6H14C13.4697 6.0006 12.9614 6.2115 12.5864 6.58644C12.2115 6.96139 12.0006 7.46975 12 8V10C12 10.2652 11.8946 10.5196 11.7071 10.7071C11.5196 10.8946 11.2652 11 11 11C10.7348 11 10.4804 10.8946 10.2929 10.7071C10.1054 10.5196 10 10.2652 10 10V9C10 8.47915 9.79683 7.97883 9.43367 7.60547C9.07051 7.2321 8.57602 7.01513 8.05536 7.00072C7.53471 6.9863 7.02897 7.17556 6.6457 7.52826C6.26243 7.88096 6.03188 8.36926 6.00306 8.88931C6.00103 8.90768 6.00001 8.92615 6 8.94462V13C6.00001 13.1359 5.97231 13.2704 5.91859 13.3953C5.86487 13.5201 5.78626 13.6327 5.68756 13.7262C5.58887 13.8196 5.47216 13.892 5.34456 13.9388C5.21696 13.9856 5.08116 14.006 4.94544 13.9986C4.42412 13.9713 4 13.4852 4 12.9151V6.60756Z" fill="#111111"/>
<path d="M15.5 20.5C15.2033 20.5 14.9133 20.588 14.6666 20.7528C14.42 20.9176 14.2277 21.1519 14.1142 21.426C14.0006 21.7001 13.9709 22.0017 14.0288 22.2926C14.0867 22.5836 14.2296 22.8509 14.4393 23.0607C14.6491 23.2704 14.9164 23.4133 15.2074 23.4712C15.4983 23.5291 15.7999 23.4994 16.074 23.3858C16.3481 23.2723 16.5824 23.08 16.7472 22.8334C16.912 22.5867 17 22.2967 17 22C16.9996 21.6023 16.8414 21.221 16.5602 20.9398C16.279 20.6586 15.8977 20.5004 15.5 20.5ZM15.5 22.5C15.4011 22.5 15.3044 22.4707 15.2222 22.4157C15.14 22.3608 15.0759 22.2827 15.0381 22.1913C15.0002 22.1 14.9903 21.9994 15.0096 21.9025C15.0289 21.8055 15.0765 21.7164 15.1465 21.6464C15.2164 21.5765 15.3055 21.5289 15.4025 21.5096C15.4995 21.4903 15.6 21.5002 15.6913 21.5381C15.7827 21.5759 15.8608 21.64 15.9157 21.7222C15.9707 21.8044 16 21.9011 16 22C15.9999 22.1326 15.9471 22.2597 15.8534 22.3534C15.7597 22.4471 15.6326 22.4999 15.5 22.5Z" fill="#111111"/>
<path d="M9.5 15.5C9.20333 15.5 8.91332 15.588 8.66665 15.7528C8.41997 15.9176 8.22771 16.1519 8.11418 16.426C8.00065 16.7001 7.97094 17.0017 8.02882 17.2926C8.0867 17.5836 8.22956 17.8509 8.43934 18.0607C8.64912 18.2704 8.91639 18.4133 9.20736 18.4712C9.49833 18.5291 9.79993 18.4994 10.074 18.3858C10.3481 18.2723 10.5824 18.08 10.7472 17.8334C10.912 17.5867 11 17.2967 11 17C10.9996 16.6023 10.8414 16.221 10.5602 15.9398C10.279 15.6586 9.89769 15.5004 9.5 15.5ZM9.5 17.5C9.40111 17.5 9.30444 17.4707 9.22221 17.4157C9.13999 17.3608 9.0759 17.2827 9.03806 17.1913C9.00022 17.1 8.99031 16.9994 9.00961 16.9025C9.0289 16.8055 9.07652 16.7164 9.14645 16.6464C9.21637 16.5765 9.30546 16.5289 9.40245 16.5096C9.49944 16.4903 9.59998 16.5002 9.69134 16.5381C9.7827 16.5759 9.86079 16.64 9.91573 16.7222C9.97067 16.8044 10 16.9011 10 17C9.99985 17.1326 9.94712 17.2597 9.85339 17.3534C9.75965 17.4471 9.63256 17.4999 9.5 17.5Z" fill="#111111"/>
<path d="M11 14C11.2761 14 11.5 13.7761 11.5 13.5C11.5 13.2239 11.2761 13 11 13C10.7239 13 10.5 13.2239 10.5 13.5C10.5 13.7761 10.7239 14 11 14Z" fill="#111111"/>
<path d="M14 18C14.2761 18 14.5 17.7761 14.5 17.5C14.5 17.2239 14.2761 17 14 17C13.7239 17 13.5 17.2239 13.5 17.5C13.5 17.7761 13.7239 18 14 18Z" fill="#111111"/>
<path d="M15.5 12C15.7761 12 16 11.7761 16 11.5C16 11.2239 15.7761 11 15.5 11C15.2239 11 15 11.2239 15 11.5C15 11.7761 15.2239 12 15.5 12Z" fill="#111111"/>
<path d="M8.5 22.5C8.77614 22.5 9 22.2761 9 22C9 21.7239 8.77614 21.5 8.5 21.5C8.22386 21.5 8 21.7239 8 22C8 22.2761 8.22386 22.5 8.5 22.5Z" fill="#111111"/>
<path d="M11.5 26C11.7761 26 12 25.7761 12 25.5C12 25.2239 11.7761 25 11.5 25C11.2239 25 11 25.2239 11 25.5C11 25.7761 11.2239 26 11.5 26Z" fill="#111111"/>
<path d="M19.5 18.5C19.7761 18.5 20 18.2761 20 18C20 17.7239 19.7761 17.5 19.5 17.5C19.2239 17.5 19 17.7239 19 18C19 18.2761 19.2239 18.5 19.5 18.5Z" fill="#111111"/>
<path d="M18.5 25.5C18.7761 25.5 19 25.2761 19 25C19 24.7239 18.7761 24.5 18.5 24.5C18.2239 24.5 18 24.7239 18 25C18 25.2761 18.2239 25.5 18.5 25.5Z" fill="#111111"/>
<path d="M17.5 16C17.7967 16 18.0867 15.912 18.3334 15.7472C18.58 15.5824 18.7723 15.3481 18.8858 15.074C18.9994 14.7999 19.0291 14.4983 18.9712 14.2074C18.9133 13.9164 18.7704 13.6491 18.5607 13.4393C18.3509 13.2296 18.0836 13.0867 17.7926 13.0288C17.5017 12.9709 17.2001 13.0006 16.926 13.1142C16.6519 13.2277 16.4176 13.42 16.2528 13.6666C16.088 13.9133 16 14.2033 16 14.5C16.0004 14.8977 16.1586 15.279 16.4398 15.5602C16.721 15.8414 17.1023 15.9996 17.5 16ZM17.5 14C17.5989 14 17.6956 14.0293 17.7778 14.0843C17.86 14.1392 17.9241 14.2173 17.9619 14.3087C17.9998 14.4 18.0097 14.5006 17.9904 14.5976C17.9711 14.6945 17.9235 14.7836 17.8536 14.8536C17.7836 14.9235 17.6945 14.9711 17.5975 14.9904C17.5006 15.0097 17.4 14.9998 17.3087 14.9619C17.2173 14.9241 17.1392 14.86 17.0843 14.7778C17.0293 14.6956 17 14.5989 17 14.5C17.0002 14.3674 17.0529 14.2404 17.1466 14.1466C17.2403 14.0529 17.3674 14.0002 17.5 14Z" fill="#111111"/>
</svg>
