<svg width="32" height="32" viewBox="0 0 32 32" fill="none" xmlns="http://www.w3.org/2000/svg">
<path d="M8 9.5C8.13261 9.5 8.25978 9.44732 8.35355 9.35355C8.44732 9.25978 8.5 9.13261 8.5 9C8.5 8.86739 8.44732 8.74021 8.35355 8.64644C8.25978 8.55268 8.13261 8.5 8 8.5C7.90111 8.5 7.80444 8.47067 7.72221 8.41573C7.63999 8.36079 7.5759 8.2827 7.53806 8.19134C7.50022 8.09998 7.49031 7.99944 7.50961 7.90245C7.5289 7.80546 7.57652 7.71637 7.64645 7.64645C7.71637 7.57652 7.80546 7.5289 7.90245 7.50961C7.99944 7.49031 8.09998 7.50022 8.19134 7.53806C8.2827 7.5759 8.36079 7.63999 8.41573 7.72221C8.47067 7.80444 8.5 7.90111 8.5 8C8.5 8.13261 8.55268 8.25978 8.64644 8.35355C8.74021 8.44732 8.86739 8.5 9 8.5C9.13261 8.5 9.25978 8.44732 9.35355 8.35355C9.44732 8.25978 9.5 8.13261 9.5 8C9.5 7.70333 9.41202 7.41332 9.2472 7.16664C9.08238 6.91997 8.84811 6.72771 8.57402 6.61418C8.29993 6.50065 7.99834 6.47094 7.70736 6.52882C7.41639 6.5867 7.14912 6.72956 6.93934 6.93934C6.72956 7.14912 6.5867 7.41639 6.52882 7.70736C6.47094 7.99834 6.50065 8.29993 6.61418 8.57402C6.72771 8.84811 6.91997 9.08238 7.16664 9.2472C7.41332 9.41202 7.70333 9.5 8 9.5Z" fill="#111111"/>
<path d="M4.5 11.5C4.89769 11.4996 5.27896 11.3414 5.56017 11.0602C5.84137 10.779 5.99955 10.3977 6 10C6 9.86739 5.94732 9.74021 5.85355 9.64645C5.75979 9.55268 5.63261 9.5 5.5 9.5C5.36739 9.5 5.24021 9.55268 5.14645 9.64645C5.05268 9.74021 5 9.86739 5 10C5 10.0989 4.97068 10.1956 4.91573 10.2778C4.86079 10.36 4.7827 10.4241 4.69134 10.4619C4.59998 10.4998 4.49945 10.5097 4.40245 10.4904C4.30546 10.4711 4.21637 10.4235 4.14645 10.3536C4.07652 10.2836 4.0289 10.1945 4.00961 10.0975C3.99031 10.0006 4.00022 9.90002 4.03806 9.80866C4.0759 9.7173 4.13999 9.63921 4.22221 9.58426C4.30444 9.52932 4.40111 9.5 4.5 9.5C4.63261 9.5 4.75979 9.44732 4.85355 9.35355C4.94732 9.25979 5 9.13261 5 9C5 8.86739 4.94732 8.74021 4.85355 8.64645C4.75979 8.55268 4.63261 8.5 4.5 8.5C4.10218 8.5 3.72064 8.65804 3.43934 8.93934C3.15804 9.22064 3 9.60218 3 10C3 10.3978 3.15804 10.7794 3.43934 11.0607C3.72064 11.342 4.10218 11.5 4.5 11.5Z" fill="#111111"/>
<path d="M15 4C15.1326 4 15.2598 3.94732 15.3536 3.85355C15.4473 3.75978 15.5 3.63261 15.5 3.5C15.5 3.36739 15.4473 3.24021 15.3536 3.14644C15.2598 3.05268 15.1326 3 15 3C14.9011 3 14.8044 2.97067 14.7222 2.91573C14.64 2.86079 14.5759 2.7827 14.5381 2.69134C14.5002 2.59998 14.4903 2.49944 14.5096 2.40245C14.5289 2.30546 14.5765 2.21637 14.6465 2.14645C14.7164 2.07652 14.8055 2.0289 14.9025 2.00961C14.9995 1.99031 15.1 2.00022 15.1913 2.03806C15.2827 2.0759 15.3608 2.13999 15.4157 2.22221C15.4707 2.30444 15.5 2.40111 15.5 2.5C15.5 2.63261 15.5527 2.75978 15.6465 2.85355C15.7402 2.94732 15.8674 3 16 3C16.1326 3 16.2598 2.94732 16.3536 2.85355C16.4473 2.75978 16.5 2.63261 16.5 2.5C16.5 2.20333 16.412 1.91332 16.2472 1.66664C16.0824 1.41997 15.8481 1.22771 15.574 1.11418C15.2999 1.00065 14.9983 0.970945 14.7074 1.02882C14.4164 1.0867 14.1491 1.22956 13.9393 1.43934C13.7296 1.64912 13.5867 1.91639 13.5288 2.20736C13.4709 2.49834 13.5006 2.79993 13.6142 3.07402C13.7277 3.34811 13.92 3.58238 14.1666 3.7472C14.4133 3.91202 14.7033 4 15 4Z" fill="#111111"/>
<path d="M11.5 6.5C11.8977 6.49955 12.279 6.34137 12.5602 6.06017C12.8414 5.77896 12.9996 5.39769 13 5C13 4.86739 12.9473 4.74021 12.8536 4.64645C12.7598 4.55268 12.6326 4.5 12.5 4.5C12.3674 4.5 12.2402 4.55268 12.1464 4.64645C12.0527 4.74021 12 4.86739 12 5C12 5.09889 11.9707 5.19556 11.9157 5.27779C11.8608 5.36001 11.7827 5.4241 11.6913 5.46194C11.6 5.49978 11.4994 5.50969 11.4025 5.49039C11.3055 5.4711 11.2164 5.42348 11.1464 5.35355C11.0765 5.28363 11.0289 5.19454 11.0096 5.09755C10.9903 5.00055 11.0002 4.90002 11.0381 4.80866C11.0759 4.7173 11.14 4.63921 11.2222 4.58427C11.3044 4.52932 11.4011 4.5 11.5 4.5C11.6326 4.5 11.7598 4.44732 11.8536 4.35355C11.9473 4.25979 12 4.13261 12 4C12 3.86739 11.9473 3.74021 11.8536 3.64645C11.7598 3.55268 11.6326 3.5 11.5 3.5C11.1022 3.5 10.7206 3.65804 10.4393 3.93934C10.158 4.22064 10 4.60218 10 5C10 5.39782 10.158 5.77936 10.4393 6.06066C10.7206 6.34196 11.1022 6.5 11.5 6.5Z" fill="#111111"/>
<path d="M26.9999 15C25.9892 15 25.0364 15.466 24.3062 16.2984C23.8384 15.8117 23.3212 15.375 22.7631 14.9954C22.2126 14.2129 20.3001 11.7891 17.3497 11.154C17.4602 10.9262 17.5113 10.6742 17.4982 10.4214C17.485 10.1686 17.4081 9.92318 17.2746 9.70809C17.1411 9.49301 16.9553 9.31522 16.7346 9.19127C16.5138 9.06733 16.2653 9.00127 16.0122 8.99925C15.759 8.99723 15.5095 9.05932 15.2868 9.17972C15.0641 9.30012 14.8755 9.47493 14.7386 9.68785C14.6016 9.90078 14.5208 10.1449 14.5037 10.3975C14.4865 10.65 14.5335 10.9029 14.6404 11.1324C13.3461 11.4015 12.0741 12.078 10.9047 13.128C10.2824 13.6877 9.72326 14.3139 9.23743 14.9955C7.57012 16.133 6.39056 17.6604 5.84399 19.3485C5.59093 19.2256 5.37758 19.0339 5.22831 18.7954C5.07905 18.557 4.9999 18.2813 4.99993 18V13C4.99994 12.9207 4.98111 12.8426 4.94501 12.7721C4.90891 12.7016 4.85657 12.6407 4.7923 12.5943C4.72802 12.548 4.65366 12.5176 4.57534 12.5057C4.49701 12.4937 4.41697 12.5005 4.34181 12.5256L1.34181 13.5256C1.26399 13.5515 1.19374 13.5962 1.13725 13.6556C1.08076 13.7151 1.03977 13.7875 1.01788 13.8666C0.996 13.9456 0.993895 14.0288 1.01176 14.1089C1.02962 14.1889 1.0669 14.2634 1.12031 14.3256L1.99993 15.3515V20C2.00141 21.1356 2.4317 22.2287 3.20467 23.0606C3.97764 23.8925 5.03627 24.4017 6.16868 24.4865C6.67124 25.5722 7.44574 26.5709 8.45537 27.4151L6.58368 30.2226C6.53346 30.2979 6.50463 30.3855 6.50027 30.4759C6.49591 30.5663 6.51617 30.6562 6.5589 30.736C6.60163 30.8158 6.66523 30.8825 6.7429 30.929C6.82057 30.9755 6.90941 31 6.99993 31H24.9999C25.0904 31 25.1792 30.9754 25.2569 30.9289C25.3345 30.8824 25.3981 30.8157 25.4408 30.7359C25.4835 30.6561 25.5037 30.5662 25.4993 30.4758C25.495 30.3854 25.4661 30.2979 25.4159 30.2226L23.5442 27.4151C24.4404 26.6776 25.1773 25.7657 25.7105 24.7349C26.1183 24.9085 26.5567 24.9987 26.9999 25C29.2056 25 30.9999 22.757 30.9999 20C30.9999 17.243 29.2056 15 26.9999 15ZM15.9999 9.99997C16.0988 9.99997 16.1955 10.0293 16.2777 10.0842C16.3599 10.1392 16.424 10.2173 16.4619 10.3086C16.4997 10.4 16.5096 10.5005 16.4903 10.5975C16.471 10.6945 16.4234 10.7836 16.3535 10.8535C16.2836 10.9235 16.1945 10.9711 16.0975 10.9904C16.0005 11.0097 15.9 10.9998 15.8086 10.9619C15.7172 10.9241 15.6391 10.86 15.5842 10.7778C15.5293 10.6955 15.4999 10.5989 15.4999 10.5C15.5001 10.3674 15.5528 10.2403 15.6465 10.1466C15.7403 10.0529 15.8674 10.0001 15.9999 9.99997ZM15.9097 12C18.5909 12 20.5742 13.899 21.4984 15H10.4945C11.4045 13.8992 13.3463 12 15.9097 12ZM19.9999 19.8333L20.9999 21.1667V23.5H18.9999V21.1667L19.9999 19.8333ZM2.99993 20V15.1666C2.99993 15.0473 2.95723 14.9318 2.87956 14.8412L2.36349 14.2392L3.99993 13.6937V18C3.99971 18.5051 4.15257 18.9984 4.43836 19.4149C4.72414 19.8314 5.12944 20.1515 5.60081 20.333C5.5341 20.7185 5.50036 21.1088 5.49993 21.5C5.5006 22.1507 5.59237 22.7981 5.77256 23.4234C4.98864 23.2558 4.28585 22.8246 3.78132 22.2016C3.27679 21.5787 3.00101 20.8016 2.99993 20ZM7.93418 30L9.26749 28H22.7324L24.0657 30H7.93418ZM22.4524 27H9.54756C7.60893 25.5807 6.49993 23.5842 6.49993 21.5C6.49993 19.4102 7.62218 17.4121 9.54737 16H19.4999V18.8334L18.0999 20.7C18.035 20.7865 17.9999 20.8918 17.9999 21V24C17.9999 24.1326 18.0526 24.2598 18.1464 24.3535C18.2401 24.4473 18.3673 24.5 18.4999 24.5H21.4999C21.6325 24.5 21.7597 24.4473 21.8535 24.3535C21.9473 24.2598 21.9999 24.1326 21.9999 24V21C21.9999 20.8918 21.9648 20.7865 21.8999 20.7L20.4999 18.8334V16H22.4539C24.3999 17.4187 25.4999 19.3853 25.4999 21.5C25.4999 23.5843 24.3909 25.5807 22.4524 27ZM26.098 19.1687C26.2672 18.4843 26.6355 18 26.9999 18C27.472 18 27.9999 18.8554 27.9999 20C27.9999 21.1446 27.472 22 26.9999 22C26.7903 22 26.6134 21.8394 26.4967 21.6952C26.4985 21.6302 26.4999 21.5652 26.4999 21.5C26.4982 20.7058 26.3623 19.9176 26.098 19.1687ZM26.9999 24C26.6916 23.9995 26.3865 23.9367 26.1031 23.8153C26.2132 23.5009 26.3012 23.1792 26.3664 22.8525C26.5637 22.9489 26.7803 22.9994 26.9999 23C28.1214 23 28.9999 21.6822 28.9999 20C28.9999 18.3177 28.1214 17 26.9999 17C26.4269 17 25.9041 17.3514 25.5366 17.9375C25.4713 17.8227 25.4039 17.7086 25.3322 17.5964C25.2178 17.4173 25.0947 17.2419 24.9642 17.0697C25.5178 16.3854 26.2422 16 26.9999 16C28.6541 16 29.9999 17.7944 29.9999 20C29.9999 22.2056 28.6541 24 26.9999 24Z" fill="#111111"/>
</svg>
