<svg width="32" height="32" viewBox="0 0 32 32" fill="none" xmlns="http://www.w3.org/2000/svg">
<path d="M28.8 12.8H3.2C1.43519 12.8 0 14.2352 0 16C0 17.7649 1.43519 19.2 3.2 19.2H28.8C30.5648 19.2 32 17.7649 32 16C32 14.2352 30.5648 12.8 28.8 12.8ZM28.8 18.1333H3.2C2.02344 18.1333 1.06669 17.1765 1.06669 16C1.06669 14.8235 2.0235 13.8667 3.2 13.8667H28.8C29.9766 13.8667 30.9333 14.8235 30.9333 16C30.9333 17.1766 29.9766 18.1333 28.8 18.1333Z" fill="#111111"/>
<path d="M24 5.33325H7.99999C4.7653 5.33325 2.1333 7.96525 2.1333 11.1999C2.1333 11.4943 2.37224 11.7333 2.66661 11.7333H29.3333C29.6282 11.7333 29.8666 11.4943 29.8666 11.1999C29.8667 7.96525 27.2347 5.33325 24 5.33325ZM3.2293 10.6666C3.49543 8.26982 5.5333 6.39994 7.99999 6.39994H24C26.4667 6.39994 28.504 8.26982 28.7701 10.6666H3.2293Z" fill="#111111"/>
<path d="M29.3332 20.2667H2.66661C2.37224 20.2667 2.1333 20.5051 2.1333 20.8C2.1333 24.0347 4.7653 26.6667 7.99999 26.6667H24C27.2347 26.6667 29.8667 24.0347 29.8667 20.8C29.8666 20.5051 29.6282 20.2667 29.3332 20.2667ZM23.9999 25.6H7.99993C5.53324 25.6 3.49536 23.7302 3.22924 21.3333H28.7701C28.5039 23.7302 26.4666 25.6 23.9999 25.6Z" fill="#111111"/>
<path d="M25.1798 15.6074C24.6182 16.1248 23.7393 16.1248 23.1777 15.6074C22.2113 14.7168 20.6961 14.7157 19.7291 15.6074C19.1675 16.1248 18.2881 16.1248 17.7264 15.6074C16.7584 14.7163 15.2416 14.7157 14.2731 15.6074C13.7121 16.1243 12.8326 16.1248 12.271 15.6074C11.3041 14.7163 9.78994 14.7163 8.823 15.6074C8.26138 16.1248 7.38194 16.1248 6.82031 15.6074C5.85394 14.7168 4.33925 14.7163 3.37231 15.6074L4.095 16.392C4.65663 15.8747 5.53606 15.8747 6.09713 16.392C7.06456 17.2827 8.57875 17.2827 9.54569 16.392C10.1068 15.8741 10.9863 15.8741 11.5478 16.392C12.0316 16.8373 12.6513 17.0602 13.2721 17.0602C13.8923 17.0602 14.5126 16.8373 14.9958 16.392C15.5596 15.8741 16.4406 15.8741 17.0038 16.392C17.9718 17.2827 19.4854 17.2827 20.4524 16.392C21.0145 15.8741 21.894 15.8747 22.4551 16.392C23.422 17.2827 24.9361 17.2827 25.9031 16.392C26.4647 15.8741 27.3441 15.8741 27.9058 16.392L28.6284 15.6074C27.6614 14.7163 26.1468 14.7163 25.1798 15.6074Z" fill="#111111"/>
</svg>
