<svg width="32" height="32" viewBox="0 0 32 32" fill="none" xmlns="http://www.w3.org/2000/svg">
<path d="M30.2572 7.06294L25.7572 9.56294C25.6904 9.60006 25.6329 9.65201 25.5893 9.7148C25.5457 9.77759 25.5171 9.84954 25.5056 9.92513L25.1912 12H22.8004C21.6004 10.0406 20.5 8.1885 20.5 6.5C20.5 3.39475 24.1394 1.98181 24.1756 1.96819C24.2853 1.92707 24.377 1.84874 24.4349 1.74687C24.4927 1.645 24.5129 1.52605 24.492 1.41079C24.4711 1.29552 24.4104 1.19126 24.3205 1.11618C24.2306 1.0411 24.1171 0.999986 24 1H10C9.9095 1 9.82069 1.02457 9.74306 1.07108C9.66542 1.11758 9.60186 1.18429 9.55916 1.26409C9.51646 1.34388 9.49622 1.43377 9.50059 1.52417C9.50497 1.61456 9.53379 1.70208 9.584 1.77737C9.93792 2.32451 10.2613 2.89079 10.5527 3.47362C11.1724 4.71294 11.5 5.75944 11.5 6.5C11.5 7.09812 11.3607 7.71875 11.1271 8.35856C10.0552 7.46919 8.80963 7 7.5 7C3.91587 7 1 10.5887 1 15C1 18.8616 3.21031 22.1416 6.27369 22.8579C6.35885 23.2928 6.46371 23.7208 6.58825 24.1419C6.59106 24.1516 6.59556 24.1603 6.59894 24.1696C6.10502 24.5204 5.69453 24.9759 5.39669 25.5035C5.01748 25.5294 4.66226 25.6984 4.40283 25.9762C4.1434 26.254 3.9991 26.6199 3.9991 27C3.9991 27.3801 4.1434 27.746 4.40283 28.0238C4.66226 28.3016 5.01748 28.4706 5.39669 28.4965C6.22262 30.0072 8.218 31 10.5 31H27.5C27.8977 30.9996 28.279 30.8414 28.5602 30.5602C28.8414 30.279 28.9996 29.8977 29 29.5V12.5C29 12.3674 28.9473 12.2402 28.8536 12.1464C28.7598 12.0527 28.6326 12 28.5 12H26.2027L26.4576 10.3177L30.7428 7.93706C30.8008 7.9055 30.852 7.86276 30.8933 7.81132C30.9347 7.75987 30.9655 7.70074 30.9839 7.63734C31.0023 7.57393 31.008 7.50751 31.0006 7.44191C30.9932 7.3763 30.9729 7.31281 30.9408 7.25509C30.9088 7.19738 30.8656 7.14658 30.8138 7.10565C30.762 7.06471 30.7026 7.03443 30.639 7.01657C30.5755 6.9987 30.509 6.9936 30.4435 7.00156C30.3779 7.00952 30.3146 7.03038 30.2572 7.06294ZM23.425 26.9944C23.45 26.9981 23.4752 27 23.5005 27.0001C23.62 26.9999 23.7355 26.957 23.8261 26.879C23.9167 26.801 23.9763 26.6932 23.9942 26.5751L25.5966 16H28V28H20V16H24.5852L23.0056 26.425C22.9958 26.4899 22.9988 26.5562 23.0145 26.6199C23.0303 26.6837 23.0584 26.7437 23.0974 26.7966C23.1363 26.8494 23.1853 26.8941 23.2415 26.928C23.2977 26.962 23.3601 26.9845 23.425 26.9944ZM20 15V13H25.0397L24.7367 15H20ZM10.8938 2H22.0772C21.9478 2.09275 21.8163 2.1925 21.6847 2.29944C20.2554 3.46069 19.5 4.91325 19.5 6.5C19.5042 7.00699 19.5746 7.51125 19.7094 8H12.2896C12.4249 7.51133 12.4957 7.00704 12.5 6.5C12.5 5.00331 11.5102 3.06294 10.8938 2ZM3.34869 19.5865C2.479 18.3137 2 16.6849 2 15C2 11.1402 4.46731 8 7.5 8C8.66325 8 9.77331 8.45856 10.7147 9.325C10.5706 9.625 10.4116 9.9285 10.2418 10.2355C9.46075 9.4355 8.50531 9 7.5 9C6.26737 9 5.11925 9.64525 4.26719 10.8168C3.45 11.9404 3 13.4261 3 15C3 17.5696 4.22431 19.8392 6.01506 20.6674C6.03119 21.0383 6.06075 21.4059 6.10375 21.7704C5.04288 21.4146 4.07831 20.6543 3.34869 19.5865ZM6.01556 19.5251C4.80188 18.713 4 16.9688 4 15C4 12.243 5.57013 10 7.5 10C8.30937 10 9.0905 10.4046 9.71831 11.1438C9.50319 11.5049 9.2795 11.87 9.05338 12.2389C7.63819 14.5473 6.17812 16.9302 6.01556 19.525V19.5251ZM7 20C7 17.5018 8.47725 15.0919 9.90625 12.7613C10.6967 11.4718 11.4613 10.2246 11.953 9H20.0459C20.4406 9.98344 21.0114 10.9794 21.6293 12H19.5C19.3674 12 19.2402 12.0527 19.1464 12.1464C19.0527 12.2402 19 12.3674 19 12.5V28H16.6166C16.8042 27.791 16.9293 27.5335 16.9776 27.2568C17.026 26.9801 16.9956 26.6954 16.89 26.4352C16.7843 26.1749 16.6077 25.9496 16.3802 25.7849C16.1527 25.6201 15.8835 25.5226 15.6033 25.5035C14.7773 23.9928 12.782 23 10.5 23C9.46023 22.9913 8.4313 23.2117 7.48631 23.6455C7.16024 22.4579 6.99665 21.2316 7 20ZM6.16394 27.7875C6.11941 27.6802 6.0389 27.5918 5.93623 27.5375C5.83357 27.4831 5.71518 27.4663 5.60144 27.4898C5.56805 27.4966 5.53407 27.5 5.5 27.5C5.36739 27.5 5.24021 27.4473 5.14645 27.3536C5.05268 27.2598 5 27.1326 5 27C5 26.8674 5.05268 26.7402 5.14645 26.6464C5.24021 26.5527 5.36739 26.5 5.5 26.5C5.53414 26.5 5.56818 26.5035 5.60162 26.5103C5.71537 26.5337 5.83371 26.5168 5.93635 26.4625C6.03899 26.4082 6.11952 26.3198 6.16412 26.2126C6.70606 24.9099 8.48913 24.0001 10.5002 24.0001C12.5113 24.0001 14.2943 24.91 14.8363 26.2126C14.8809 26.3198 14.9614 26.4082 15.064 26.4625C15.1667 26.5168 15.285 26.5337 15.3988 26.5103C15.4321 26.5035 15.466 26.5 15.5 26.5C15.6326 26.5 15.7598 26.5527 15.8536 26.6464C15.9473 26.7402 16 26.8674 16 27C16 27.1326 15.9473 27.2598 15.8536 27.3536C15.7598 27.4473 15.6326 27.5 15.5 27.5C15.4659 27.5 15.4318 27.4965 15.3984 27.4897C15.2846 27.4663 15.1663 27.4832 15.0636 27.5375C14.961 27.5918 14.8805 27.6802 14.8359 27.7874C14.2941 29.0901 12.511 30 10.5 30C8.489 30 6.70587 29.0901 6.16394 27.7875ZM15.2696 29H19V29.5C18.9999 29.6704 19.029 29.8395 19.086 30H14.1536C14.5786 29.7311 14.9558 29.3931 15.2696 29ZM27.5 30H20.5C20.3674 29.9999 20.2403 29.9471 20.1466 29.8534C20.0529 29.7597 20.0001 29.6326 20 29.5V29H28V29.5C27.9999 29.6326 27.9471 29.7597 27.8534 29.8534C27.7597 29.9471 27.6326 29.9999 27.5 30ZM28 13V15H25.7481L26.0512 13H28Z" fill="#111111"/>
</svg>
