<svg width="32" height="32" viewBox="0 0 32 32" fill="none" xmlns="http://www.w3.org/2000/svg">
<path d="M6.17987 7.88411C6.82894 8.42499 7.5 8.98418 7.5 9.49999C7.5 10.2034 7.23519 10.4089 6.22269 11.0839C6.16805 11.1203 6.12113 11.1672 6.08459 11.2217C6.04805 11.2763 6.02262 11.3375 6.00974 11.4019C5.99686 11.4663 5.99679 11.5326 6.00953 11.597C6.02227 11.6614 6.04758 11.7227 6.084 11.7773C6.12042 11.8319 6.16725 11.8789 6.2218 11.9154C6.27636 11.9519 6.33758 11.9774 6.40196 11.9902C6.46635 12.0031 6.53264 12.0032 6.59705 11.9905C6.66147 11.9777 6.72274 11.9524 6.77738 11.916C7.81469 11.2244 8.5 10.7675 8.5 9.49999C8.5 8.5158 7.646 7.80411 6.82013 7.11586C6.17106 6.57499 5.5 6.0158 5.5 5.49999C5.5 4.79661 5.76481 4.59105 6.77738 3.91599C6.88693 3.84209 6.96278 3.72783 6.98834 3.59818C7.0139 3.46853 6.9871 3.33404 6.91379 3.22409C6.84048 3.11414 6.72662 3.03769 6.59711 3.01143C6.4676 2.98518 6.33296 3.01127 6.22262 3.08399C5.18531 3.77555 4.5 4.23243 4.5 5.49999C4.5 6.48418 5.354 7.19586 6.17987 7.88411Z" fill="#111111"/>
<path d="M11.6799 5.88411C12.3289 6.42498 13 6.98417 13 7.49998C13 8.20336 12.7352 8.40892 11.7227 9.08392C11.6681 9.12034 11.6211 9.16717 11.5846 9.22172C11.5481 9.27628 11.5226 9.3375 11.5097 9.40188C11.4969 9.46627 11.4968 9.53256 11.5095 9.59697C11.5223 9.66139 11.5476 9.72266 11.584 9.77729C11.6204 9.83193 11.6672 9.87885 11.7218 9.91539C11.7764 9.95193 11.8376 9.97736 11.902 9.99024C12.032 10.0162 12.167 9.98954 12.2774 9.91598C13.3147 9.22442 14 8.76754 14 7.49998C14 6.51579 13.146 5.80411 12.3201 5.11586C11.6711 4.57498 11 4.01579 11 3.49998C11 3.01511 11.3906 2.75923 12.1393 2.31248C12.3453 2.18948 12.5581 2.06248 12.7774 1.91623C12.8869 1.84234 12.9628 1.72808 12.9883 1.59843C13.0139 1.46878 12.9871 1.33428 12.9138 1.22433C12.8405 1.11438 12.7266 1.03793 12.5971 1.01168C12.4676 0.985424 12.333 1.01151 12.2226 1.08423C12.0242 1.21642 11.8221 1.33717 11.6266 1.45392C10.8269 1.93123 10 2.42498 10 3.49998C10 4.48417 10.854 5.19586 11.6799 5.88411Z" fill="#111111"/>
<path d="M17.6799 7.88411C18.3289 8.42499 19 8.98418 19 9.49999C19 10.2034 18.7352 10.4089 17.7227 11.0839C17.6681 11.1203 17.6211 11.1672 17.5846 11.2217C17.5481 11.2763 17.5226 11.3375 17.5097 11.4019C17.4969 11.4663 17.4968 11.5326 17.5095 11.597C17.5223 11.6614 17.5476 11.7227 17.584 11.7773C17.6204 11.8319 17.6672 11.8789 17.7218 11.9154C17.7764 11.9519 17.8376 11.9774 17.902 11.9902C17.9663 12.0031 18.0326 12.0032 18.0971 11.9905C18.1615 11.9777 18.2227 11.9524 18.2774 11.916C19.3147 11.2244 20 10.7675 20 9.49999C20 8.5158 19.146 7.80411 18.3201 7.11586C17.6711 6.57499 17 6.0158 17 5.49999C17 4.79661 17.2648 4.59105 18.2774 3.91599C18.3869 3.84209 18.4628 3.72783 18.4883 3.59818C18.5139 3.46853 18.4871 3.33404 18.4138 3.22409C18.3405 3.11414 18.2266 3.03769 18.0971 3.01143C17.9676 2.98518 17.833 3.01127 17.7226 3.08399C16.6853 3.77555 16 4.23243 16 5.49999C16 6.48418 16.854 7.19586 17.6799 7.88411Z" fill="#111111"/>
<path d="M30 28H19.2711C20.0345 27.42 20.7236 26.7483 21.3229 26H24C25.7233 25.998 27.3755 25.3126 28.594 24.094C29.8126 22.8755 30.498 21.2233 30.5 19.5C30.4983 18.0418 29.9184 16.6438 28.8873 15.6127C27.8562 14.5816 26.4582 14.0017 25 14H3C2.86739 14 2.74021 14.0527 2.64645 14.1464C2.55268 14.2402 2.5 14.3674 2.5 14.5V16.5C2.5 19.2098 3.15062 21.8231 4.38125 24.0574C5.26494 25.6616 6.40512 26.9993 7.73012 28H2C1.86739 28 1.74021 28.0527 1.64645 28.1464C1.55268 28.2402 1.5 28.3674 1.5 28.5C1.50074 29.1628 1.76438 29.7983 2.23306 30.2669C2.70173 30.7356 3.33719 30.9993 4 31H28C28.6628 30.9993 29.2983 30.7356 29.7669 30.2669C30.2356 29.7983 30.4993 29.1628 30.5 28.5C30.5 28.3674 30.4473 28.2402 30.3536 28.1464C30.2598 28.0527 30.1326 28 30 28ZM24.5 15H25C26.1931 15.0013 27.3369 15.4759 28.1805 16.3195C29.0241 17.1631 29.4987 18.3069 29.5 19.5C29.4983 20.9582 28.9184 22.3562 27.8873 23.3873C26.8562 24.4184 25.4582 24.9983 24 25H22.0544C22.2669 24.678 22.4667 24.3447 22.654 24H24.1818C25.3267 23.9987 26.4243 23.5433 27.2338 22.7338C28.0433 21.9243 28.4987 20.8267 28.5 19.6818C28.4989 18.7057 28.1106 17.7698 27.4204 17.0796C26.7302 16.3894 25.7943 16.0011 24.8182 16H24.5V15ZM24.4925 17H24.8182C25.5292 17.0008 26.2109 17.2836 26.7136 17.7864C27.2164 18.2891 27.4992 18.9708 27.5 19.6818C27.499 20.5616 27.1491 21.405 26.527 22.027C25.905 22.6491 25.0616 22.999 24.1818 23H23.1474C23.9817 21.1065 24.4386 19.0684 24.4925 17ZM5.25737 23.575C4.10769 21.488 3.5 19.0416 3.5 16.5V15H23.5V16.5C23.5 19.0312 22.8969 21.4693 21.7558 23.5509C20.6723 25.5276 19.1751 27.0634 17.4211 28H9.57825C7.83194 27.0673 6.34037 25.5409 5.25737 23.575ZM28 30H4C3.68988 29.9996 3.38747 29.9033 3.13426 29.7243C2.88104 29.5453 2.68942 29.2923 2.58569 29H29.4143C29.3106 29.2923 29.119 29.5453 28.8657 29.7243C28.6125 29.9033 28.3101 29.9996 28 30Z" fill="#111111"/>
</svg>
