<svg width="96" height="96" viewBox="0 0 96 96" fill="none" xmlns="http://www.w3.org/2000/svg">
<path d="M94.3966 60.8024H1.60305C0.719924 60.8024 0.00311279 61.5175 0.00311279 62.4023C0.00311279 80.9274 15.0741 96 33.6008 96H62.3989C80.924 96 95.9966 80.9274 95.9966 62.4023C95.9966 61.5175 95.2814 60.8024 94.3966 60.8024ZM62.3989 92.8001H33.6008C17.3763 92.8001 4.07954 80.0233 3.24442 64.002H92.7551C91.9201 80.0233 78.6234 92.8001 62.3989 92.8001Z" fill="#323232"/>
<path d="M81.6041 22.4146C81.6041 22.2978 81.6025 22.181 81.5914 22.0034C81.345 19.3509 79.5212 17.1718 77.1133 16.3543L78.9244 14.5432C82.065 11.4667 82.3802 6.54539 79.6315 3.07046C76.6877 -0.506848 71.3824 -1.01572 67.8066 1.92652C67.6034 2.09452 67.4067 2.27209 67.2098 2.46896L65.242 4.46565C64.4164 2.07052 62.2326 0.259464 59.5416 0.00990132C55.9979 -0.183598 52.9981 2.53609 52.8078 6.05902C52.8014 6.17583 52.7997 6.29264 52.7997 6.40777V8.86045C51.859 8.31483 50.7695 8.00133 49.6064 7.99964C49.4913 7.99964 49.3728 8.00283 49.1952 8.01239C45.7747 8.33077 43.1429 11.2698 43.2005 14.6774V16.8534C42.2405 16.2982 41.1462 16.0006 40.0072 15.9989C39.892 15.9989 39.7752 16.0021 39.5977 16.0117C36.1754 16.3301 33.5437 19.2691 33.6012 22.6769V46.4033C33.6012 47.2882 34.318 48.0033 35.2012 48.0033H62.3993C65.9286 48.0033 68.7989 45.133 68.7972 41.6069C68.7972 40.4422 68.4852 39.3494 67.938 38.4072H70.0995C73.536 38.5015 76.4751 35.8314 76.7967 32.3484C76.8655 31.046 76.539 29.8141 75.9216 28.7679C77.3582 28.6079 78.6878 27.9727 79.7245 26.9392C80.9336 25.7328 81.6025 24.1265 81.6041 22.4146ZM77.4651 24.6736C76.8604 25.2751 76.0588 25.6064 75.2029 25.6064C75.2012 25.6064 75.1997 25.6064 75.198 25.6064H70.3984C69.5136 25.6064 68.7985 26.3232 68.7985 27.2064C68.7985 28.0895 69.5136 28.8063 70.3984 28.8063L70.5745 28.8112C72.3375 28.9055 73.6943 30.4158 73.6047 32.1149C73.4415 33.878 71.9457 35.2428 70.1265 35.2059H62.3991C61.5143 35.2059 60.7992 35.9227 60.7992 36.8058C60.7992 37.6889 61.5143 38.4057 62.3991 38.4057C64.1639 38.4057 65.599 39.8409 65.599 41.6056C65.599 43.3704 64.1639 44.8055 62.3991 44.8055H36.8007V22.6498C36.7704 20.8786 38.1303 19.3636 39.8309 19.2035L40.0053 19.1986C41.7668 19.2001 43.1986 20.6338 43.2003 22.3936V22.4049C43.2003 23.288 43.9154 24.0048 44.7985 24.0048C44.8002 24.0048 44.8002 24.0048 44.8002 24.0048C45.6833 24.0048 46.3985 23.2897 46.4002 22.4066V22.4051V14.6503C46.3698 12.8791 47.7297 11.3641 49.4303 11.204L49.6032 11.1991C51.3663 11.2023 52.7982 12.6358 52.7999 14.3973V14.4069C52.7999 15.29 53.515 16.0068 54.3981 16.0068C54.3998 16.0068 54.3998 16.0068 54.3998 16.0068C55.2829 16.0068 55.9981 15.2917 55.9998 14.4086V14.4069V6.40758L56.0046 6.23002C56.0974 4.46846 57.5725 3.1119 59.3069 3.19984C61.0731 3.36465 62.4314 4.87965 62.3978 6.68114V8.00902C62.3978 8.65702 62.7899 9.24258 63.3914 9.48895C63.9882 9.73533 64.6825 9.59451 65.1368 9.13064L69.4772 4.72608C69.5955 4.60927 69.7172 4.49883 69.8436 4.39496C72.0578 2.57434 75.3392 2.89102 77.1439 5.07971C78.8526 7.24271 78.6557 10.3273 76.6752 12.2681L72.4675 16.4758C72.01 16.9333 71.8723 17.6212 72.1202 18.2197C72.3666 18.8165 72.9522 19.2069 73.5985 19.2069H74.9263C74.9599 19.2069 74.9839 19.2069 75.0111 19.2069C76.7582 19.2069 78.2428 20.5541 78.3996 22.2371L78.4045 22.4131C78.4026 23.2674 78.07 24.0704 77.4651 24.6736Z" fill="#323232"/>
<path d="M69.2686 10.0712L24.4726 54.8673L26.7351 57.1298L71.5311 12.3337L69.2686 10.0712Z" fill="#323232"/>
<path d="M62.3959 12.8152H59.1961V20.8147H62.3959V12.8152Z" fill="#323232"/>
<path d="M52.7966 20.8148H49.5967V30.4142H52.7966V20.8148Z" fill="#323232"/>
<path d="M43.1971 28.7981H39.9972V39.9973H43.1971V28.7981Z" fill="#323232"/>
<path d="M68.7953 19.2148H60.7958V22.4145H68.7953V19.2148Z" fill="#323232"/>
<path d="M60.796 28.7981H51.1966V31.9978H60.796V28.7981Z" fill="#323232"/>
<path d="M52.7963 38.3975H41.5972V41.5973H52.7963V38.3975Z" fill="#323232"/>
<path d="M29.8652 7.40117C29.8637 7.39798 29.8603 7.39479 29.8588 7.39161C27.6013 4.01098 23.0128 3.09261 19.6339 5.35011C19.5283 5.41892 19.4242 5.49242 19.3059 5.58054L18.7299 6.01892L18.1764 5.62048C15.2486 2.88955 10.6457 2.99998 7.85869 5.89254C6.49407 7.30686 5.76132 9.1691 5.79807 11.1354C5.83482 13.1017 6.63319 14.9351 8.046 16.2982C8.45719 16.695 8.91469 17.0437 9.40744 17.3349L10.7546 18.3877V19.2069C10.7546 23.6178 14.3432 27.2064 18.7541 27.2064C23.165 27.2064 26.7536 23.6162 26.7519 19.2054V18.3862L28.1679 17.2807C31.2315 14.9559 31.9755 10.6155 29.8652 7.40117ZM26.2158 14.7463L24.168 16.3462C23.7808 16.6487 23.5535 17.1142 23.5535 17.607V19.2069C23.5535 21.8531 21.4001 24.0065 18.7539 24.0065C16.1077 24.0065 13.9543 21.8531 13.9543 19.2069V17.607C13.9543 17.1142 13.7287 16.6487 13.3399 16.3462L11.292 14.7463C11.2312 14.6983 11.1656 14.6552 11.0985 14.6167C10.7977 14.4455 10.5193 14.2376 10.2698 13.9959C9.46988 13.2247 9.01856 12.188 8.99775 11.0777C8.97694 9.96729 9.39131 8.91467 10.1625 8.1146C10.9768 7.26992 12.0664 6.84429 13.1574 6.84429C14.1973 6.84429 15.2389 7.22979 16.0453 8.00904C16.0997 8.06023 16.1572 8.10992 16.2197 8.15454L17.8196 9.30654C18.3892 9.71773 19.1619 9.70817 19.722 9.28254L21.4084 8.01392C22.3363 7.39311 23.4482 7.17561 24.5426 7.39161C25.6337 7.60911 26.576 8.23798 27.1952 9.16273C28.3822 10.977 27.9598 13.4216 26.2158 14.7463Z" fill="#323232"/>
<path d="M38.3974 1.59991H35.1976V4.7996H38.3974V1.59991Z" fill="#323232"/>
<path d="M47.9967 52.7965H44.797V55.9962H47.9967V52.7965Z" fill="#323232"/>
<path d="M86.3974 9.60748V12.8074C88.1621 12.8074 89.5973 14.2425 89.5973 16.007C89.5973 17.7716 88.1621 19.2069 86.3974 19.2069V22.4066C89.9267 22.4066 92.7969 19.5363 92.7969 16.007C92.7969 12.4777 89.9267 9.60748 86.3974 9.60748Z" fill="#323232"/>
<path d="M6.39964 24.0144H3.19995V27.2143H6.39964V24.0144Z" fill="#323232"/>
<path d="M3.20279 17.6149H0.00311279V20.8147H3.20279V17.6149Z" fill="#323232"/>
<path d="M62.399 51.203C58.8697 51.203 55.9994 54.0732 55.9994 57.6026H59.1993C59.1993 55.8378 60.6344 54.4027 62.399 54.4027C64.1637 54.4027 65.5988 55.8378 65.5988 57.6026H68.7985C68.7985 54.0732 65.9283 51.203 62.399 51.203Z" fill="#323232"/>
<path d="M19.202 36.8039H19.0005C18.2869 34.0473 15.7798 32.0043 12.8025 32.0043C9.82518 32.0043 7.31643 34.0473 6.6045 36.8039H6.40294C2.87363 36.8039 0.00338745 39.6742 0.00338745 43.2035C0.00338745 46.7328 2.87363 49.6031 6.40294 49.6031H19.202C22.7313 49.6031 25.6016 46.7328 25.6016 43.2035C25.6016 39.6742 22.7313 36.8039 19.202 36.8039ZM19.202 46.4049H6.40275C4.638 46.4049 3.20288 44.9697 3.20288 43.2052C3.20288 41.4404 4.638 40.0053 6.40275 40.0053H8.00268C8.88581 40.0053 9.60262 39.2885 9.60262 38.4054C9.60262 36.6406 11.0377 35.2057 12.8025 35.2057C14.5672 35.2057 16.0024 36.6408 16.0024 38.4054C16.0024 39.2885 16.7192 40.0053 17.6023 40.0053H19.2022C20.967 40.0053 22.4021 41.4404 22.4021 43.2052C22.4017 44.9699 20.9666 46.4049 19.202 46.4049Z" fill="#323232"/>
<path d="M16.0021 46.4033H9.60253C8.71941 46.4033 8.00259 47.1201 8.00259 48.0033V54.4028C8.00259 55.2876 8.71941 56.0027 9.60253 56.0027H16.0021C16.8852 56.0027 17.602 55.2876 17.602 54.4028V48.0033C17.602 47.1201 16.8852 46.4033 16.0021 46.4033ZM14.4021 52.8029H11.2025V49.6032H14.4023V52.8029H14.4021Z" fill="#323232"/>
<path d="M84.7975 41.6038C82.1513 41.6038 79.9979 43.7572 79.9979 46.4034C79.9979 49.0496 82.1513 51.203 84.7975 51.203C87.4437 51.203 89.5971 49.0496 89.5971 46.4034C89.5971 43.7572 87.4437 41.6038 84.7975 41.6038ZM84.7975 48.0048C83.9144 48.0048 83.1975 47.2865 83.1975 46.4049C83.1975 45.5233 83.9144 44.8049 84.7975 44.8049C85.6806 44.8049 86.3974 45.5218 86.3974 46.4049C86.3974 47.2882 85.6806 48.0048 84.7975 48.0048Z" fill="#323232"/>
<path d="M84.7975 35.2042C78.6235 35.2042 73.5983 40.2278 73.5983 46.4033C73.5983 52.5788 78.6235 57.6025 84.7975 57.6025C90.9715 57.6025 95.9967 52.5788 95.9967 46.4033C95.9967 40.2278 90.9715 35.2042 84.7975 35.2042ZM84.7975 54.4043C80.3866 54.4043 76.798 50.8143 76.798 46.4048C76.798 41.9939 80.3866 38.4053 84.7975 38.4053C89.2084 38.4053 92.797 41.9939 92.797 46.4048C92.797 50.8158 89.2084 54.4043 84.7975 54.4043Z" fill="#323232"/>
</svg>
