<svg width="98" height="98" viewBox="0 0 98 98" fill="none" xmlns="http://www.w3.org/2000/svg">
<path d="M92.5145 46.2958H90.0096C86.3806 30.9564 72.2004 19.5829 55.1467 17.9179V14.0314C56.081 13.3504 56.8408 12.47 57.367 11.4586C57.8931 10.4472 58.1716 9.33194 58.1807 8.19942C58.1807 6.29002 57.3975 4.45882 56.0035 3.10866C54.6095 1.75851 52.7189 1 50.7474 1C48.776 1 46.8853 1.75851 45.4913 3.10866C44.0973 4.45882 43.3142 6.29002 43.3142 8.19942C43.3142 10.5964 44.4384 12.7221 46.4213 14.0314V17.9181C29.1695 19.5833 15.0179 30.9577 11.3889 46.2958H8.96784C6.53888 46.2958 4.47379 48.1321 4.40062 50.4827C4.38304 51.0629 4.48611 51.6406 4.70368 52.1814C4.92126 52.7222 5.2489 53.2151 5.66713 53.6308C6.08535 54.0465 6.58562 54.3765 7.13818 54.6011C7.69074 54.8258 8.2843 54.9405 8.88356 54.9385H9.11617L9.88953 58.9937C10.1048 60.1213 10.7213 61.1401 11.6319 61.873C12.5425 62.6059 13.6894 63.0065 14.8734 63.0051H28.4031C27.0034 63.5538 25.6835 64.2769 24.4768 65.1562C24.4508 65.1754 24.4254 65.1946 24.4012 65.2163L21.9967 67.2896C21.0992 68.0616 20.0382 68.6342 18.8881 68.9673L18.8411 68.7967C18.718 68.4022 18.468 68.056 18.1274 67.8088C17.7869 67.5616 17.3737 67.4263 16.9482 67.4225H2.98199C2.67451 67.428 2.37238 67.5014 2.09866 67.6372C1.82495 67.773 1.58687 67.9675 1.4026 68.206C1.21833 68.4445 1.09273 68.7206 1.0354 69.0132C0.978065 69.3058 0.990508 69.6073 1.07178 69.8946L8.45107 95.5732C8.56699 95.9792 8.81588 96.3379 9.16032 96.5952C9.50476 96.8525 9.92614 96.9946 10.3611 97H25.1391C25.4501 96.9966 25.7559 96.9231 26.0325 96.7855C26.3091 96.6479 26.5489 96.4498 26.7328 96.207C26.9168 95.9642 27.04 95.6833 27.0925 95.3864C27.1451 95.0896 27.1257 94.785 27.0358 94.4967L25.0796 88.2781L32.144 83.9504C33.0746 83.4525 34.1659 83.3158 35.1966 83.568C35.2212 83.5739 35.246 83.5787 35.271 83.5832L49.7883 86.172C50.4472 86.2874 51.1121 86.3688 51.78 86.4157C55.9177 86.6753 60.0242 85.5705 63.4308 83.2811L86.7185 67.7946C86.9685 67.6283 87.1435 67.3759 87.2077 67.0888C87.272 66.8018 87.2207 66.5018 87.0643 66.2502C86.5115 65.3579 85.7538 64.601 84.85 64.0382C83.9463 63.4754 82.9208 63.1219 81.8532 63.0051H86.404C87.5674 63.0027 88.6948 62.6136 89.5977 61.903C90.5007 61.1924 91.1246 60.2032 91.3652 59.1007L92.2587 54.9385H92.4309C94.8598 54.9385 96.9249 53.1022 96.9981 50.7516C97.0156 50.1714 96.9125 49.5937 96.6949 49.0528C96.4773 48.512 96.1496 48.0191 95.7313 47.6034C95.313 47.1877 94.8127 46.8577 94.2601 46.6331C93.7075 46.4084 93.1138 46.2937 92.5145 46.2958ZM45.6452 8.19942C45.6452 7.23122 45.9416 6.28474 46.4969 5.47969C47.0523 4.67464 47.8416 4.04717 48.7652 3.67664C49.6887 3.3061 50.705 3.20914 51.6854 3.39802C52.6659 3.5869 53.5665 4.05313 54.2733 4.73776C54.9802 5.42238 55.4616 6.29465 55.6566 7.24426C55.8516 8.19387 55.7515 9.17816 55.3689 10.0727C54.9864 10.9672 54.3385 11.7317 53.5073 12.2696C52.6761 12.8075 51.6989 13.0945 50.6992 13.0945C49.3593 13.093 48.0747 12.5768 47.1272 11.6591C46.1797 10.7414 45.6467 9.49722 45.6452 8.19942ZM52.7671 15.1401V17.7506C51.9739 17.722 51.4449 17.7063 50.7841 17.7063C50.1234 17.7063 49.396 17.722 48.8011 17.7506V15.1401C49.4467 15.3141 50.114 15.4013 50.7841 15.3992C51.4533 15.3886 52.1189 15.3016 52.7671 15.1401ZM50.6992 20.011C68.4073 20.011 83.6637 30.9823 87.563 46.2958H13.8351C17.7354 30.9835 32.9951 20.011 50.6992 20.011ZM10.6625 94.6953L3.50391 69.7273H16.6767L24.6087 94.6953H10.6625ZM84.3363 66.5826L62.0834 81.381C59.1218 83.3745 55.5508 84.3387 51.9515 84.1169C51.3694 84.0761 50.7901 84.0052 50.2158 83.9045L35.7372 81.3224C34.1189 80.936 32.4094 81.1608 30.956 81.9512C30.9374 81.9612 30.9189 81.9718 30.9009 81.9827L24.3519 85.9928L19.5957 71.172C21.0695 70.7401 22.4287 70.0029 23.5789 69.0115L25.9462 66.9704C28.1269 65.3837 30.7173 64.4105 33.4323 64.158C36.1473 63.9054 38.8816 64.3834 41.3342 65.5392L42.33 66.0059C44.0509 66.8094 45.9363 67.2279 47.8467 67.2305H57.5039C58.875 67.2321 60.2042 67.6885 61.2702 68.5237C62.3362 69.3589 63.0748 70.5224 63.363 71.8207L56.5001 71.52C53.949 71.4084 51.3927 71.5227 48.863 71.8615C48.7082 71.8822 48.5592 71.9323 48.4244 72.0089C48.2896 72.0854 48.1717 72.187 48.0774 72.3077C47.9831 72.4284 47.9143 72.5659 47.8748 72.7123C47.8354 72.8588 47.8262 73.0113 47.8476 73.1612C47.8691 73.3111 47.9208 73.4555 47.9998 73.5861C48.0789 73.7166 48.1837 73.8308 48.3083 73.9221C48.4329 74.0135 48.5749 74.0801 48.7261 74.1183C48.8773 74.1565 49.0348 74.1655 49.1896 74.1447C51.5756 73.8253 53.9866 73.7173 56.3928 73.8222L64.6305 74.1833C64.6486 74.1833 64.6666 74.1846 64.6845 74.1846C65 74.1846 65.3027 74.0632 65.5258 73.8471C65.7489 73.631 65.8743 73.3379 65.8743 73.0323C65.8743 72.8828 65.8693 72.7346 65.861 72.5871L78.8623 65.8073C79.739 65.3475 80.7457 65.1745 81.7323 65.3143C82.7188 65.454 83.6322 65.8989 84.3363 66.5826ZM41.2985 63.0051H58.7064L55.0598 64.9257H47.8467C46.2952 64.9236 44.764 64.5836 43.3664 63.931L42.3703 63.4645C42.0165 63.2991 41.6593 63.146 41.2985 63.0051ZM62.3676 66.4403C61.5235 65.8533 60.5737 65.4241 59.567 65.1748L61.6261 64.0905C61.6356 64.0855 61.6459 64.0803 61.6543 64.0751C63.2369 63.1866 65.2468 63.2279 66.8983 64.0751L62.3676 66.4403ZM71.3874 64.3511C72.6218 63.7534 74.1636 64.2115 75.1971 65.1026L65.3615 70.2368C65.0718 69.4785 64.6667 68.7664 64.1596 68.1241L71.3874 64.3511ZM76.3278 63.0051H80.2642C79.3771 63.1041 78.5176 63.3665 77.7321 63.778L77.3816 63.9612C77.0687 63.6049 76.7152 63.2842 76.3278 63.0051ZM92.5145 52.6338H29.1695C28.854 52.6338 28.5514 52.7552 28.3282 52.9713C28.1051 53.1874 27.9797 53.4805 27.9797 53.7862C27.9797 54.0918 28.1051 54.3849 28.3282 54.601C28.5514 54.8171 28.854 54.9385 29.1695 54.9385H89.8292L89.036 58.6321C88.9083 59.2167 88.5772 59.7411 88.0981 60.1176C87.619 60.4941 87.0209 60.6998 86.404 60.7004H14.8734C14.2458 60.7016 13.6376 60.4896 13.1548 60.1013C12.6719 59.7131 12.3449 59.1731 12.2307 58.5754L11.5364 54.9385H22.4274C22.7429 54.9385 23.0456 54.8171 23.2687 54.601C23.4918 54.3849 23.6172 54.0918 23.6172 53.7862C23.6172 53.4805 23.4918 53.1874 23.2687 52.9713C23.0456 52.7552 22.7429 52.6338 22.4274 52.6338H8.92878C8.36996 52.64 7.83105 52.433 7.42859 52.0575C7.02612 51.6819 6.79242 51.168 6.77803 50.6269C6.77749 50.3596 6.83169 50.0948 6.93748 49.8479C7.04326 49.6009 7.19855 49.3768 7.39435 49.1883C7.59015 48.9999 7.82258 48.8509 8.07819 48.75C8.33381 48.6491 8.60754 48.5983 8.88356 48.6005H92.4699C93.0287 48.5943 93.5676 48.8013 93.97 49.1769C94.3725 49.5524 94.6061 50.0663 94.6205 50.6074C94.621 50.8747 94.5668 51.1396 94.461 51.3866C94.3552 51.6335 94.1999 51.8577 94.0041 52.0462C93.8082 52.2346 93.5757 52.3836 93.3201 52.4845C93.0644 52.5853 92.7906 52.6361 92.5145 52.6338Z" fill="#323232" stroke="#323232"/>
</svg>
