<svg width="24" height="24" viewBox="0 0 24 24" fill="none" xmlns="http://www.w3.org/2000/svg">
<path d="M23.5 12C23.5 18.3513 18.3513 23.5 12 23.5C5.64873 23.5 0.5 18.3513 0.5 12C0.5 5.64873 5.64873 0.5 12 0.5C18.3513 0.5 23.5 5.64873 23.5 12Z" stroke="#BDBDBD"/>
<path fill-rule="evenodd" clip-rule="evenodd" d="M11.5468 17.263H12.4887C12.4887 17.263 12.7732 17.2317 12.9184 17.0752C13.0521 16.9314 13.0478 16.6615 13.0478 16.6615C13.0478 16.6615 13.0294 15.3977 13.616 15.2116C14.1942 15.0282 14.9367 16.433 15.7236 16.9731C16.3188 17.3819 16.771 17.2923 16.771 17.2923L18.8752 17.263C18.8752 17.263 19.976 17.1952 19.4541 16.3297C19.4113 16.2589 19.1501 15.6894 17.8895 14.5193C16.5701 13.2947 16.7468 13.4928 18.3362 11.3744C19.3041 10.0843 19.6911 9.2967 19.5702 8.95936C19.4549 8.63807 18.743 8.72299 18.743 8.72299L16.3737 8.73775C16.3737 8.73775 16.1981 8.71379 16.0678 8.79166C15.9406 8.86802 15.8586 9.046 15.8586 9.046C15.8586 9.046 15.4836 10.0443 14.9835 10.8933C13.9285 12.6848 13.5067 12.7794 13.3343 12.6682C12.9332 12.4089 13.0333 11.6266 13.0333 11.0709C13.0333 9.33478 13.2966 8.6109 12.5205 8.42352C12.263 8.36127 12.0735 8.3202 11.4148 8.31357C10.5695 8.3048 9.85392 8.31613 9.44877 8.51464C9.17924 8.64663 8.97132 8.94075 9.09796 8.95765C9.25454 8.97862 9.60921 9.05327 9.79723 9.30932C10.04 9.6396 10.0315 10.3814 10.0315 10.3814C10.0315 10.3814 10.1709 12.4252 9.70568 12.6791C9.38631 12.8532 8.94822 12.4977 8.00765 10.8724C7.52571 10.0398 7.16185 9.11958 7.16185 9.11958C7.16185 9.11958 7.09168 8.9476 6.96655 8.85562C6.81467 8.74417 6.60247 8.70866 6.60247 8.70866L4.35105 8.72342C4.35105 8.72342 4.01307 8.73283 3.889 8.87979C3.77862 9.01049 3.88023 9.28087 3.88023 9.28087C3.88023 9.28087 5.64286 13.4047 7.63865 15.4828C9.46867 17.3881 11.5468 17.263 11.5468 17.263Z" fill="#BDBDBD"/>
</svg>
